<?xml version="1.0" encoding="UTF-8" standalone="no"?>
<!-- Created with Inkscape (http://www.inkscape.org/) -->

<svg
   version="1.1"
   id="svg1"
   width="9in"
   height="6in"
   viewBox="0 0 864 575.99998"
   sodipodi:docname="boxcover.svg"
   inkscape:version="1.3.2 (091e20e, 2023-11-25)"
   xmlns:inkscape="http://www.inkscape.org/namespaces/inkscape"
   xmlns:sodipodi="http://sodipodi.sourceforge.net/DTD/sodipodi-0.dtd"
   xmlns="http://www.w3.org/2000/svg"
   xmlns:svg="http://www.w3.org/2000/svg">
  <defs
     id="defs1">
    <inkscape:perspective
       sodipodi:type="inkscape:persp3d"
       inkscape:vp_x="0 : 63.999997 : 1"
       inkscape:vp_y="0 : 999.99997 : 0"
       inkscape:vp_z="1536 : 63.999997 : 1"
       inkscape:persp3d-origin="768 : -106.66667 : 1"
       id="perspective200" />
  </defs>
  <sodipodi:namedview
     id="namedview1"
     pagecolor="#ffffff"
     bordercolor="#000000"
     borderopacity="0.25"
     inkscape:showpageshadow="2"
     inkscape:pageopacity="0.0"
     inkscape:pagecheckerboard="0"
     inkscape:deskcolor="#d1d1d1"
     inkscape:zoom="0.52564253"
     inkscape:cx="510.80342"
     inkscape:cy="277.7553"
     inkscape:window-width="1472"
     inkscape:window-height="895"
     inkscape:window-x="0"
     inkscape:window-y="33"
     inkscape:window-maximized="0"
     inkscape:current-layer="g1"
     inkscape:document-units="in" />
  <g
     inkscape:groupmode="layer"
     inkscape:label="Image"
     id="g1">
    <rect
       style="fill:#000000 icc-color(USWebCoatedSWOPv2, 0.60, 0.40, 0.40, 1.00);fill-opacity:1;fill-rule:evenodd;stroke-width:1.35528"
       id="rect240"
       width="864"
       height="576"
       x="0"
       y="0" />
    <path
       style="fill:#b80000 icc-color(USWebCoatedSWOPv2, 0.00, 1.00, 1.00, 0.28);fill-opacity:1;stroke:#000000;stroke-width:0.1;stroke-linecap:square;stroke-miterlimit:1;paint-order:fill markers stroke"
       d="m 84.701559,61.980198 41.158391,60.713392 6.85973,-44.367482 z"
       id="path219" />
    <path
       style="fill:#b80000 icc-color(USWebCoatedSWOPv2, 0.00, 1.00, 1.00, 0.28);fill-opacity:1;stroke:#000000;stroke-width:0.1;stroke-linecap:square;stroke-miterlimit:1;paint-order:fill markers stroke"
       d="m 126.25193,123.96729 34.49465,6.58082 -26.65496,-48.825452 z"
       id="path220" />
    <path
       style="fill:#b80000 icc-color(USWebCoatedSWOPv2, 0.00, 1.00, 1.00, 0.28);fill-opacity:1;stroke:#000000;stroke-width:0.1;stroke-linecap:square;stroke-miterlimit:1;paint-order:fill markers stroke"
       d="m 150.35898,105.92311 10.3876,18.89332 11.36755,-28.446132 z"
       id="path221" />
    <path
       style="fill:#b80000 icc-color(USWebCoatedSWOPv2, 0.00, 1.00, 1.00, 0.28);fill-opacity:1;stroke:#000000;stroke-width:0.1;stroke-linecap:square;stroke-miterlimit:1;paint-order:fill markers stroke"
       d="m 166.43036,112.07936 7.05571,-14.435362 12.15153,7.854532 z"
       id="path222" />
    <path
       style="fill:#b80000 icc-color(USWebCoatedSWOPv2, 0.00, 1.00, 1.00, 0.28);fill-opacity:1;stroke:#000000;stroke-width:0.1;stroke-linecap:square;stroke-miterlimit:1;paint-order:fill markers stroke"
       d="m 156.04276,131.60954 -32.14274,-5.09483 -4.70381,23.56358 z"
       id="path223" />
    <path
       style="fill:#b80000 icc-color(USWebCoatedSWOPv2, 0.00, 1.00, 1.00, 0.28);fill-opacity:1;stroke:#000000;stroke-width:0.1;stroke-linecap:square;stroke-miterlimit:1;paint-order:fill markers stroke"
       d="m 91.953279,156.44683 30.770791,-29.29527 -7.05572,25.89872 z"
       id="path224" />
    <path
       style="fill:#b80000 icc-color(USWebCoatedSWOPv2, 0.00, 1.00, 1.00, 0.28);fill-opacity:1;stroke:#000000;stroke-width:0.1;stroke-linecap:square;stroke-miterlimit:1;paint-order:fill markers stroke"
       d="M 249.1693,62.566778 287.79557,124.18901 225.86034,54.219948 Z"
       id="path225" />
    <path
       style="fill:#b80000 icc-color(USWebCoatedSWOPv2, 0.00, 1.00, 1.00, 0.28);fill-opacity:1;stroke:#000000;stroke-width:0.1;stroke-linecap:square;stroke-miterlimit:1;paint-order:fill markers stroke"
       d="m 293.0282,58.754028 -56.32206,-20.71248 56.51233,92.639442 z"
       id="path226" />
    <path
       style="fill:#b80000 icc-color(USWebCoatedSWOPv2, 0.00, 1.00, 1.00, 0.28);fill-opacity:1;stroke:#000000;stroke-width:0.1;stroke-linecap:square;stroke-miterlimit:1;paint-order:fill markers stroke"
       d="m 295.5018,61.021068 -0.0951,81.201212 68.78523,2.26704 z"
       id="path227" />
    <path
       style="fill:#b80000 icc-color(USWebCoatedSWOPv2, 0.00, 1.00, 1.00, 0.28);fill-opacity:1;stroke:#000000;stroke-width:0.1;stroke-linecap:square;stroke-miterlimit:1;paint-order:fill markers stroke"
       d="m 384.36127,92.450468 -41.95613,21.227732 24.54577,31.01721 z"
       id="path228" />
    <path
       style="fill:#b80000 icc-color(USWebCoatedSWOPv2, 0.00, 1.00, 1.00, 0.28);fill-opacity:1;stroke:#000000;stroke-width:0.1;stroke-linecap:square;stroke-miterlimit:1;paint-order:fill markers stroke"
       d="m 386.83487,92.965708 -8.27706,24.319142 36.53323,-11.54128 z"
       id="path229" />
    <path
       style="fill:#b80000 icc-color(USWebCoatedSWOPv2, 0.00, 1.00, 1.00, 0.28);fill-opacity:1;stroke:#000000;stroke-width:0.1;stroke-linecap:square;stroke-miterlimit:1;paint-order:fill markers stroke"
       d="m 364.85786,146.8594 -70.97342,-2.37008 -7.70623,45.95906 z"
       id="path230" />
    <path
       style="fill:#b80000 icc-color(USWebCoatedSWOPv2, 0.00, 1.00, 1.00, 0.28);fill-opacity:1;stroke:#000000;stroke-width:0.1;stroke-linecap:square;stroke-miterlimit:1;paint-order:fill markers stroke"
       d="m 283.41919,191.58189 8.65762,-48.94743 -61.17413,66.05327 z"
       id="path231" />
    <path
       style="fill:#b80000 icc-color(USWebCoatedSWOPv2, 0.00, 1.00, 1.00, 0.28);fill-opacity:1;stroke:#000000;stroke-width:0.1;stroke-linecap:square;stroke-miterlimit:1;paint-order:fill markers stroke"
       d="M 147.067,220.20187 62.795079,201.5647 151.52419,319.11357 Z"
       id="path232" />
    <path
       style="fill:#b80000 icc-color(USWebCoatedSWOPv2, 0.00, 1.00, 1.00, 0.28);fill-opacity:1;stroke:#000000;stroke-width:0.1;stroke-linecap:square;stroke-miterlimit:1;paint-order:fill markers stroke"
       d="m 149.34742,220.20187 93.3936,93.63491 -89.14372,8.30813 z"
       id="path233" />
    <path
       style="fill:#b80000 icc-color(USWebCoatedSWOPv2, 0.00, 1.00, 1.00, 0.28);fill-opacity:1;stroke:#000000;stroke-width:0.1;stroke-linecap:square;stroke-miterlimit:1;paint-order:fill markers stroke"
       d="M 133.7991,299.35369 80.934789,228.51 48.490619,220.65096 Z"
       id="path234" />
    <path
       style="fill:#b80000 icc-color(USWebCoatedSWOPv2, 0.00, 1.00, 1.00, 0.28);fill-opacity:1;stroke:#000000;stroke-width:0.1;stroke-linecap:square;stroke-miterlimit:1;paint-order:fill markers stroke"
       d="m 211.43706,277.5729 45.29745,-28.85392 7.67051,0.7859 -17.51778,65.11781 z"
       id="path235" />
    <path
       style="fill:#b80000 icc-color(USWebCoatedSWOPv2, 0.00, 1.00, 1.00, 0.28);fill-opacity:1;stroke:#000000;stroke-width:0.1;stroke-linecap:square;stroke-miterlimit:1;paint-order:fill markers stroke"
       d="m 267.10006,250.29078 -7.6705,27.84348 38.76715,-16.05491 z"
       id="path236" />
    <path
       style="fill:#b80000 icc-color(USWebCoatedSWOPv2, 0.00, 1.00, 1.00, 0.28);fill-opacity:1;stroke:#000000;stroke-width:0.1;stroke-linecap:square;stroke-miterlimit:1;paint-order:fill markers stroke"
       d="m 150.90425,323.76621 -11.45388,66.90381 -67.905121,35.44572 z"
       id="path237" />
    <path
       style="fill:#b80000 icc-color(USWebCoatedSWOPv2, 0.00, 1.00, 1.00, 0.28);fill-opacity:1;stroke:#000000;stroke-width:0.1;stroke-linecap:square;stroke-miterlimit:1;paint-order:fill markers stroke"
       d="M 153.08594,324.35697 141.63206,389.78388 247.71677,316.0863 Z"
       id="path238" />
    <path
       style="font-weight:bold;font-size:97.5893px;font-family:Sans;-inkscape-font-specification:'Sans Bold';fill:#b80000 icc-color(USWebCoatedSWOPv2, 0.00, 1.00, 1.00, 0.28);stroke:#000000;stroke-width:0.1;stroke-linecap:square;stroke-miterlimit:1;paint-order:fill markers stroke"
       d="m 541.28523,337.19861 h -18.91745 l -4.90806,-14.34296 h -26.30337 l -4.90805,14.34296 h -18.44095 l 26.20807,-70.95238 h 21.06175 z m -28.25705,-27.35169 -8.72014,-25.44565 -8.72014,25.44565 z m 94.92084,11.00739 h -9.67316 v 16.5349 h -17.48793 v -16.5349 h -34.35639 v -13.43759 l 33.21277,-41.17049 h 18.63155 v 41.647 h 9.67316 z m -27.16109,-12.96108 v -25.63626 l -20.63289,25.63626 z m 95.0638,-6.19464 q 0,8.9584 -1.62014,16.0584 -1.62013,7.05235 -5.05101,11.5792 -3.52617,4.62215 -9.05369,7.0047 -5.52752,2.3349 -13.6282,2.3349 -7.95772,0 -13.58054,-2.38255 -5.62282,-2.38255 -9.10135,-7.05235 -3.52617,-4.6698 -5.09865,-11.5792 -1.57249,-6.95705 -1.57249,-15.91545 0,-9.24429 1.62014,-16.05839 1.62013,-6.8141 5.14631,-11.53155 3.52617,-4.6698 9.14899,-7.0047 5.62283,-2.3349 13.43759,-2.3349 8.14833,0 13.67585,2.4302 5.52752,2.38255 9.05369,7.14766 3.47853,4.6698 5.05101,11.53154 1.57249,6.8141 1.57249,15.77249 z m -18.44095,0 q 0,-12.86577 -2.52551,-18.29799 -2.5255,-5.47987 -8.38658,-5.47987 -5.86107,0 -8.38658,5.47987 -2.5255,5.43222 -2.5255,18.3933 0,12.62752 2.57315,18.20269 2.57316,5.57517 8.33893,5.57517 5.76578,0 8.33893,-5.57517 2.57316,-5.57517 2.57316,-18.298 z m 86.77254,-3.95503 q 0,8.91074 -2.28725,16.58256 -2.28725,7.67181 -6.95705,12.91342 -5.05101,5.67048 -12.53222,8.52954 -7.48121,2.81141 -17.44028,2.81141 -3.52617,0 -7.62416,-0.42886 -4.09799,-0.42886 -5.38457,-0.76242 v -13.96175 h 1.90604 q 1.42953,0.66712 4.05034,1.42953 2.66846,0.76242 7.24296,0.76242 3.71678,0 7.2906,-0.90537 3.57383,-0.95302 6.14699,-2.95436 2.81141,-2.1443 4.62214,-5.33692 1.81074,-3.24027 2.43021,-7.76712 -4.14564,2.38255 -7.71947,3.66913 -3.52617,1.23893 -8.81544,1.23893 -4.00269,0 -7.67181,-0.95302 -3.62148,-1.00067 -6.6235,-3.04967 -3.95503,-2.81141 -6.33758,-7.38591 -2.3349,-4.62215 -2.3349,-11.62685 0,-11.38859 7.91007,-18.53625 7.95772,-7.1953 20.8235,-7.1953 6.62349,0 11.72215,1.76309 5.14631,1.71543 8.86309,5.28926 4.33624,4.09799 6.52819,10.43558 2.19195,6.33758 2.19195,15.43893 z m -18.25035,-2.66846 q 0,-5.81342 -1.14362,-9.5302 -1.09597,-3.76444 -3.04967,-5.81343 -1.38188,-1.52483 -3.19262,-2.19195 -1.81073,-0.66711 -3.81208,-0.66711 -1.85839,0 -3.57382,0.66711 -1.66779,0.61947 -3.24027,2.19195 -1.47719,1.52483 -2.43021,4.00269 -0.90537,2.47785 -0.90537,5.90872 0,3.33558 1.00068,5.62283 1.00067,2.23959 2.76375,3.57382 1.66779,1.28658 3.90739,1.81074 2.28725,0.52416 4.95571,0.52416 2.14429,0 4.6698,-0.52416 2.5255,-0.57181 3.90738,-1.14362 0,-0.52416 0.0476,-1.47719 0.0953,-1.00067 0.0953,-2.95436 z m 89.15506,42.12351 h -55.70405 v -11.72215 q 6.38524,-4.62215 12.77048,-9.81612 6.43289,-5.19396 10.29262,-8.95839 5.76577,-5.57517 8.19598,-9.72081 2.4302,-4.14564 2.4302,-8.19597 0,-4.86041 -3.14497,-7.48122 -3.09732,-2.66845 -8.95839,-2.66845 -4.3839,0 -9.2443,1.81074 -4.81276,1.81073 -8.95839,4.62215 h -1.52484 V 269.2959 q 3.38323,-1.47719 9.95907,-2.95437 6.62349,-1.47718 13.24698,-1.47718 13.34229,0 20.34699,5.62282 7.0047,5.57517 7.0047,15.82014 0,6.7188 -3.38322,12.77048 -3.33557,6.05168 -10.24497,12.48457 -4.33625,4.00268 -8.72014,7.38591 -4.38389,3.33557 -6.24228,4.6698 h 31.87853 z"
       id="text238"
       transform="scale(0.9608604,1.0407339)"
       aria-label="A4092" />
    <path
       style="font-weight:bold;font-size:40.6622px;font-family:Arial;-inkscape-font-specification:'Arial Bold';fill:#ffffff;stroke:#000000;stroke-width:0.1;stroke-linecap:square;stroke-miterlimit:1;paint-order:fill markers stroke"
       d="m 495.83414,399.52808 v -5.30118 l 15.28803,-18.88171 h -13.56068 v -4.92394 h 21.30397 v 4.56655 l -15.94323,19.63619 h 16.55873 v 4.90409 z m 26.02937,-10.84061 q 0,-2.77964 1.36996,-5.38059 1.36997,-2.60096 3.87165,-3.97092 2.52153,-1.36997 5.61885,-1.36997 4.78496,0 7.84256,3.11717 3.05761,3.09732 3.05761,7.84256 0,4.78496 -3.09732,7.94184 -3.07746,3.13703 -7.76314,3.13703 -2.89877,0 -5.53943,-1.31041 -2.62081,-1.3104 -3.99078,-3.83193 -1.36996,-2.54139 -1.36996,-6.17478 z m 5.71812,0.29782 q 0,3.13702 1.48909,4.80481 1.4891,1.66779 3.6731,1.66779 2.18401,0 3.65325,-1.66779 1.48909,-1.66779 1.48909,-4.84452 0,-3.09732 -1.48909,-4.7651 -1.46924,-1.66779 -3.65325,-1.66779 -2.184,0 -3.6731,1.66779 -1.48909,1.66778 -1.48909,4.80481 z m 25.7514,10.54279 h -5.57914 V 378.4425 h 5.18205 v 2.99804 q 1.33026,-2.12444 2.38255,-2.79949 1.07215,-0.67506 2.42226,-0.67506 1.90604,0 3.6731,1.05229 l -1.72735,4.86438 q -1.40967,-0.91331 -2.6208,-0.91331 -1.17142,0 -1.98546,0.6552 -0.81404,0.63535 -1.29055,2.32299 -0.45666,1.68764 -0.45666,7.06823 z m 15.82411,0 H 563.578 V 378.4425 h 5.18205 v 2.99804 q 1.33025,-2.12444 2.38255,-2.79949 1.07215,-0.67506 2.42226,-0.67506 1.90604,0 3.6731,1.05229 l -1.72735,4.86438 q -1.40968,-0.91331 -2.62081,-0.91331 -1.17142,0 -1.98546,0.6552 -0.81404,0.63535 -1.29055,2.32299 -0.45665,1.68764 -0.45665,7.06823 z m 9.19268,-10.84061 q 0,-2.77964 1.36996,-5.38059 1.36997,-2.60096 3.87165,-3.97092 2.52153,-1.36997 5.61885,-1.36997 4.78495,0 7.84256,3.11717 3.05761,3.09732 3.05761,7.84256 0,4.78496 -3.09732,7.94184 -3.07746,3.13703 -7.76314,3.13703 -2.89877,0 -5.53943,-1.31041 -2.62081,-1.3104 -3.99078,-3.83193 -1.36996,-2.54139 -1.36996,-6.17478 z m 5.71812,0.29782 q 0,3.13702 1.48909,4.80481 1.4891,1.66779 3.6731,1.66779 2.18401,0 3.65325,-1.66779 1.48909,-1.66779 1.48909,-4.84452 0,-3.09732 -1.48909,-4.7651 -1.46924,-1.66779 -3.65325,-1.66779 -2.184,0 -3.6731,1.66779 -1.48909,1.66778 -1.48909,4.80481 z m 31.5688,10.54279 v -29.10683 h 5.87696 v 29.10683 z m 11.29726,0 v -29.10683 h 5.87696 v 29.10683 z m 11.29726,0 v -29.10683 h 5.87696 v 29.10683 z m 21.28412,-9.47064 5.71812,-0.55593 q 0.51622,2.87891 2.08474,4.22903 1.58836,1.35011 4.26873,1.35011 2.83921,0 4.26874,-1.19128 1.44939,-1.21113 1.44939,-2.81935 0,-1.03244 -0.6155,-1.7472 -0.59563,-0.73462 -2.10458,-1.2707 -1.03244,-0.35738 -4.70554,-1.27069 -4.72539,-1.17142 -6.63143,-2.87892 -2.68037,-2.4024 -2.68037,-5.8571 0,-2.22371 1.25083,-4.14961 1.2707,-1.94575 3.63339,-2.95833 2.38256,-1.01259 5.73798,-1.01259 5.47987,0 8.23966,2.40241 2.77964,2.4024 2.91862,6.41303 l -5.87696,0.25811 q -0.37723,-2.24357 -1.62807,-3.21644 -1.23099,-0.99273 -3.71281,-0.99273 -2.56124,0 -4.01063,1.05229 -0.93317,0.67506 -0.93317,1.80677 0,1.03244 0.87361,1.76706 1.11185,0.93316 5.40045,1.94575 4.28859,1.01258 6.33361,2.10458 2.06488,1.07215 3.21644,2.95834 1.17142,1.86633 1.17142,4.62612 0,2.50167 -1.38982,4.68568 -1.38982,2.184 -3.93121,3.25615 -2.54138,1.0523 -6.33361,1.0523 -5.51958,0 -8.47791,-2.54139 -2.95833,-2.56124 -3.53412,-7.44547 z m 47.23407,-1.23099 5.69827,1.80677 q -1.3104,4.7651 -4.36801,7.08809 -3.03775,2.30313 -7.72344,2.30313 -5.79754,0 -9.5302,-3.95106 -3.73266,-3.97092 -3.73266,-10.84061 0,-7.26678 3.75251,-11.27741 3.75252,-4.03048 9.86774,-4.03048 5.34088,0 8.67645,3.15688 1.98546,1.86633 2.97819,5.36074 l -5.8174,1.38982 q -0.51621,-2.26342 -2.16415,-3.57382 -1.62807,-1.31041 -3.97091,-1.31041 -3.2363,0 -5.26147,2.32299 -2.00531,2.32299 -2.00531,7.52489 0,5.51958 1.98546,7.86242 1.98545,2.34284 5.16219,2.34284 2.34284,0 4.03048,-1.48909 1.68764,-1.4891 2.42226,-4.68569 z m 9.25225,1.23099 5.71812,-0.55593 q 0.51622,2.87891 2.08473,4.22903 1.58837,1.35011 4.26874,1.35011 2.8392,0 4.26873,-1.19128 1.44939,-1.21113 1.44939,-2.81935 0,-1.03244 -0.61549,-1.7472 -0.59564,-0.73462 -2.10459,-1.2707 -1.03244,-0.35738 -4.70554,-1.27069 -4.72539,-1.17142 -6.63143,-2.87892 -2.68037,-2.4024 -2.68037,-5.8571 0,-2.22371 1.25084,-4.14961 1.27069,-1.94575 3.63339,-2.95833 2.38255,-1.01259 5.73797,-1.01259 5.47987,0 8.23966,2.40241 2.77964,2.4024 2.91862,6.41303 l -5.87695,0.25811 q -0.37724,-2.24357 -1.62808,-3.21644 -1.23099,-0.99273 -3.71281,-0.99273 -2.56124,0 -4.01063,1.05229 -0.93316,0.67506 -0.93316,1.80677 0,1.03244 0.8736,1.76706 1.11186,0.93316 5.40045,1.94575 4.28859,1.01258 6.33361,2.10458 2.06488,1.07215 3.21645,2.95834 1.17142,1.86633 1.17142,4.62612 0,2.50167 -1.38982,4.68568 -1.38983,2.184 -3.93121,3.25615 -2.54139,1.0523 -6.33362,1.0523 -5.51957,0 -8.47791,-2.54139 -2.95833,-2.56124 -3.53411,-7.44547 z m 28.43177,9.47064 v -29.10683 h 5.87696 v 29.10683 z m 10.80089,-7.76315 v -5.57914 h 10.95973 v 5.57914 z m 31.82691,2.5811 v 5.18205 H 767.5045 q 0.31767,-2.93848 1.90604,-5.55929 1.58836,-2.64066 6.27405,-6.98881 3.77237,-3.51427 4.62612,-4.76511 1.15156,-1.72735 1.15156,-3.41499 0,-1.86633 -1.01258,-2.85906 -0.99273,-1.01258 -2.75979,-1.01258 -1.7472,0 -2.77964,1.05229 -1.03244,1.0523 -1.19128,3.49441 l -5.55928,-0.55593 q 0.49636,-4.60626 3.11717,-6.61158 2.62081,-2.00531 6.55201,-2.00531 4.30845,0 6.77042,2.32299 2.46197,2.32298 2.46197,5.77768 0,1.96561 -0.71477,3.75252 -0.69491,1.76706 -2.22371,3.71281 -1.01259,1.29055 -3.65325,3.71281 -2.64066,2.42226 -3.35542,3.21644 -0.69491,0.79418 -1.13171,1.54866 z"
       id="text239"
       transform="scale(0.9608604,1.0407339)"
       aria-label="Zorro III SCSI-2&#10;" />
    <path
       style="font-weight:bold;font-size:40.6622px;font-family:Arial;-inkscape-font-specification:'Arial Bold';fill:#ffffff;stroke:#000000;stroke-width:0.1;stroke-linecap:square;stroke-miterlimit:1;paint-order:fill markers stroke"
       d="m 515.788,448.08524 v -29.10683 h 5.87696 v 11.45609 h 11.51566 v -11.45609 h 5.87696 v 29.10683 h -5.87696 v -12.7268 h -11.51566 v 12.7268 z m 28.01483,-10.84061 q 0,-2.77964 1.36997,-5.38059 1.36996,-2.60096 3.87164,-3.97092 2.52153,-1.36997 5.61885,-1.36997 4.78496,0 7.84256,3.11717 3.05761,3.09732 3.05761,7.84256 0,4.78496 -3.09732,7.94184 -3.07746,3.13703 -7.76314,3.13703 -2.89877,0 -5.53943,-1.31041 -2.62081,-1.3104 -3.99077,-3.83193 -1.36997,-2.54139 -1.36997,-6.17478 z m 5.71812,0.29782 q 0,3.13702 1.4891,4.80481 1.48909,1.66778 3.6731,1.66778 2.184,0 3.65324,-1.66778 1.48909,-1.66779 1.48909,-4.84452 0,-3.09732 -1.48909,-4.7651 -1.46924,-1.66779 -3.65324,-1.66779 -2.18401,0 -3.6731,1.66779 -1.4891,1.66778 -1.4891,4.80481 z m 18.44492,4.52684 5.59899,-0.85374 q 0.35739,1.62807 1.44939,2.48182 1.092,0.83389 3.0576,0.83389 2.16416,0 3.25616,-0.79418 0.73462,-0.55593 0.73462,-1.48909 0,-0.63535 -0.39709,-1.0523 -0.41695,-0.39709 -1.86634,-0.73462 -6.75056,-1.48909 -8.55732,-2.72008 -2.50168,-1.70749 -2.50168,-4.74524 0,-2.73994 2.16415,-4.60627 2.16415,-1.86633 6.71085,-1.86633 4.3283,0 6.43289,1.40968 2.10458,1.40967 2.89877,4.16946 l -5.26147,0.97288 q -0.33753,-1.23099 -1.29055,-1.88619 -0.93316,-0.6552 -2.68037,-0.6552 -2.20386,0 -3.15688,0.61549 -0.63534,0.4368 -0.63534,1.13171 0,0.59564 0.55592,1.01259 0.75448,0.55592 5.20191,1.56851 4.46728,1.01258 6.23434,2.48182 1.7472,1.4891 1.7472,4.14961 0,2.89877 -2.42226,4.9835 -2.42226,2.08474 -7.16751,2.08474 -4.30844,0 -6.82997,-1.74721 -2.50168,-1.7472 -3.27601,-4.74525 z m 34.24917,-15.06963 v 4.44743 h -3.81208 v 8.49776 q 0,2.5811 0.0993,3.0179 0.11913,0.41695 0.49636,0.69491 0.3971,0.27797 0.95302,0.27797 0.77433,0 2.24357,-0.53608 l 0.47651,4.3283 q -1.94575,0.8339 -4.40772,0.8339 -1.50894,0 -2.72007,-0.49637 -1.21113,-0.51622 -1.78692,-1.3104 -0.55593,-0.81404 -0.77433,-2.18401 -0.17869,-0.97287 -0.17869,-3.93121 v -9.19267 h -2.56124 v -4.44743 h 2.56124 v -4.18932 l 5.599,-3.25615 v 7.44547 z m 39.94743,21.08558 h -6.39318 l -2.54139,-6.61158 h -11.63479 l -2.4024,6.61158 h -6.23434 l 11.33697,-29.10683 h 6.21449 z m -10.82075,-11.51567 -4.01063,-10.80089 -3.93121,10.80089 z m 33.23658,11.51567 h -5.18205 v -3.09732 q -1.29055,1.80677 -3.0576,2.70022 -1.74721,0.87361 -3.53412,0.87361 -3.63339,0 -6.23434,-2.91863 -2.5811,-2.93848 -2.5811,-8.18009 0,-5.36074 2.52153,-8.14038 2.52154,-2.7995 6.37333,-2.7995 3.53411,0 6.11521,2.93848 v -10.48322 h 5.57914 z m -14.89094,-10.99945 q 0,3.37528 0.93316,4.88423 1.35012,2.18401 3.77238,2.18401 1.92589,0 3.276,-1.62808 1.35011,-1.64793 1.35011,-4.90408 0,-3.63339 -1.3104,-5.22176 -1.3104,-1.60822 -3.35542,-1.60822 -1.98546,0 -3.33558,1.58836 -1.33025,1.56852 -1.33025,4.70554 z m 24.56012,-3.65324 -5.06292,-0.91331 q 0.85375,-3.05761 2.93848,-4.52685 2.08473,-1.46924 6.19463,-1.46924 3.73267,0 5.55929,0.89346 1.82662,0.8736 2.56124,2.24357 0.75447,1.35011 0.75447,4.9835 l -0.0596,6.5123 q 0,2.77965 0.25811,4.1099 0.27797,1.31041 1.01258,2.81936 h -5.51957 q -0.2184,-0.55593 -0.53608,-1.64794 -0.13898,-0.49636 -0.19854,-0.6552 -1.42953,1.38982 -3.05761,2.08474 -1.62807,0.69491 -3.47455,0.69491 -3.25615,0 -5.14234,-1.76706 -1.86633,-1.76706 -1.86633,-4.46729 0,-1.78691 0.85375,-3.17673 0.85374,-1.40968 2.38255,-2.1443 1.54865,-0.75447 4.44742,-1.3104 3.91136,-0.73462 5.42031,-1.36997 v -0.55592 q 0,-1.60823 -0.79419,-2.28328 -0.79418,-0.69491 -2.99804,-0.69491 -1.48909,0 -2.32299,0.59564 -0.83389,0.57578 -1.35011,2.04502 z m 7.46533,4.52684 q -1.07215,0.35739 -3.39514,0.85375 -2.32298,0.49637 -3.03775,0.97288 -1.092,0.77433 -1.092,1.9656 0,1.17142 0.8736,2.02517 0.8736,0.85375 2.22371,0.85375 1.50895,0 2.87892,-0.99273 1.01258,-0.75448 1.33026,-1.84648 0.2184,-0.71476 0.2184,-2.72008 z m 10.82075,-10.95973 h 5.2019 v 3.09732 q 1.01259,-1.58837 2.73994,-2.5811 1.72735,-0.99273 3.83193,-0.99273 3.6731,0 6.23434,2.87892 2.56125,2.87891 2.56125,8.02125 0,5.28132 -2.5811,8.2198 -2.5811,2.91863 -6.2542,2.91863 -1.7472,0 -3.17673,-0.69491 -1.40968,-0.69492 -2.97819,-2.38256 v 10.62221 h -5.57914 z m 5.51958,10.18541 q 0,3.55397 1.40967,5.26146 1.40968,1.68764 3.43485,1.68764 1.94575,0 3.2363,-1.54866 1.29054,-1.56851 1.29054,-5.12248 0,-3.31572 -1.33025,-4.92394 -1.33026,-1.60822 -3.29587,-1.60822 -2.04502,0 -3.39513,1.58837 -1.35011,1.56851 -1.35011,4.66583 z m 29.14655,-10.18541 v 4.44743 h -3.81208 v 8.49776 q 0,2.5811 0.0993,3.0179 0.11913,0.41695 0.49636,0.69491 0.3971,0.27797 0.95302,0.27797 0.77433,0 2.24357,-0.53608 l 0.47651,4.3283 q -1.94575,0.8339 -4.40772,0.8339 -1.50894,0 -2.72007,-0.49637 -1.21113,-0.51622 -1.78692,-1.3104 -0.55593,-0.81404 -0.77433,-2.18401 -0.17869,-0.97287 -0.17869,-3.93121 v -9.19267 h -2.56124 v -4.44743 h 2.56124 v -4.18932 l 5.599,-3.25615 v 7.44547 z m 16.0822,14.37472 5.55929,0.93317 q -1.07215,3.05761 -3.39514,4.66583 -2.30313,1.58837 -5.77768,1.58837 -5.49972,0 -8.14038,-3.59369 -2.08474,-2.87891 -2.08474,-7.26678 0,-5.24161 2.73994,-8.19994 2.73993,-2.97819 6.92925,-2.97819 4.70554,0 7.42562,3.11717 2.72007,3.09732 2.60095,9.51035 h -13.97763 q 0.0596,2.48182 1.35011,3.87165 1.29055,1.36996 3.21644,1.36996 1.3104,0 2.20386,-0.71476 0.89346,-0.71477 1.35011,-2.30314 z m 0.31768,-5.6387 q -0.0596,-2.42226 -1.25084,-3.6731 -1.19128,-1.27069 -2.89877,-1.27069 -1.82663,0 -3.0179,1.33025 -1.19128,1.33026 -1.17142,3.61354 z m 15.42701,12.34956 h -5.57914 v -21.08558 h 5.18205 v 2.99804 q 1.33026,-2.12444 2.38255,-2.79949 1.07215,-0.67506 2.42226,-0.67506 1.90604,0 3.6731,1.05229 l -1.72735,4.86438 q -1.40967,-0.91331 -2.6208,-0.91331 -1.17142,0 -1.98546,0.6552 -0.81404,0.63535 -1.29055,2.32299 -0.45666,1.68764 -0.45666,7.06823 z"
       id="text239-4"
       transform="scale(0.9608604,1.0407339)"
       aria-label="Host Adapter&#10;" />
  </g>
</svg>
