<?xml version="1.0" encoding="UTF-8" standalone="no"?>
<!-- Created with Inkscape (http://www.inkscape.org/) -->

<svg
   version="1.1"
   id="svg1"
   width="9in"
   height="2.5in"
   viewBox="0 0 864 240"
   sodipodi:docname="boxside_2_5.svg"
   inkscape:version="1.3.2 (091e20e, 2023-11-25)"
   xmlns:inkscape="http://www.inkscape.org/namespaces/inkscape"
   xmlns:sodipodi="http://sodipodi.sourceforge.net/DTD/sodipodi-0.dtd"
   xmlns="http://www.w3.org/2000/svg"
   xmlns:svg="http://www.w3.org/2000/svg">
  <defs
     id="defs1">
    <inkscape:perspective
       sodipodi:type="inkscape:persp3d"
       inkscape:vp_x="0 : -272 : 1"
       inkscape:vp_y="0 : 1000 : 0"
       inkscape:vp_z="1536 : -272 : 1"
       inkscape:persp3d-origin="768 : -442.66667 : 1"
       id="perspective200" />
  </defs>
  <sodipodi:namedview
     id="namedview1"
     pagecolor="#ffffff"
     bordercolor="#000000"
     borderopacity="0.25"
     inkscape:showpageshadow="2"
     inkscape:pageopacity="0.0"
     inkscape:pagecheckerboard="0"
     inkscape:deskcolor="#d1d1d1"
     inkscape:zoom="0.68884358"
     inkscape:cx="340.42562"
     inkscape:cy="113.23325"
     inkscape:window-width="1472"
     inkscape:window-height="895"
     inkscape:window-x="0"
     inkscape:window-y="33"
     inkscape:window-maximized="0"
     inkscape:current-layer="g1"
     inkscape:document-units="in" />
  <g
     inkscape:groupmode="layer"
     inkscape:label="Image"
     id="g1">
    <rect
       style="fill:#000000 icc-color(USWebCoatedSWOPv2, 0.60, 0.40, 0.40, 1.00);fill-opacity:1;fill-rule:evenodd;stroke-width:0.87483"
       id="rect240"
       width="864"
       height="240"
       x="0"
       y="0" />
    <path
       style="fill:#b80000 icc-color(USWebCoatedSWOPv2, 0.00, 1.00, 1.00, 0.28);fill-opacity:1;stroke:#000000;stroke-width:0.1;stroke-linecap:square;stroke-miterlimit:1;paint-order:fill markers stroke"
       d="M 41.055532,34.445432 60.887898,63.700467 64.193291,42.321785 Z"
       id="path219" />
    <path
       style="fill:#b80000 icc-color(USWebCoatedSWOPv2, 0.00, 1.00, 1.00, 0.28);fill-opacity:1;stroke:#000000;stroke-width:0.1;stroke-linecap:square;stroke-miterlimit:1;paint-order:fill markers stroke"
       d="m 61.076775,64.314204 16.62141,3.171 -12.843818,-23.526775 z"
       id="path220" />
    <path
       style="fill:#b80000 icc-color(USWebCoatedSWOPv2, 0.00, 1.00, 1.00, 0.28);fill-opacity:1;stroke:#000000;stroke-width:0.1;stroke-linecap:square;stroke-miterlimit:1;paint-order:fill markers stroke"
       d="m 72.692872,55.619532 5.005313,9.103835 5.477508,-13.706903 z"
       id="path221" />
    <path
       style="fill:#b80000 icc-color(USWebCoatedSWOPv2, 0.00, 1.00, 1.00, 0.28);fill-opacity:1;stroke:#000000;stroke-width:0.1;stroke-linecap:square;stroke-miterlimit:1;paint-order:fill markers stroke"
       d="m 80.436942,58.585949 3.399827,-6.955747 5.855269,3.784744 z"
       id="path222" />
    <path
       style="fill:#b80000 icc-color(USWebCoatedSWOPv2, 0.00, 1.00, 1.00, 0.28);fill-opacity:1;stroke:#000000;stroke-width:0.1;stroke-linecap:square;stroke-miterlimit:1;paint-order:fill markers stroke"
       d="M 75.431628,67.996659 59.943496,65.541692 57.676944,76.895914 Z"
       id="path223" />
    <path
       style="fill:#b80000 icc-color(USWebCoatedSWOPv2, 0.00, 1.00, 1.00, 0.28);fill-opacity:1;stroke:#000000;stroke-width:0.1;stroke-linecap:square;stroke-miterlimit:1;paint-order:fill markers stroke"
       d="M 44.549808,79.964624 59.376859,65.84856 55.977027,78.327982 Z"
       id="path224" />
    <path
       style="fill:#b80000 icc-color(USWebCoatedSWOPv2, 0.00, 1.00, 1.00, 0.28);fill-opacity:1;stroke:#000000;stroke-width:0.1;stroke-linecap:square;stroke-miterlimit:1;paint-order:fill markers stroke"
       d="M 120.30508,34.728078 138.91733,64.421042 109.07356,30.706119 Z"
       id="path225" />
    <path
       style="fill:#b80000 icc-color(USWebCoatedSWOPv2, 0.00, 1.00, 1.00, 0.28);fill-opacity:1;stroke:#000000;stroke-width:0.1;stroke-linecap:square;stroke-miterlimit:1;paint-order:fill markers stroke"
       d="m 141.4387,32.890886 -27.13904,-9.980407 27.23072,44.638754 z"
       id="path226" />
    <path
       style="fill:#b80000 icc-color(USWebCoatedSWOPv2, 0.00, 1.00, 1.00, 0.28);fill-opacity:1;stroke:#000000;stroke-width:0.1;stroke-linecap:square;stroke-miterlimit:1;paint-order:fill markers stroke"
       d="m 142.63062,33.98327 -0.0458,39.127188 33.14448,1.092384 z"
       id="path227" />
    <path
       style="fill:#b80000 icc-color(USWebCoatedSWOPv2, 0.00, 1.00, 1.00, 0.28);fill-opacity:1;stroke:#000000;stroke-width:0.1;stroke-linecap:square;stroke-miterlimit:1;paint-order:fill markers stroke"
       d="m 185.44798,49.127674 -20.21676,10.228684 11.82749,14.945789 z"
       id="path228" />
    <path
       style="fill:#b80000 icc-color(USWebCoatedSWOPv2, 0.00, 1.00, 1.00, 0.28);fill-opacity:1;stroke:#000000;stroke-width:0.1;stroke-linecap:square;stroke-miterlimit:1;paint-order:fill markers stroke"
       d="m 186.63989,49.375946 -3.98834,11.718293 17.60371,-5.56122 z"
       id="path229" />
    <path
       style="fill:#b80000 icc-color(USWebCoatedSWOPv2, 0.00, 1.00, 1.00, 0.28);fill-opacity:1;stroke:#000000;stroke-width:0.1;stroke-linecap:square;stroke-miterlimit:1;paint-order:fill markers stroke"
       d="M 176.05017,75.344876 141.85128,74.202842 138.138,96.348433 Z"
       id="path230" />
    <path
       style="fill:#b80000 icc-color(USWebCoatedSWOPv2, 0.00, 1.00, 1.00, 0.28);fill-opacity:1;stroke:#000000;stroke-width:0.1;stroke-linecap:square;stroke-miterlimit:1;paint-order:fill markers stroke"
       d="m 136.80856,96.89462 4.17172,-23.585551 -29.47705,31.828081 z"
       id="path231" />
    <path
       style="fill:#b80000 icc-color(USWebCoatedSWOPv2, 0.00, 1.00, 1.00, 0.28);fill-opacity:1;stroke:#000000;stroke-width:0.1;stroke-linecap:square;stroke-miterlimit:1;paint-order:fill markers stroke"
       d="m 71.106616,110.68529 -40.606824,-8.9804 42.754541,56.64148 z"
       id="path232" />
    <path
       style="fill:#b80000 icc-color(USWebCoatedSWOPv2, 0.00, 1.00, 1.00, 0.28);fill-opacity:1;stroke:#000000;stroke-width:0.1;stroke-linecap:square;stroke-miterlimit:1;paint-order:fill markers stroke"
       d="m 72.205446,110.68529 45.002144,45.11843 -42.954319,4.0033 z"
       id="path233" />
    <path
       style="fill:#b80000 icc-color(USWebCoatedSWOPv2, 0.00, 1.00, 1.00, 0.28);fill-opacity:1;stroke:#000000;stroke-width:0.1;stroke-linecap:square;stroke-miterlimit:1;paint-order:fill markers stroke"
       d="M 64.713414,148.82497 39.240496,114.68861 23.60712,110.90169 Z"
       id="path234" />
    <path
       style="fill:#b80000 icc-color(USWebCoatedSWOPv2, 0.00, 1.00, 1.00, 0.28);fill-opacity:1;stroke:#000000;stroke-width:0.1;stroke-linecap:square;stroke-miterlimit:1;paint-order:fill markers stroke"
       d="m 102.12363,138.3298 21.82678,-13.90341 3.69608,0.37869 -8.44103,31.37733 z"
       id="path235" />
    <path
       style="fill:#b80000 icc-color(USWebCoatedSWOPv2, 0.00, 1.00, 1.00, 0.28);fill-opacity:1;stroke:#000000;stroke-width:0.1;stroke-linecap:square;stroke-miterlimit:1;paint-order:fill markers stroke"
       d="m 128.94511,125.18377 -3.69607,13.41652 18.68014,-7.73614 z"
       id="path236" />
    <path
       style="fill:#b80000 icc-color(USWebCoatedSWOPv2, 0.00, 1.00, 1.00, 0.28);fill-opacity:1;stroke:#000000;stroke-width:0.1;stroke-linecap:square;stroke-miterlimit:1;paint-order:fill markers stroke"
       d="m 72.955612,160.58826 -5.519105,32.23791 -32.720405,17.0797 z"
       id="path237" />
    <path
       style="fill:#b80000 icc-color(USWebCoatedSWOPv2, 0.00, 1.00, 1.00, 0.28);fill-opacity:1;stroke:#000000;stroke-width:0.1;stroke-linecap:square;stroke-miterlimit:1;paint-order:fill markers stroke"
       d="m 74.00687,160.87292 -5.519107,31.52627 51.117417,-35.51153 z"
       id="path238" />
    <path
       style="font-weight:bold;font-size:97.5893px;font-family:Sans;-inkscape-font-specification:'Sans Bold';fill:#b80000 icc-color(USWebCoatedSWOPv2, 0.00, 1.00, 1.00, 0.28);stroke:#000000;stroke-width:0.1;stroke-linecap:square;stroke-miterlimit:1;paint-order:fill markers stroke"
       d="m 604.74065,147.49368 h -18.91746 l -4.90806,-14.34296 h -26.30336 l -4.90806,14.34296 h -18.44094 l 26.20806,-70.952375 h 21.06175 z m -28.25706,-27.35169 -8.72014,-25.445644 -8.72014,25.445644 z m 94.92084,11.00739 h -9.67316 v 16.53491 h -17.48792 v -16.53491 h -34.35639 v -13.43759 l 33.21276,-41.170485 h 18.63155 V 118.1883 h 9.67316 z M 644.24335,118.1883 V 92.552049 l -20.6329,25.636251 z m 95.06379,-6.19463 q 0,8.95839 -1.62014,16.05839 -1.62013,7.05236 -5.051,11.5792 -3.52618,4.62215 -9.0537,7.0047 -5.52752,2.3349 -13.62819,2.3349 -7.95772,0 -13.58055,-2.38255 -5.62282,-2.38255 -9.10134,-7.05235 -3.52618,-4.6698 -5.09866,-11.5792 -1.57248,-6.95705 -1.57248,-15.91544 0,-9.2443 1.62013,-16.058397 1.62013,-6.814096 5.14631,-11.531548 3.52618,-4.669801 9.149,-7.004701 5.62282,-2.3349 13.43759,-2.3349 8.14832,0 13.67584,2.430202 5.52752,2.382551 9.0537,7.147654 3.47852,4.669801 5.05101,11.531548 1.57248,6.814102 1.57248,15.772492 z m -18.44095,0 q 0,-12.865779 -2.5255,-18.297996 -2.52551,-5.479868 -8.38658,-5.479868 -5.86108,0 -8.38658,5.479868 -2.52551,5.432217 -2.52551,18.393296 0,12.62752 2.57316,18.20269 2.57315,5.57517 8.33893,5.57517 5.76577,0 8.33893,-5.57517 2.57315,-5.57517 2.57315,-18.29799 z m 86.77254,-3.95504 q 0,8.91074 -2.28725,16.58256 -2.28725,7.67182 -6.95705,12.91343 -5.05101,5.67047 -12.53222,8.52953 -7.48121,2.81141 -17.44027,2.81141 -3.52618,0 -7.62417,-0.42886 -4.09799,-0.42886 -5.38456,-0.76241 v -13.96175 h 1.90604 q 1.42953,0.66711 4.05033,1.42953 2.66846,0.76241 7.24296,0.76241 3.71678,0 7.29061,-0.90537 3.57382,-0.95302 6.14698,-2.95436 2.81141,-2.1443 4.62215,-5.33691 1.81074,-3.24027 2.4302,-7.76712 -4.14564,2.38255 -7.71947,3.66913 -3.52617,1.23892 -8.81544,1.23892 -4.00268,0 -7.67181,-0.95302 -3.62148,-1.00067 -6.62349,-3.04966 -3.95504,-2.81141 -6.33759,-7.38591 -2.3349,-4.62215 -2.3349,-11.62685 0,-11.388597 7.91007,-18.536251 7.95772,-7.195305 20.8235,-7.195305 6.62349,0 11.72215,1.763088 5.14631,1.715437 8.86309,5.289264 4.33625,4.097988 6.52819,10.435574 2.19195,6.337587 2.19195,15.43893 z m -18.25034,-2.66845 q 0,-5.81343 -1.14363,-9.53021 -1.09597,-3.764431 -3.04966,-5.813425 -1.38188,-1.524833 -3.19262,-2.191947 -1.81074,-0.667115 -3.81208,-0.667115 -1.85839,0 -3.57383,0.667115 -1.66779,0.619463 -3.24027,2.191947 -1.47718,1.524833 -2.4302,4.002686 -0.90537,2.477854 -0.90537,5.908728 0,3.335571 1.00067,5.622821 1.00067,2.2396 2.76376,3.57383 1.66778,1.28657 3.90738,1.81074 2.28725,0.52416 4.95571,0.52416 2.1443,0 4.6698,-0.52416 2.5255,-0.57182 3.90738,-1.14363 0,-0.52416 0.0477,-1.47718 0.0953,-1.00067 0.0953,-2.95436 z m 89.15506,42.1235 H 822.8394 v -11.72215 q 6.38523,-4.62215 12.77047,-9.81611 6.43289,-5.19396 10.29262,-8.95839 5.76578,-5.57517 8.19598,-9.72081 2.4302,-4.14564 2.4302,-8.19598 0,-4.860405 -3.14497,-7.481211 -3.09731,-2.668458 -8.95839,-2.668458 -4.38389,0 -9.2443,1.810739 -4.81275,1.810739 -8.95839,4.62215 h -1.52483 V 79.59097 q 3.38322,-1.477182 9.95906,-2.954363 6.62349,-1.477182 13.24699,-1.477182 13.34228,0 20.34698,5.622821 7.00471,5.57517 7.00471,15.820141 0,6.718793 -3.38323,12.770473 -3.33557,6.05168 -10.24497,12.48457 -4.33624,4.00269 -8.72014,7.38591 -4.38389,3.33557 -6.24228,4.6698 h 31.87854 z"
       id="text238"
       transform="scale(0.9608604,1.0407339)"
       aria-label="A4092" />
  </g>
</svg>
