<?xml version="1.0" encoding="UTF-8" standalone="no"?>
<!-- Created with Inkscape (http://www.inkscape.org/) -->

<svg
   version="1.1"
   id="svg1"
   width="9in"
   height="2in"
   viewBox="0 0 864 192"
   sodipodi:docname="boxside_2_0.svg"
   inkscape:version="1.3.2 (091e20e, 2023-11-25)"
   xmlns:inkscape="http://www.inkscape.org/namespaces/inkscape"
   xmlns:sodipodi="http://sodipodi.sourceforge.net/DTD/sodipodi-0.dtd"
   xmlns="http://www.w3.org/2000/svg"
   xmlns:svg="http://www.w3.org/2000/svg">
  <defs
     id="defs1">
    <inkscape:perspective
       sodipodi:type="inkscape:persp3d"
       inkscape:vp_x="0 : -272 : 1"
       inkscape:vp_y="0 : 1000 : 0"
       inkscape:vp_z="1536 : -272 : 1"
       inkscape:persp3d-origin="768 : -442.66667 : 1"
       id="perspective200" />
  </defs>
  <sodipodi:namedview
     id="namedview1"
     pagecolor="#ffffff"
     bordercolor="#000000"
     borderopacity="0.25"
     inkscape:showpageshadow="2"
     inkscape:pageopacity="0.0"
     inkscape:pagecheckerboard="0"
     inkscape:deskcolor="#d1d1d1"
     inkscape:zoom="0.66351685"
     inkscape:cx="344.37709"
     inkscape:cy="239.6322"
     inkscape:window-width="1472"
     inkscape:window-height="895"
     inkscape:window-x="0"
     inkscape:window-y="33"
     inkscape:window-maximized="0"
     inkscape:current-layer="g1"
     inkscape:document-units="in" />
  <g
     inkscape:groupmode="layer"
     inkscape:label="Image"
     id="g1"
     transform="scale(0.8, 0.8)">
    <rect
       style="fill:#000000 icc-color(USWebCoatedSWOPv2, 0.6, 0.4, 0.4, 1);fill-opacity:1;fill-rule:evenodd;stroke-width:0.97809"
       id="rect240"
       width="1080"
       height="240"
       x="0"
       y="0" />
    <path
       style="fill:#b80000 icc-color(USWebCoatedSWOPv2, 0.00, 1.00, 1.00, 0.28);fill-opacity:1;stroke:#000000;stroke-width:0.1;stroke-linecap:square;stroke-miterlimit:1;paint-order:fill markers stroke"
       d="M 41.055532,34.445432 60.887898,63.700467 64.193291,42.321785 Z"
       id="path219" />
    <path
       style="fill:#b80000 icc-color(USWebCoatedSWOPv2, 0.00, 1.00, 1.00, 0.28);fill-opacity:1;stroke:#000000;stroke-width:0.1;stroke-linecap:square;stroke-miterlimit:1;paint-order:fill markers stroke"
       d="m 61.076775,64.314204 16.62141,3.171 -12.843818,-23.526775 z"
       id="path220" />
    <path
       style="fill:#b80000 icc-color(USWebCoatedSWOPv2, 0.00, 1.00, 1.00, 0.28);fill-opacity:1;stroke:#000000;stroke-width:0.1;stroke-linecap:square;stroke-miterlimit:1;paint-order:fill markers stroke"
       d="m 72.692872,55.619532 5.005313,9.103835 5.477508,-13.706903 z"
       id="path221" />
    <path
       style="fill:#b80000 icc-color(USWebCoatedSWOPv2, 0.00, 1.00, 1.00, 0.28);fill-opacity:1;stroke:#000000;stroke-width:0.1;stroke-linecap:square;stroke-miterlimit:1;paint-order:fill markers stroke"
       d="m 80.436942,58.585949 3.399827,-6.955747 5.855269,3.784744 z"
       id="path222" />
    <path
       style="fill:#b80000 icc-color(USWebCoatedSWOPv2, 0.00, 1.00, 1.00, 0.28);fill-opacity:1;stroke:#000000;stroke-width:0.1;stroke-linecap:square;stroke-miterlimit:1;paint-order:fill markers stroke"
       d="M 75.431628,67.996659 59.943496,65.541692 57.676944,76.895914 Z"
       id="path223" />
    <path
       style="fill:#b80000 icc-color(USWebCoatedSWOPv2, 0.00, 1.00, 1.00, 0.28);fill-opacity:1;stroke:#000000;stroke-width:0.1;stroke-linecap:square;stroke-miterlimit:1;paint-order:fill markers stroke"
       d="M 44.549808,79.964624 59.376859,65.84856 55.977027,78.327982 Z"
       id="path224" />
    <path
       style="fill:#b80000 icc-color(USWebCoatedSWOPv2, 0.00, 1.00, 1.00, 0.28);fill-opacity:1;stroke:#000000;stroke-width:0.1;stroke-linecap:square;stroke-miterlimit:1;paint-order:fill markers stroke"
       d="M 120.30508,34.728078 138.91733,64.421042 109.07356,30.706119 Z"
       id="path225" />
    <path
       style="fill:#b80000 icc-color(USWebCoatedSWOPv2, 0.00, 1.00, 1.00, 0.28);fill-opacity:1;stroke:#000000;stroke-width:0.1;stroke-linecap:square;stroke-miterlimit:1;paint-order:fill markers stroke"
       d="m 141.4387,32.890886 -27.13904,-9.980407 27.23072,44.638754 z"
       id="path226" />
    <path
       style="fill:#b80000 icc-color(USWebCoatedSWOPv2, 0.00, 1.00, 1.00, 0.28);fill-opacity:1;stroke:#000000;stroke-width:0.1;stroke-linecap:square;stroke-miterlimit:1;paint-order:fill markers stroke"
       d="m 142.63062,33.98327 -0.0458,39.127188 33.14448,1.092384 z"
       id="path227" />
    <path
       style="fill:#b80000 icc-color(USWebCoatedSWOPv2, 0.00, 1.00, 1.00, 0.28);fill-opacity:1;stroke:#000000;stroke-width:0.1;stroke-linecap:square;stroke-miterlimit:1;paint-order:fill markers stroke"
       d="m 185.44798,49.127674 -20.21676,10.228684 11.82749,14.945789 z"
       id="path228" />
    <path
       style="fill:#b80000 icc-color(USWebCoatedSWOPv2, 0.00, 1.00, 1.00, 0.28);fill-opacity:1;stroke:#000000;stroke-width:0.1;stroke-linecap:square;stroke-miterlimit:1;paint-order:fill markers stroke"
       d="m 186.63989,49.375946 -3.98834,11.718293 17.60371,-5.56122 z"
       id="path229" />
    <path
       style="fill:#b80000 icc-color(USWebCoatedSWOPv2, 0.00, 1.00, 1.00, 0.28);fill-opacity:1;stroke:#000000;stroke-width:0.1;stroke-linecap:square;stroke-miterlimit:1;paint-order:fill markers stroke"
       d="M 176.05017,75.344876 141.85128,74.202842 138.138,96.348433 Z"
       id="path230" />
    <path
       style="fill:#b80000 icc-color(USWebCoatedSWOPv2, 0.00, 1.00, 1.00, 0.28);fill-opacity:1;stroke:#000000;stroke-width:0.1;stroke-linecap:square;stroke-miterlimit:1;paint-order:fill markers stroke"
       d="m 136.80856,96.89462 4.17172,-23.585551 -29.47705,31.828081 z"
       id="path231" />
    <path
       style="fill:#b80000 icc-color(USWebCoatedSWOPv2, 0.00, 1.00, 1.00, 0.28);fill-opacity:1;stroke:#000000;stroke-width:0.1;stroke-linecap:square;stroke-miterlimit:1;paint-order:fill markers stroke"
       d="m 71.106616,110.68529 -40.606824,-8.9804 42.754541,56.64148 z"
       id="path232" />
    <path
       style="fill:#b80000 icc-color(USWebCoatedSWOPv2, 0.00, 1.00, 1.00, 0.28);fill-opacity:1;stroke:#000000;stroke-width:0.1;stroke-linecap:square;stroke-miterlimit:1;paint-order:fill markers stroke"
       d="m 72.205446,110.68529 45.002144,45.11843 -42.954319,4.0033 z"
       id="path233" />
    <path
       style="fill:#b80000 icc-color(USWebCoatedSWOPv2, 0.00, 1.00, 1.00, 0.28);fill-opacity:1;stroke:#000000;stroke-width:0.1;stroke-linecap:square;stroke-miterlimit:1;paint-order:fill markers stroke"
       d="M 64.713414,148.82497 39.240496,114.68861 23.60712,110.90169 Z"
       id="path234" />
    <path
       style="fill:#b80000 icc-color(USWebCoatedSWOPv2, 0.00, 1.00, 1.00, 0.28);fill-opacity:1;stroke:#000000;stroke-width:0.1;stroke-linecap:square;stroke-miterlimit:1;paint-order:fill markers stroke"
       d="m 102.12363,138.3298 21.82678,-13.90341 3.69608,0.37869 -8.44103,31.37733 z"
       id="path235" />
    <path
       style="fill:#b80000 icc-color(USWebCoatedSWOPv2, 0.00, 1.00, 1.00, 0.28);fill-opacity:1;stroke:#000000;stroke-width:0.1;stroke-linecap:square;stroke-miterlimit:1;paint-order:fill markers stroke"
       d="m 128.94511,125.18377 -3.69607,13.41652 18.68014,-7.73614 z"
       id="path236" />
    <path
       style="fill:#b80000 icc-color(USWebCoatedSWOPv2, 0.00, 1.00, 1.00, 0.28);fill-opacity:1;stroke:#000000;stroke-width:0.1;stroke-linecap:square;stroke-miterlimit:1;paint-order:fill markers stroke"
       d="m 72.955612,160.58826 -5.519105,32.23791 -32.720405,17.0797 z"
       id="path237" />
    <path
       style="fill:#b80000 icc-color(USWebCoatedSWOPv2, 0.00, 1.00, 1.00, 0.28);fill-opacity:1;stroke:#000000;stroke-width:0.1;stroke-linecap:square;stroke-miterlimit:1;paint-order:fill markers stroke"
       d="m 74.00687,160.87292 -5.519107,31.52627 51.117417,-35.51153 z"
       id="path238" />
    <path
       style="font-weight:bold;font-size:97.5893px;font-family:Sans;-inkscape-font-specification:'Sans Bold';fill:#b80000 icc-color(USWebCoatedSWOPv2, 0, 1, 1, 0.28);stroke:#000000;stroke-width:0.1;stroke-linecap:square;stroke-miterlimit:1;paint-order:fill markers stroke"
       d="m 766.6493,153.50167 h -18.17704 l -4.71596,-14.9272 h -25.27385 l -4.71596,14.9272 H 696.04732 L 721.2296,79.659131 h 20.23741 z m -27.15109,-28.46583 -8.37884,-26.482143 -8.37883,26.482143 z m 91.20568,11.45577 h -9.29456 v 17.20844 h -16.80345 v -17.20844 h -33.01169 v -13.98496 l 31.91282,-42.847519 h 17.90232 v 43.343439 h 9.29456 z M 804.60588,123.00257 V 96.322055 l -19.82533,26.680515 z m 91.34303,-6.44696 q 0,9.3233 -1.55672,16.71251 -1.55672,7.33963 -4.85331,12.05087 -3.38817,4.81042 -8.69934,7.29002 -5.31118,2.43001 -13.09479,2.43001 -7.64626,0 -13.04901,-2.4796 -5.40275,-2.4796 -8.74512,-7.33962 -3.38817,-4.86002 -4.8991,-12.05086 -1.51093,-7.24044 -1.51093,-16.56374 0,-9.62086 1.55671,-16.712518 1.55672,-7.091661 4.94489,-12.001273 3.38817,-4.86002 8.79091,-7.29003 5.40275,-2.43001 12.91165,-2.43001 7.8294,0 13.14057,2.529194 5.31118,2.479602 8.69934,7.438806 3.34238,4.86002 4.85332,12.001271 1.51093,7.09167 1.51093,16.41497 z m -17.71918,0 q 0,-13.38985 -2.42665,-19.043346 -2.42666,-5.703084 -8.05833,-5.703084 -5.63168,0 -8.05833,5.703084 -2.42667,5.653496 -2.42667,19.142526 0,13.14189 2.47245,18.94416 2.47244,5.80227 8.01255,5.80227 5.5401,0 8.01255,-5.80227 2.47243,-5.80227 2.47243,-19.04334 z m 83.3763,-4.11615 q 0,9.27371 -2.19773,17.25804 -2.19772,7.98432 -6.68475,13.43944 -4.85331,5.90145 -12.04171,8.87697 -7.1884,2.92593 -16.75767,2.92593 -3.38816,0 -7.32576,-0.44633 -3.9376,-0.44633 -5.17381,-0.79346 v -14.53047 h 1.83144 q 1.37358,0.69428 3.8918,1.48776 2.56402,0.79347 6.95947,0.79347 3.57131,0 7.00526,-0.94225 3.43394,-0.99184 5.90639,-3.07471 2.70137,-2.23164 4.44124,-5.5543 1.73987,-3.37226 2.33508,-8.0835 -3.98338,2.4796 -7.41733,3.81858 -3.38816,1.28939 -8.47041,1.28939 -3.84601,0 -7.37153,-0.99184 -3.47974,-1.04143 -6.36425,-3.17388 -3.80025,-2.92593 -6.08954,-7.68677 -2.24352,-4.81043 -2.24352,-12.10046 0,-11.852497 7.60048,-19.291303 7.64625,-7.488398 20.00847,-7.488398 6.36425,0 11.26335,1.834906 4.94489,1.785313 8.5162,5.504716 4.16653,4.264915 6.27267,10.860656 2.10616,6.595743 2.10616,16.067813 z M 944.07,109.66232 q 0,-6.05024 -1.09887,-9.918414 -1.05307,-3.917771 -2.93029,-6.050229 -1.3278,-1.586945 -3.06767,-2.281233 -1.73986,-0.694289 -3.66287,-0.694289 -1.78566,0 -3.43395,0.694289 -1.60252,0.644696 -3.11345,2.281233 -1.41936,1.586946 -2.33508,4.165731 -0.86994,2.578782 -0.86994,6.149412 0,3.47144 0.96151,5.85186 0.9615,2.33083 2.65558,3.71941 1.60251,1.33898 3.75445,1.8845 2.19773,0.54551 4.76175,0.54551 2.06037,0 4.48702,-0.54551 2.42665,-0.59512 3.75445,-1.19022 0,-0.54551 0.0458,-1.53735 0.0916,-1.04143 0.0916,-3.0747 z m 85.6656,43.83935 h -53.5238 v -12.19964 q 6.1353,-4.81042 12.2706,-10.21595 6.1812,-5.40553 9.8898,-9.3233 5.5401,-5.80227 7.8752,-10.11678 2.3351,-4.31451 2.3351,-8.52984 0,-5.058384 -3.0219,-7.785945 -2.9761,-2.777155 -8.6077,-2.777155 -4.2124,0 -8.8825,1.884497 -4.6244,1.884498 -8.6078,4.810429 h -1.4651 V 82.833021 q 3.2508,-1.537354 9.5692,-3.074706 6.3643,-1.537353 12.7285,-1.537353 12.8201,0 19.5506,5.85186 6.7306,5.802268 6.7306,16.464558 0,6.99247 -3.2508,13.29066 -3.205,6.29819 -9.844,12.99312 -4.1665,4.16573 -8.3788,7.68677 -4.2124,3.47144 -5.998,4.86001 h 30.6308 z"
       id="text238"
       aria-label="A4092" />
  </g>
</svg>
