<?xml version="1.0" encoding="UTF-8"?>
<svg xmlns="http://www.w3.org/2000/svg" viewBox="0 0 100 50" width="100" height="50">
  <!-- DIP Switch - Switch 7 ON (External termination) -->
  <rect fill="none" stroke="#000" stroke-width="1" x="5" y="10" width="85" height="35"/>
  <text font-family="Helvetica, Arial, sans-serif" font-size="7px" x="7" y="8">ON</text>
  <polygon points="6,12 10,12 8,16" fill="#000"/>
  <!-- Switches 1-6 OFF -->
  <rect fill="#fff" stroke="#000" stroke-width="0.5" x="10" y="15" width="7" height="8"/><rect fill="#000" stroke="#000" stroke-width="0.5" x="10" y="27" width="7" height="8"/>
  <rect fill="#fff" stroke="#000" stroke-width="0.5" x="20" y="15" width="7" height="8"/><rect fill="#000" stroke="#000" stroke-width="0.5" x="20" y="27" width="7" height="8"/>
  <rect fill="#fff" stroke="#000" stroke-width="0.5" x="30" y="15" width="7" height="8"/><rect fill="#000" stroke="#000" stroke-width="0.5" x="30" y="27" width="7" height="8"/>
  <rect fill="#fff" stroke="#000" stroke-width="0.5" x="40" y="15" width="7" height="8"/><rect fill="#000" stroke="#000" stroke-width="0.5" x="40" y="27" width="7" height="8"/>
  <rect fill="#fff" stroke="#000" stroke-width="0.5" x="50" y="15" width="7" height="8"/><rect fill="#000" stroke="#000" stroke-width="0.5" x="50" y="27" width="7" height="8"/>
  <rect fill="#fff" stroke="#000" stroke-width="0.5" x="60" y="15" width="7" height="8"/><rect fill="#000" stroke="#000" stroke-width="0.5" x="60" y="27" width="7" height="8"/>
  <!-- Switch 7 - ON -->
  <rect fill="#000" stroke="#000" stroke-width="0.5" x="70" y="15" width="7" height="8"/>
  <rect fill="#fff" stroke="#000" stroke-width="0.5" x="70" y="27" width="7" height="8"/>
  <!-- Switch 8 OFF -->
  <rect fill="#fff" stroke="#000" stroke-width="0.5" x="80" y="15" width="7" height="8"/><rect fill="#000" stroke="#000" stroke-width="0.5" x="80" y="27" width="7" height="8"/>
  <text font-family="Helvetica, Arial, sans-serif" font-size="7px" x="12" y="42">1</text><text font-family="Helvetica, Arial, sans-serif" font-size="7px" x="22" y="42">2</text><text font-family="Helvetica, Arial, sans-serif" font-size="7px" x="32" y="42">3</text><text font-family="Helvetica, Arial, sans-serif" font-size="7px" x="42" y="42">4</text><text font-family="Helvetica, Arial, sans-serif" font-size="7px" x="52" y="42">5</text><text font-family="Helvetica, Arial, sans-serif" font-size="7px" x="62" y="42">6</text><text font-family="Helvetica, Arial, sans-serif" font-size="7px" x="72" y="42">7</text><text font-family="Helvetica, Arial, sans-serif" font-size="7px" x="82" y="42">8</text>
</svg>
