<?xml version="1.0" encoding="UTF-8" standalone="no"?>
<!-- Created with Inkscape (http://www.inkscape.org/) -->

<svg
   version="1.1"
   id="svg1"
   width="972"
   height="202.66667"
   viewBox="0 0 972 202.66667"
   sodipodi:docname="HD50.svg"
   inkscape:version="1.3.2 (091e20e, 2023-11-25)"
   xmlns:inkscape="http://www.inkscape.org/namespaces/inkscape"
   xmlns:sodipodi="http://sodipodi.sourceforge.net/DTD/sodipodi-0.dtd"
   xmlns="http://www.w3.org/2000/svg"
   xmlns:svg="http://www.w3.org/2000/svg">
  <defs
     id="defs1" />
  <sodipodi:namedview
     id="namedview1"
     pagecolor="#ffffff"
     bordercolor="#000000"
     borderopacity="0.25"
     inkscape:showpageshadow="2"
     inkscape:pageopacity="0.0"
     inkscape:pagecheckerboard="0"
     inkscape:deskcolor="#d1d1d1"
     showgrid="false"
     inkscape:zoom="0.54103591"
     inkscape:cx="463.00069"
     inkscape:cy="197.76876"
     inkscape:window-width="1472"
     inkscape:window-height="699"
     inkscape:window-x="0"
     inkscape:window-y="33"
     inkscape:window-maximized="0"
     inkscape:current-layer="g1" />
  <g
     inkscape:groupmode="layer"
     inkscape:label="Image"
     id="g1">
    <path
       style="fill:#000000"
       d="m 49.804235,191.85684 c -4.394428,-1.27576 -8.440074,-4.73225 -10.728984,-9.16656 l -2.180823,-4.22492 0.0065,-76.10842 0.0065,-76.108417 1.564036,-3.35874 c 1.928061,-4.14047 6.803982,-8.55114 10.990284,-9.94161 2.822063,-0.93733 46.296675,-1.02237 444.447022,-0.86931 439.59528,0.169 441.33166,0.17487 444.56871,1.50299 3.95852,1.62414 7.80973,5.34334 9.87525,9.53675 l 1.54168,3.12992 v 76.333327 76.33334 l -1.46814,2.74431 c -2.1778,4.07088 -4.63566,6.73096 -8.10213,8.76877 l -3.0964,1.82025 -442.66667,0.10757 c -264.37773,0.0642 -443.508515,-0.13683 -444.75686,-0.49925 z m 889.486645,-2.40237 c 3.18119,-1.70227 6.64666,-5.43746 8.18695,-8.82413 0.97956,-2.15379 1.08326,-9.62582 1.08326,-78.04849 0,-75.622627 -8.2e-4,-75.668437 -1.40939,-78.713237 -1.83478,-3.96611 -5.59322,-7.56408 -9.48208,-9.07723 -2.98968,-1.16328 -19.9617,-1.21607 -443.90467,-1.38075 l -440.796151,-0.17122 -3.632434,1.35906 c -4.482675,1.67719 -9.350568,6.59702 -10.40616,10.51718 -0.506796,1.8821 -0.67121,25.50591 -0.546883,78.578687 0.167888,71.66804 0.244595,76.00992 1.379576,78.08902 1.817662,3.32966 6.198351,7.25805 9.333446,8.36977 2.467948,0.87515 54.987466,0.97864 445.131416,0.87714 l 442.33333,-0.11508 z M 117.56109,144.24852 v -18.33333 h 12.34778 12.34778 l -0.0458,-23.66667 -0.0457,-23.666667 h -12.31274 -12.31273 l 0.17738,-18.16666 0.17738,-18.16667 22.33333,-0.17708 c 15.23092,-0.12077 22.90261,0.0583 24.1234,0.56296 1.04131,0.43049 2.08702,1.59188 2.5,2.77656 1.01184,2.90258 0.98636,110.845637 -0.0268,113.752147 -0.40524,1.16246 -1.28552,2.40723 -1.95618,2.76615 -0.72793,0.38958 -10.50683,0.6526 -24.26321,0.6526 h -23.04383 z m 24.66667,14.01992 v -2.98008 l -8.5,-0.18659 -8.5,-0.18658 -0.1813,-12.47997 -0.1813,-12.47998 8.50646,-0.18669 c 7.48436,-0.16426 8.53334,-0.32688 8.73018,-1.35336 0.20621,-1.07534 -0.69337,-1.16667 -11.49182,-1.16667 h -11.71555 v 17 17 h 11.66666 11.66667 z m 21.73353,2.46987 c 1.18497,-0.79122 2.26647,-3.26487 2.26647,-5.18395 0,-1.46209 -0.20935,-1.68311 -1.16667,-1.23173 -0.64166,0.30255 -5.89166,0.65529 -11.66666,0.78387 l -10.5,0.23377 v 2.95413 2.95412 l 10.16666,-0.0102 c 5.59167,-0.006 10.49676,-0.23061 10.9002,-0.5 z m -21.7692,-17.15645 0.0779,-10.33334 h -8.02109 -8.0211 v 10.33334 10.33333 h 7.94324 7.94323 z m 20.90135,9.71773 c 0.89053,-0.33858 1.81927,-1.13712 2.06387,-1.77454 0.56541,-1.47344 0.54263,-97.138987 -0.0235,-98.614257 -0.7146,-1.86221 -3.3101,-2.32894 -12.95133,-2.32894 h -9.2918 l 0.0549,51.666667 0.0549,51.66667 h 9.23692 c 5.0803,0 9.96553,-0.27702 10.85606,-0.6156 z m -21.19901,-22.05107 c -0.23384,-0.37836 -3.54937,-0.66666 -7.66667,-0.66666 -4.1173,0 -7.43283,0.2883 -7.66667,0.66666 -0.26602,0.43044 2.45064,0.66667 7.66667,0.66667 5.21603,0 7.93269,-0.23623 7.66667,-0.66667 z m 0.33333,-54.980077 c 0,-0.80133 -1.55027,-1.01411 -8.5,-1.16667 l -8.5,-0.18658 v -12.66667 -12.66667 l 8.5,-0.18658 8.5,-0.18659 v -2.98008 -2.98008 h -11.66667 -11.66666 v 17 17 h 11.66666 c 9.82055,0 11.66667,-0.15509 11.66667,-0.98008 z m -0.33333,-3.01992 c 0.26602,-0.43044 -2.45064,-0.66667 -7.66667,-0.66667 -5.21603,0 -7.93269,0.23623 -7.66667,0.66667 0.23384,0.37836 3.54937,0.66667 7.66667,0.66667 4.1173,0 7.43283,-0.28831 7.66667,-0.66667 z m 0.33333,-12.33333 v -10.33334 h -8 -8 v 10.33334 10.33333 h 8 8 z m 23.80706,-13.08073 c -0.20268,-1.51106 -0.70636,-3.08606 -1.11929,-3.5 -0.47568,-0.47682 -4.64789,-0.83049 -11.38595,-0.96515 l -10.63515,-0.21254 v 3.04587 3.04588 l 9.83333,0.0469 c 5.40833,0.0258 10.43333,0.30469 11.16667,0.61981 2.28137,0.98034 2.51987,0.74849 2.14039,-2.08072 z m 655.16264,113.111027 -1.63637,-1.63636 V 102.24852 45.187913 l 1.63637,-1.63636 1.63636,-1.63636 h 23.03031 23.0303 v 18.33333 18.33333 h -12 -12 v 23.666667 23.66667 h 12 12 v 18.33333 18.33334 h -23.0303 -23.03031 z m 22.36363,-2.69697 v -3 l -9.5,-0.004 c -6.94867,-0.003 -9.99236,-0.26095 -11.33333,-0.96047 l -1.83333,-0.95636 v 2.74131 c 0,4.88151 0.71579,5.17962 12.43666,5.17962 h 10.23 z m 24,-14 v -17 h -11.33333 c -10.88889,0 -11.33333,0.0523 -11.33333,1.33334 0,1.26222 0.44444,1.33333 8.33333,1.33333 7.88304,0 8.33428,0.0721 8.35088,1.33333 0.01,0.73334 0.0258,6.35834 0.036,12.5 l 0.0185,11.16667 -8.36934,0.18658 -8.36935,0.18659 v 2.98008 2.98008 h 11.33333 11.33333 z m -24,-42.04803 V 50.485793 l -10.06041,0.2147 c -9.6433,0.20579 -10.1132,0.27995 -11.33334,1.78855 -1.22657,1.51656 -1.27291,3.33186 -1.27291,49.863637 v 48.28978 l 1.63636,1.63637 c 1.58738,1.58737 1.92668,1.63636 11.33334,1.63636 h 9.69696 z m 16.66667,41.38137 v -10.33334 h -7.66667 -7.66666 v 10.33334 10.33333 h 7.66666 7.66667 z m 0,-12.33334 c 0,-0.40579 -3,-0.66666 -7.66667,-0.66666 -4.66666,0 -7.66666,0.26087 -7.66666,0.66666 0,0.4058 3,0.66667 7.66666,0.66667 4.66667,0 7.66667,-0.26087 7.66667,-0.66667 z m 7.33333,-70.999997 v -17 h -11.33333 -11.33333 v 2.98008 2.98008 l 8.36845,0.18659 8.36844,0.18658 -0.018,11.5 c -0.01,6.325 -0.0257,12.1 -0.0351,12.83334 -0.0162,1.26131 -0.46724,1.33333 -8.35043,1.33333 -6.96296,0 -8.33333,0.16444 -8.33333,1 0,0.84967 1.7037,1 11.33333,1 h 11.33333 z m -7.33333,13 c 0,-0.4058 -3,-0.66667 -7.66667,-0.66667 -4.66666,0 -7.66666,0.26087 -7.66666,0.66667 0,0.4058 3,0.66667 7.66666,0.66667 4.66667,0 7.66667,-0.26087 7.66667,-0.66667 z m 0,-12.33333 v -10.33334 h -7.66667 -7.66666 v 10.33334 10.33333 h 7.66666 7.66667 z m -26.16667,-11.66256 9.5,-0.004 v -3 -3 h -9.85166 c -11.77845,0 -12.815,0.40429 -12.815,4.99826 v 2.92267 l 1.83333,-0.95636 c 1.34097,-0.69952 4.38466,-0.95746 11.33333,-0.96047 z M 222.22776,151.97209 c -6.06809,-1.19972 -11.95666,-5.93256 -14.27007,-11.46934 -0.53077,-1.2703 -2.02633,-6.34717 -3.32347,-11.28193 -2.1292,-8.10015 -12.5206,-46.383327 -13.47377,-49.638967 -0.2147,-0.73333 -0.5475,-3.76067 -0.73957,-6.72743 -0.29315,-4.5282 -0.1249,-5.90118 1.04813,-8.553 2.14935,-4.85895 4.95749,-7.93459 9.21031,-10.08767 l 3.88177,-1.96523 h 288.66667 288.66667 l 3.78773,1.86006 c 4.12559,2.02597 7.05139,4.94563 9.34472,9.32514 1.17186,2.23788 1.46927,3.90793 1.45107,8.14813 -0.0203,4.71661 -0.99997,8.91809 -8.47236,36.333337 -4.6472,17.05 -8.95298,32.14513 -9.56839,33.54472 -1.53549,3.49207 -5.71224,7.63128 -9.43855,9.35372 l -3.10422,1.43489 -270.66667,0.0924 c -148.86667,0.0509 -271.71667,-0.11515 -273,-0.36887 z m 547.00243,-3.0569 c 7.04372,-3.60469 7.11047,-3.7623 17.1056,-40.39013 9.85646,-36.119667 10.31016,-38.879417 7.33378,-44.609867 -2.17893,-4.19513 -5.04652,-6.98631 -9.02964,-8.78902 l -3.41217,-1.54432 h -288 -288 l -3.90706,1.91844 c -4.0452,1.98627 -7.27037,5.60509 -8.87555,9.95886 -1.06377,2.88528 -1.02879,8.68632 0.0791,13.1227 1.90816,7.64074 15.13114,56.471277 16.09917,59.451867 2.04835,6.30696 6.53522,10.58667 12.90469,12.30889 2.38035,0.64362 61.21098,0.79345 273.41346,0.69633 l 270.3805,-0.12375 z m -547.87911,-3.67791 c -2.89413,-0.8687 -6.1472,-3.65678 -7.43632,-6.3734 -1.05771,-2.22897 -4.29803,-13.36939 -6.70457,-23.05077 -0.51525,-2.07281 -3.19708,-12.16908 -5.95962,-22.436157 -4.96887,-18.46697 -5.69329,-22.9299 -4.31525,-26.58503 0.95965,-2.54541 4.48997,-6.16775 7.10436,-7.28956 1.8135,-0.77815 46.56736,-0.92051 289.39515,-0.92051 h 287.24989 l 2.93819,1.55119 c 1.616,0.85315 3.83818,2.82899 4.93818,4.39076 3.31903,4.71231 2.99602,6.84175 -6.22795,41.058047 -4.44805,16.50001 -8.57521,31.09891 -9.17147,32.44202 -1.3009,2.93035 -4.56313,6.21075 -7.14397,7.18376 -2.30031,0.86725 -541.77826,0.89662 -544.66662,0.0296 z m 543.99995,-1.36298 c 2.94794,-1.11142 6.08898,-4.5769 7.16831,-7.90873 0.54349,-1.67771 4.62527,-16.70038 9.07062,-33.38372 5.82657,-21.867037 7.98135,-30.964147 7.72021,-32.593447 -0.57127,-3.56429 -3.47489,-7.36023 -6.73218,-8.80109 -2.83092,-1.25225 -8.38921,-1.27347 -290.16708,-1.10775 l -287.28086,0.16896 -2.46104,1.66667 c -2.90971,1.97052 -5.10792,6.09656 -5.10792,9.58759 0,1.37498 0.79505,5.46484 1.76677,9.08858 l 1.76677,6.58861 2.33556,0.20094 2.33556,0.20094 3.89483,14.333337 c 2.14215,7.88333 3.89611,14.55833 3.89767,14.83333 0.002,0.275 -1.00526,0.5 -2.2374,0.5 h -2.24024 l 2.81875,10.3896 c 1.55031,5.71427 3.41162,11.18927 4.13625,12.16666 0.72463,0.97739 2.4893,2.44714 3.9215,3.26611 l 2.60398,1.48903 270.45661,0.011 c 189.12613,0.008 271.02096,-0.20181 272.33333,-0.69659 z m -547.146,-6.95911 c -0.0125,-0.18333 -0.0332,-5.95833 -0.0461,-12.83333 l -0.0234,-12.5 10.37946,-0.1836 10.37945,-0.1836 v 13.01693 13.01693 H 228.5611 c -5.68333,0 -10.34356,-0.15 -10.35606,-0.33333 z m 18.6894,-1.69977 c 0,-0.38488 -0.45771,-1.58488 -1.01712,-2.66667 l -1.01712,-1.96689 h -6.54842 -6.54842 l -1.0475,2.66666 -1.04749,2.66667 h 8.61303 c 5.56924,0 8.61304,-0.2473 8.61304,-0.69977 z M 220.7911,125.2962 c 0.17219,-4.40753 -0.0305,-6.36813 -0.80664,-7.80077 -0.9838,-1.81601 -1.03801,-1.47342 -1.06334,6.71976 -0.0214,6.90627 0.14001,8.46678 0.80664,7.80076 0.49967,-0.49921 0.92543,-3.18976 1.06334,-6.71975 z m 16.75979,-1.21434 c -0.007,-5.30387 -0.21889,-7.51043 -0.65646,-6.83334 -1.13037,1.74913 -0.77397,14.66667 0.40466,14.66667 0.1441,0 0.25741,-3.525 0.2518,-7.83333 z m -2.79267,0.33333 0.19713,-4.5 h -6.3638 -6.36379 v 4.69168 4.69169 l 6.16667,-0.19169 6.16666,-0.19168 z m -6.69713,3.78618 c -0.275,-0.27962 -0.5,-1.0584 -0.5,-1.73063 0,-0.85137 -0.49375,-1.22222 -1.62732,-1.22222 -0.89502,0 -1.81273,-0.3 -2.03934,-0.66666 -0.24039,-0.38895 0.43752,-0.66667 1.62732,-0.66667 1.57423,0 2.03934,-0.29512 2.03934,-1.29399 0,-1.87748 1.19941,-2.33106 1.45234,-0.54923 0.15394,1.08444 0.73092,1.56933 2.04766,1.72083 2.45078,0.282 2.3521,1.45572 -0.12238,1.45572 -1.60676,0 -1.99336,0.3088 -2.16667,1.73063 -0.11602,0.95184 -0.43595,1.50184 -0.71095,1.22222 z m 8.02516,-12.61951 1.45752,-3 h -8.95732 -8.95732 l 1.03771,2.5 c 0.57074,1.375 1.17314,2.725 1.33866,3 0.16552,0.275 3.07347,0.5 6.4621,0.5 h 6.16114 z m 4.12564,21.35026 c -0.009,-0.19265 -0.023,-5.97526 -0.0318,-12.85026 l -0.0159,-12.5 h 10.39682 10.39683 l 6.7e-4,12.66666 6.6e-4,12.66667 -10.36574,0.18359 c -5.70116,0.10098 -10.37289,0.026 -10.38162,-0.16666 z m 18.01587,-3.6836 -1.36043,-2.66666 -6.48645,0.007 -6.48645,0.007 -1.11716,2.65988 -1.11716,2.65989 h 8.96404 8.96404 z m -15.3904,-8.66666 c -0.0202,-3.11667 -0.29447,-6.26667 -0.6096,-7 -0.36396,-0.84699 -0.58632,1.58472 -0.6096,6.66666 -0.0247,5.39597 0.17371,7.6745 0.6096,7 0.35544,-0.55 0.62976,-3.55 0.6096,-6.66666 z m 16.71353,-0.5 c -0.007,-5.30387 -0.21889,-7.51043 -0.65646,-6.83334 -1.13037,1.74913 -0.77397,14.66667 0.40466,14.66667 0.1441,0 0.25741,-3.525 0.2518,-7.83333 z m -2.65646,0.5 v -4.66667 h -6.33334 -6.33333 v 4.66667 4.66666 h 6.33333 6.33334 z m -6.66667,2.37267 c 0,-1.44351 -0.30167,-1.70601 -1.96065,-1.70601 -2.7451,0 -3.20047,-1.20179 -0.552,-1.45681 1.67818,-0.1616 2.2286,-0.55706 2.39365,-1.71974 0.25293,-1.78183 1.45233,-1.32825 1.45233,0.54923 0,0.93581 0.46134,1.29399 1.66667,1.29399 0.91667,0 1.66667,0.3 1.66667,0.66667 0,0.36666 -0.75,0.66666 -1.66667,0.66666 -1.20533,0 -1.66667,0.35818 -1.66667,1.29399 0,0.71169 -0.3,1.4794 -0.66666,1.70601 -0.37811,0.23368 -0.66667,-0.32641 -0.66667,-1.29399 z m 8.00127,-11.53934 1.26688,-2.83333 h -8.93339 -8.93339 l 1.03771,2.5 c 0.57074,1.375 1.17967,2.73557 1.35318,3.02349 0.17351,0.28792 3.15647,0.43792 6.62881,0.33333 l 6.31333,-0.19016 z m 3.99873,8.8164 v -13.01693 l 10.5,0.1836 10.5,0.1836 0.18106,12.83333 0.18107,12.83333 h -10.68107 -10.68106 z m 18.11716,9.02371 -1.11716,-2.65988 -6.48288,-0.007 -6.48288,-0.007 -1.01712,1.96689 c -0.55941,1.08179 -1.01712,2.28179 -1.01712,2.66667 0,0.45249 3.04504,0.69977 8.61716,0.69977 h 8.61716 z m 1.88284,-9.14011 c 0,-6.77274 -0.16672,-8.30017 -0.83333,-7.63444 -1.78502,1.78264 -1.31952,16.10111 0.52345,16.10111 0.17044,0 0.30988,-3.81 0.30988,-8.46667 z m -17.35375,0.13333 c 0,-3.3 -0.29081,-6.45 -0.64625,-7 -0.43687,-0.67601 -0.64625,1.59188 -0.64625,7 0,5.40812 0.20938,7.67602 0.64625,7 0.35544,-0.55 0.64625,-3.7 0.64625,-7 z m 14.02042,0.33334 v -4.66667 h -6.33334 -6.33333 v 4.66667 4.66666 h 6.33333 6.33334 z m -6.66667,2.37267 c 0,-1.44351 -0.30167,-1.70601 -1.96065,-1.70601 -2.7451,0 -3.20047,-1.20179 -0.552,-1.45681 1.67344,-0.16114 2.22877,-0.55805 2.39235,-1.70985 0.28984,-2.0408 1.45363,-1.90736 1.45363,0.16666 0,1.33334 0.33334,1.66667 1.66667,1.66667 0.91667,0 1.66667,0.3 1.66667,0.66667 0,0.36666 -0.75,0.66666 -1.66667,0.66666 -1.20533,0 -1.66667,0.35818 -1.66667,1.29399 0,0.71169 -0.3,1.4794 -0.66666,1.70601 -0.37811,0.23368 -0.66667,-0.32641 -0.66667,-1.29399 z m 8.07695,-11.53934 1.20171,-2.83333 h -8.99612 c -8.68509,0 -8.97228,0.0445 -8.30656,1.28845 0.37926,0.70865 0.98654,2.06956 1.3495,3.02423 0.65566,1.72452 0.70174,1.73454 7.10485,1.54488 l 6.44491,-0.1909 z m 3.92305,8.8164 v -13.01693 l 10.5,0.1836 10.5,0.1836 0.18106,12.83333 0.18107,12.83333 h -10.68107 -10.68106 z m 18.17858,9.01693 -1.0475,-2.66666 h -6.59956 -6.59955 l -0.96599,2.31192 c -0.53129,1.27155 -0.96598,2.47155 -0.96598,2.66666 0,0.19511 3.87587,0.35475 8.61304,0.35475 h 8.61303 z m -15.56898,-9 c 0.0202,-3.3 -0.25416,-6.45 -0.6096,-7 -0.43514,-0.67333 -0.63428,1.72224 -0.6096,7.33334 0.0232,5.26807 0.2474,7.84289 0.6096,7 0.31513,-0.73334 0.58945,-4.03334 0.6096,-7.33334 z m 17.36678,-0.16666 c -0.0214,-7.70786 -0.11242,-8.34468 -0.97638,-6.83334 -1.61518,2.82546 -1.08481,15.33334 0.65017,15.33334 0.19241,0 0.3392,-3.825 0.32621,-8.5 z m -3.30971,0.5 v -4.66667 h -6.33334 -6.33333 v 4.22222 c 0,2.32222 0.2,4.42222 0.44445,4.66667 0.24444,0.24444 3.09444,0.44444 6.33333,0.44444 h 5.88889 z m -6.66667,2.37267 c 0,-1.44351 -0.30167,-1.70601 -1.96065,-1.70601 -1.07836,0 -2.14607,-0.3 -2.37268,-0.66666 -0.2452,-0.39675 0.54863,-0.66667 1.96065,-0.66667 2.08642,0 2.37268,-0.20109 2.37268,-1.66667 0,-0.91666 0.3,-1.66666 0.66667,-1.66666 0.36666,0 0.66666,0.75 0.66666,1.66666 0,1.41455 0.30849,1.66667 2.03935,1.66667 1.1898,0 1.86771,0.27772 1.62732,0.66667 -0.22661,0.36666 -1.14432,0.66666 -2.03934,0.66666 -1.16639,0 -1.62733,0.36652 -1.62733,1.29399 0,0.71169 -0.3,1.4794 -0.66666,1.70601 -0.37811,0.23368 -0.66667,-0.32641 -0.66667,-1.29399 z m 8.0015,-11.20601 1.26963,-2.83333 -8.39275,-0.18726 c -4.61601,-0.103 -8.54896,-0.0311 -8.73988,0.15987 -0.19092,0.19092 0.19538,1.55019 0.85844,3.02059 l 1.20556,2.67347 h 6.26468 6.26468 z m 3.9985,8.5 v -13 h 10.66667 10.66666 v 13 13 h -10.66666 -10.66667 z m 18.34228,9.25192 c -0.55492,-1.32811 -1.00895,-2.52811 -1.00895,-2.66667 0,-0.13855 -2.99597,-0.25191 -6.65772,-0.25191 h -6.65772 l -1.00894,2.41474 c -0.55492,1.32812 -1.00895,2.52812 -1.00895,2.66667 0,0.13856 3.90403,0.25192 8.67561,0.25192 h 8.67562 z m 1.6341,-9.08525 c -0.0214,-7.99686 -0.11385,-8.67551 -0.97638,-7.16667 -1.18594,2.07459 -1.31088,10.71228 -0.19941,13.786 0.44033,1.2177 0.89033,2.214 1,2.214 0.10968,0 0.18878,-3.975 0.17579,-8.83333 z m -17.40343,-0.16667 c 0,-3.3 -0.25782,-6.6 -0.57295,-7.33333 -0.35849,-0.83424 -0.57295,1.91075 -0.57295,7.33333 0,5.42259 0.21446,8.16758 0.57295,7.33334 0.31513,-0.73334 0.57295,-4.03334 0.57295,-7.33334 z m 14.09372,0.33334 v -4.66667 h -6.33334 -6.33333 v 4.22222 c 0,2.32222 0.2,4.42222 0.44445,4.66667 0.24444,0.24444 3.09444,0.44444 6.33333,0.44444 h 5.88889 z m -6.66667,2.37267 c 0,-1.45112 -0.29881,-1.70601 -2,-1.70601 -1.1,0 -2,-0.3 -2,-0.66666 0,-0.36667 0.9,-0.66667 2,-0.66667 1.68889,0 2,-0.25926 2,-1.66667 0,-0.91666 0.3,-1.66666 0.66667,-1.66666 0.36666,0 0.66666,0.75 0.66666,1.66666 0,1.41455 0.30849,1.66667 2.03935,1.66667 1.1898,0 1.86771,0.27772 1.62732,0.66667 -0.22661,0.36666 -1.14432,0.66666 -2.03934,0.66666 -1.16639,0 -1.62733,0.36652 -1.62733,1.29399 0,0.71169 -0.3,1.4794 -0.66666,1.70601 -0.37811,0.23368 -0.66667,-0.32641 -0.66667,-1.29399 z m 7.98645,-11.01278 c 0.74079,-1.45206 1.34688,-2.80206 1.34688,-3 0,-0.19794 -3.9,-0.35989 -8.66666,-0.35989 -4.76667,0 -8.66667,0.14392 -8.66667,0.31984 0,0.17591 0.48258,1.52591 1.07239,3 l 1.07238,2.68016 h 6.2474 6.2474 z m 4.01355,8.30677 v -13 h 10.66667 10.66666 v 13 13 h -10.66666 -10.66667 z m 19.33333,11.35595 c 0,-0.17089 -0.50556,-1.37089 -1.12347,-2.66666 l -1.12347,-2.35595 h -6.53425 -6.53425 l -1.00894,2.41474 c -0.55492,1.32812 -1.00895,2.52812 -1.00895,2.66667 0,0.13856 3.9,0.25192 8.66667,0.25192 4.76666,0 8.66666,-0.13982 8.66666,-0.31072 z m -16.08078,-11.02261 c -0.0114,-2.38334 -0.42501,-5.38334 -0.91922,-6.66667 -0.82701,-2.14754 -0.89828,-1.64322 -0.89513,6.33333 0.003,7.87719 0.0869,8.48448 0.91921,6.66667 0.50368,-1.1 0.90649,-3.95 0.89514,-6.33333 z m 16.72383,-0.5 c -0.0214,-7.70786 -0.11242,-8.34468 -0.97638,-6.83334 -1.17322,2.05234 -1.32544,11.223 -0.22632,13.6353 0.42552,0.93392 0.87552,1.69804 1,1.69804 0.12448,0 0.21569,-3.825 0.2027,-8.5 z m -3.30971,0.5 v -4.66667 h -6.33334 -6.33333 v 4.22222 c 0,2.32222 0.2,4.42222 0.44445,4.66667 0.24444,0.24444 3.09444,0.44444 6.33333,0.44444 h 5.88889 z m -6.66667,2 c 0,-1.03704 -0.44444,-1.33334 -2,-1.33334 -1.1,0 -2,-0.3 -2,-0.66666 0,-0.36667 0.9,-0.66667 2,-0.66667 1.68889,0 2,-0.25926 2,-1.66667 0,-0.91666 0.3,-1.66666 0.66667,-1.66666 0.36666,0 0.66666,0.75 0.66666,1.66666 0,1.41455 0.30849,1.66667 2.03935,1.66667 1.1898,0 1.86771,0.27772 1.62732,0.66667 -0.22661,0.36666 -1.14432,0.66666 -2.03934,0.66666 -1.18288,0 -1.62733,0.36415 -1.62733,1.33334 0,0.73333 -0.3,1.33333 -0.66666,1.33333 -0.36667,0 -0.66667,-0.6 -0.66667,-1.33333 z m 7.98645,-10.64011 c 0.74079,-1.45206 1.34688,-2.80206 1.34688,-3 0,-0.19794 -3.9,-0.35989 -8.66666,-0.35989 -4.76667,0 -8.66667,0.11336 -8.66667,0.25191 0,0.56407 1.91805,4.78348 2.38566,5.24809 0.27677,0.275 3.14713,0.5 6.37857,0.5 h 5.87534 z m 4.01355,8.30677 v -13 h 10.66667 10.66666 v 13 13 h -10.66666 -10.66667 z m 19.33333,11.35595 c 0,-0.17089 -0.50556,-1.37089 -1.12347,-2.66666 l -1.12347,-2.35595 h -6.5432 c -3.59875,0 -6.54319,0.11336 -6.54319,0.25191 0,0.13856 -0.45402,1.33856 -1.00895,2.66667 l -1.00894,2.41475 h 8.67561 c 4.77159,0 8.67561,-0.13982 8.67561,-0.31072 z m -16.06013,-11.35595 c 0,-2.56666 -0.41211,-5.56666 -0.91579,-6.66666 -0.8322,-1.81747 -0.91578,-1.20901 -0.91578,6.66666 0,7.87568 0.0836,8.48413 0.91578,6.66667 0.50368,-1.1 0.91579,-4.1 0.91579,-6.66667 z m 16.67266,-0.16666 c -0.0494,-7.75781 -0.13411,-8.32537 -0.96994,-6.5 -1.10947,2.423 -1.25292,10.00641 -0.24403,12.90051 0.40253,1.15472 0.85253,2.09949 1,2.09949 0.14746,0 0.24375,-3.825 0.21397,-8.5 z m -3.27919,0.5 v -4.66667 h -6 -6 v 4.66667 4.66666 h 6 6 z m -6.16667,3.61951 c -0.275,-0.27962 -0.5,-1.0584 -0.5,-1.73063 0,-0.91358 -0.50505,-1.22222 -2,-1.22222 -1.1,0 -2,-0.3 -2,-0.66666 0,-0.36667 0.9,-0.66667 2,-0.66667 1.68889,0 2,-0.25926 2,-1.66667 0,-0.91666 0.3,-1.66666 0.66667,-1.66666 0.36666,0 0.66666,0.75 0.66666,1.66666 0,1.41455 0.30849,1.66667 2.03935,1.66667 1.1898,0 1.86771,0.27772 1.62732,0.66667 -0.22661,0.36666 -1.12439,0.66666 -1.99506,0.66666 -1.20556,0 -1.63334,0.41268 -1.79399,1.73063 -0.11602,0.95184 -0.43595,1.50184 -0.71095,1.22222 z m 7.08188,-11.11951 c 0.52028,-0.825 1.14741,-2.175 1.39363,-3 l 0.44768,-1.5 h -8.7116 c -4.79137,0 -8.71159,0.11336 -8.71159,0.25191 0,0.56407 1.91805,4.78348 2.38566,5.24809 0.27677,0.275 3.14631,0.5 6.37675,0.5 5.36633,0 5.95521,-0.12953 6.81947,-1.5 z m 4.57039,7.33333 0.18106,-12.83333 10.5,-0.1836 10.5,-0.1836 v 13.01693 13.01693 h -10.68106 -10.68106 z m 19.18106,11.24808 c 0,-0.13855 -0.45402,-1.33855 -1.00894,-2.66667 l -1.00895,-2.41474 h -6.65772 c -3.66174,0 -6.65772,0.11336 -6.65772,0.25191 0,0.13856 -0.45402,1.33856 -1.00895,2.66667 l -1.00894,2.41475 h 8.67561 c 4.77159,0 8.67561,-0.11336 8.67561,-0.25192 z m -16.04724,-11.41475 c 0,-3.40127 -0.34515,-5.9371 -0.95276,-7 -0.8625,-1.50879 -0.95275,-0.84572 -0.95275,7 0,7.84572 0.0903,8.50879 0.95275,7 0.60761,-1.0629 0.95276,-3.59872 0.95276,-7 z m 16.66319,-0.16666 c -0.0469,-7.86737 -0.11759,-8.32634 -0.94928,-6.16667 -1.10708,2.87481 -1.25356,9.74034 -0.26811,12.56718 0.40253,1.15472 0.85253,2.09949 1,2.09949 0.14746,0 0.24529,-3.825 0.21739,-8.5 z m -2.75215,0.33333 0.19712,-4.5 h -6.36379 -6.36379 v 4.69168 4.69169 l 6.16666,-0.19169 6.16667,-0.19168 z m -6.69713,3.78618 c -0.275,-0.27962 -0.5,-1.0584 -0.5,-1.73063 0,-0.91358 -0.50505,-1.22222 -2,-1.22222 -1.1,0 -2,-0.3 -2,-0.66666 0,-0.36667 0.9,-0.66667 2,-0.66667 1.68889,0 2,-0.25926 2,-1.66667 0,-0.91666 0.3,-1.66666 0.66667,-1.66666 0.36666,0 0.66666,0.75 0.66666,1.66666 0,1.40741 0.31112,1.66667 2,1.66667 1.1,0 2,0.3 2,0.66667 0,0.36666 -0.88007,0.66666 -1.95571,0.66666 -1.60676,0 -1.99336,0.3088 -2.16667,1.73063 -0.11602,0.95184 -0.43595,1.50184 -0.71095,1.22222 z m 7.81739,-12.41323 c 0.72457,-1.35322 1.1403,-2.63748 0.92385,-2.85393 -0.21644,-0.21645 -4.17027,-0.30928 -8.78629,-0.20628 l -8.39275,0.18726 1.28097,2.85863 1.28096,2.85863 6.18794,-0.19196 6.18793,-0.19197 z m 4.33341,21.12705 c -0.009,-0.18333 -0.0233,-5.95833 -0.0324,-12.83333 l -0.0165,-12.5 10.36574,-0.1836 10.36574,-0.1836 v 13.01693 13.01693 h -10.33333 c -5.68333,0 -10.34047,-0.15 -10.3492,-0.33333 z m 18.68253,-1.69977 c 0,-0.38488 -0.4577,-1.58488 -1.01712,-2.66667 l -1.01712,-1.96689 h -6.54842 -6.54842 l -1.04749,2.66666 -1.0475,2.66667 h 8.61304 c 5.56924,0 8.61303,-0.2473 8.61303,-0.69977 z m -16.10332,-9.91922 c 0.17219,-4.40753 -0.0306,-6.36813 -0.80665,-7.80077 -0.98379,-1.81601 -1.038,-1.47342 -1.06333,6.71976 -0.0214,6.90627 0.14001,8.46678 0.80664,7.80076 0.49967,-0.49921 0.92542,-3.18976 1.06334,-6.71975 z m 16.75978,-0.88101 c -0.007,-5.51909 -0.21972,-7.84247 -0.65646,-7.16667 -1.09354,1.69214 -0.72782,15.33334 0.41109,15.33334 0.14057,0 0.25099,-3.675 0.24537,-8.16667 z m -2.79266,0 0.19712,-4.5 h -6.36379 -6.36379 v 4.69168 4.69169 l 6.16666,-0.19169 6.16667,-0.19168 z m -6.69713,3.78618 c -0.275,-0.27962 -0.5,-1.0584 -0.5,-1.73063 0,-0.85137 -0.49376,-1.22222 -1.62732,-1.22222 -0.89503,0 -1.81273,-0.3 -2.03935,-0.66666 -0.24038,-0.38895 0.43753,-0.66667 1.62733,-0.66667 1.57423,0 2.03934,-0.29512 2.03934,-1.29399 0,-1.87748 1.19941,-2.33106 1.45234,-0.54923 0.15394,1.08444 0.73092,1.56933 2.04766,1.72083 2.45077,0.282 2.3521,1.45572 -0.12238,1.45572 -1.60676,0 -1.99336,0.3088 -2.16667,1.73063 -0.11602,0.95184 -0.43595,1.50184 -0.71095,1.22222 z m 8.02516,-12.61951 1.45751,-3 h -8.97483 -8.97484 l 0.65073,1.71154 c 1.65273,4.34702 1.54066,4.28846 8.20688,4.28846 h 6.17704 z m 4.12564,21.35026 c -0.009,-0.19265 -0.023,-5.97526 -0.0317,-12.85026 l -0.0159,-12.5 h 10.39682 10.39683 l 6.6e-4,12.66666 6.7e-4,12.66667 -10.36575,0.18359 c -5.70116,0.10098 -10.37288,0.026 -10.38161,-0.16666 z m 18.01587,-3.6836 -1.36043,-2.66666 -6.48645,0.007 -6.48646,0.007 -1.11715,2.65988 -1.11716,2.65989 h 8.96404 8.96404 z m -15.3904,-8.66666 c -0.0202,-3.11667 -0.29448,-6.26667 -0.6096,-7 -0.36397,-0.84699 -0.58632,1.58472 -0.6096,6.66666 -0.0247,5.39597 0.17371,7.6745 0.6096,7 0.35544,-0.55 0.62976,-3.55 0.6096,-6.66666 z m 16.71352,-0.5 c -0.007,-5.30387 -0.21889,-7.51043 -0.65646,-6.83334 -1.13037,1.74913 -0.77397,14.66667 0.40466,14.66667 0.14411,0 0.25742,-3.525 0.2518,-7.83333 z m -2.65646,0.5 v -4.66667 h -6.33333 -6.33333 v 4.66667 4.66666 h 6.33333 6.33333 z m -6.56677,2.5 c -0.0851,-1.56178 -0.39031,-1.83334 -2.06055,-1.83334 -2.73033,0 -3.20685,-1.20062 -0.5782,-1.45681 1.65285,-0.1611 2.25174,-0.5971 2.57755,-1.87652 l 0.42443,-1.66667 0.26844,1.66667 c 0.19961,1.23931 0.73853,1.72076 2.10177,1.87761 2.45077,0.282 2.3521,1.45572 -0.12238,1.45572 -1.62174,0 -2.00315,0.31308 -2.23345,1.83334 l -0.27773,1.83333 z m 7.90138,-11.66667 1.26687,-2.83333 h -8.93339 -8.93338 l 1.03771,2.5 c 0.57074,1.375 1.17967,2.73557 1.35318,3.02349 0.1735,0.28792 3.15647,0.43792 6.6288,0.33333 l 6.31334,-0.19016 z m 3.99873,8.83333 v -13.03386 l 10.36574,0.1836 10.36575,0.1836 v 12.66666 12.66667 l -10.36575,0.18359 -10.36574,0.1836 z m 18.11716,9.00678 -1.11716,-2.65988 -6.48288,-0.007 -6.48288,-0.007 -1.01712,1.96689 c -0.55942,1.08179 -1.01712,2.28179 -1.01712,2.66667 0,0.45249 3.04504,0.69977 8.61716,0.69977 h 8.61716 z m 1.88284,-8.80678 c 0,-7.03959 -0.16671,-8.63345 -0.83334,-7.96743 -1.76839,1.76677 -1.24872,16.76743 0.58089,16.76743 0.13884,0 0.25245,-3.96 0.25245,-8.8 z m -17.3904,0.13334 c -0.0202,-3.11667 -0.29448,-6.26667 -0.6096,-7 -0.36397,-0.84699 -0.58632,1.58472 -0.6096,6.66666 -0.0247,5.39597 0.17371,7.6745 0.6096,7 0.35544,-0.55 0.62976,-3.55 0.6096,-6.66666 z m 14.05706,0 v -4.66667 h -6.33333 -6.33333 v 4.66667 4.66666 h 6.33333 6.33333 z m -6.66666,2.37267 c 0,-1.44351 -0.30168,-1.70601 -1.96066,-1.70601 -2.74509,0 -3.20046,-1.20179 -0.552,-1.45681 1.67819,-0.1616 2.22861,-0.55706 2.39365,-1.71974 0.25294,-1.78183 1.45234,-1.32825 1.45234,0.54923 0,0.93581 0.46134,1.29399 1.66667,1.29399 0.91666,0 1.66666,0.3 1.66666,0.66667 0,0.36666 -0.75,0.66666 -1.66666,0.66666 -1.20533,0 -1.66667,0.35818 -1.66667,1.29399 0,0.71169 -0.3,1.4794 -0.66667,1.70601 -0.3781,0.23368 -0.66666,-0.32641 -0.66666,-1.29399 z m 8.07695,-11.53934 1.20171,-2.83333 h -8.99612 c -8.68509,0 -8.97228,0.0445 -8.30656,1.28845 0.37926,0.70865 0.98653,2.06956 1.3495,3.02423 0.65566,1.72452 0.70174,1.73454 7.10485,1.54488 l 6.44491,-0.1909 z m 3.92305,8.8164 v -13.01693 l 10.5,0.1836 10.5,0.1836 0.18106,12.83333 0.18106,12.83333 h -10.68106 -10.68106 z m 18.17857,9.01693 -1.04749,-2.66666 h -6.59956 -6.59956 l -0.96598,2.31192 c -0.53129,1.27155 -0.96598,2.47155 -0.96598,2.66666 0,0.19511 3.87586,0.35475 8.61303,0.35475 h 8.61304 z m 1.7978,-9.16666 c -0.0214,-7.70786 -0.11241,-8.34468 -0.97637,-6.83334 -1.6786,2.9364 -1.12064,15.33334 0.69012,15.33334 0.17043,0 0.29925,-3.825 0.28625,-8.5 z m -17.33012,0.16666 c 0,-3.3 -0.29081,-6.45 -0.64625,-7 -0.43688,-0.67601 -0.64625,1.59188 -0.64625,7 0,5.40812 0.20937,7.67602 0.64625,7 0.35544,-0.55 0.64625,-3.7 0.64625,-7 z m 14.02041,0.33334 v -4.66667 h -6.33333 -6.33333 v 4.66667 4.66666 h 6.33333 6.33333 z m -6.66666,2.37267 c 0,-1.44351 -0.30168,-1.70601 -1.96066,-1.70601 -1.07836,0 -2.14606,-0.3 -2.37268,-0.66666 -0.2452,-0.39675 0.54864,-0.66667 1.96066,-0.66667 2.08641,0 2.37268,-0.20109 2.37268,-1.66667 0,-0.91666 0.3,-1.66666 0.66666,-1.66666 0.36667,0 0.66667,0.75 0.66667,1.66666 0,1.33334 0.33333,1.66667 1.66667,1.66667 0.91666,0 1.66666,0.3 1.66666,0.66667 0,0.36666 -0.75,0.66666 -1.66666,0.66666 -1.20533,0 -1.66667,0.35818 -1.66667,1.29399 0,0.71169 -0.3,1.4794 -0.66667,1.70601 -0.3781,0.23368 -0.66666,-0.32641 -0.66666,-1.29399 z m 8.00149,-11.20601 1.26964,-2.83333 -8.39275,-0.18726 c -4.61601,-0.103 -8.54896,-0.0311 -8.73988,0.15987 -0.19092,0.19092 0.19537,1.55019 0.85843,3.02059 l 1.20557,2.67347 h 6.26468 6.26467 z m 3.99851,8.5 v -13 h 10.66666 10.66667 v 13 13 h -10.66667 -10.66666 z m 18.34228,9.25192 c -0.55492,-1.32811 -1.00895,-2.52811 -1.00895,-2.66667 0,-0.13855 -3.01531,-0.25191 -6.70068,-0.25191 h -6.70069 l -0.96598,2.31192 c -0.53129,1.27155 -0.96598,2.47155 -0.96598,2.66666 0,0.19511 3.90402,0.35475 8.67561,0.35475 h 8.67561 z m 1.63409,-9.08525 c -0.0214,-7.99686 -0.11384,-8.67551 -0.97637,-7.16667 -1.18594,2.07459 -1.31088,10.71228 -0.19941,13.786 0.44033,1.2177 0.89033,2.214 1,2.214 0.10967,0 0.18878,-3.975 0.17578,-8.83333 z m -17.36677,-0.16667 c 0.0202,-3.3 -0.25416,-6.45 -0.6096,-7 -0.43514,-0.67333 -0.63428,1.72224 -0.6096,7.33334 0.0232,5.26807 0.24739,7.84289 0.6096,7 0.31512,-0.73334 0.58944,-4.03334 0.6096,-7.33334 z m 14.05706,0.41815 v -4.58184 l -3.16666,-0.28689 c -1.74167,-0.15779 -4.59167,-0.16575 -6.33334,-0.0177 l -3.16666,0.2692 v 4.15509 c 0,2.2853 0.2,4.35509 0.44444,4.59954 0.24445,0.24444 3.09445,0.44444 6.33334,0.44444 h 5.88888 z m -6.66666,1.91519 c 0,-1.03704 -0.44445,-1.33334 -2,-1.33334 -1.1,0 -2,-0.3 -2,-0.66666 0,-0.36667 0.9,-0.66667 2,-0.66667 1.68889,0 2,-0.25926 2,-1.66667 0,-0.91666 0.3,-1.66666 0.66666,-1.66666 0.36667,0 0.66667,0.75 0.66667,1.66666 0,1.41455 0.30849,1.66667 2.03935,1.66667 1.1898,0 1.8677,0.27772 1.62732,0.66667 -0.22661,0.36666 -1.14432,0.66666 -2.03935,0.66666 -1.18287,0 -1.62732,0.36415 -1.62732,1.33334 0,0.73333 -0.3,1.33333 -0.66667,1.33333 -0.36666,0 -0.66666,-0.6 -0.66666,-1.33333 z m 7.98645,-10.64011 c 0.74078,-1.45206 1.34688,-2.80206 1.34688,-3 0,-0.19794 -3.9,-0.35989 -8.66667,-0.35989 -4.76666,0 -8.66666,0.14392 -8.66666,0.31984 0,0.17591 0.48257,1.52591 1.07238,3 l 1.07239,2.68016 h 6.2474 6.2474 z m 4.01355,8.30677 v -13 h 10.66666 10.66667 v 13 13 h -10.66667 -10.66666 z m 19.33333,11.35595 c 0,-0.17089 -0.50556,-1.37089 -1.12347,-2.66666 l -1.12348,-2.35595 h -6.53424 -6.53425 l -1.00895,2.41474 c -0.55492,1.32812 -1.00894,2.52812 -1.00894,2.66667 0,0.13856 3.9,0.25192 8.66666,0.25192 4.76667,0 8.66667,-0.13982 8.66667,-0.31072 z m -16.08079,-11.02261 c -0.0113,-2.38334 -0.425,-5.38334 -0.91921,-6.66667 -0.82701,-2.14754 -0.89829,-1.64322 -0.89513,6.33333 0.003,7.87719 0.0869,8.48448 0.91921,6.66667 0.50368,-1.1 0.90649,-3.95 0.89513,-6.33333 z m 16.72383,-0.5 c -0.0214,-7.70786 -0.11241,-8.34468 -0.97637,-6.83334 -1.17323,2.05234 -1.32544,11.223 -0.22633,13.6353 0.42553,0.93392 0.87553,1.69804 1,1.69804 0.12448,0 0.2157,-3.825 0.2027,-8.5 z m -3.30971,0.5 v -4.66667 h -6.33333 -6.33333 v 4.22222 c 0,2.32222 0.2,4.42222 0.44444,4.66667 0.24445,0.24444 3.09445,0.44444 6.33334,0.44444 h 5.88888 z m -6.66666,2 c 0,-1.03704 -0.44445,-1.33334 -2,-1.33334 -1.1,0 -2,-0.3 -2,-0.66666 0,-0.36667 0.9,-0.66667 2,-0.66667 1.68889,0 2,-0.25926 2,-1.66667 0,-0.91666 0.3,-1.66666 0.66666,-1.66666 0.36667,0 0.66667,0.75 0.66667,1.66666 0,1.41455 0.30849,1.66667 2.03935,1.66667 1.1898,0 1.8677,0.27772 1.62732,0.66667 -0.22661,0.36666 -1.14432,0.66666 -2.03935,0.66666 -1.18287,0 -1.62732,0.36415 -1.62732,1.33334 0,0.73333 -0.3,1.33333 -0.66667,1.33333 -0.36666,0 -0.66666,-0.6 -0.66666,-1.33333 z m 7.98645,-10.64011 c 0.74078,-1.45206 1.34688,-2.80206 1.34688,-3 0,-0.19794 -3.9,-0.35989 -8.66667,-0.35989 -4.76666,0 -8.66666,0.14392 -8.66666,0.31984 0,0.17591 0.48257,1.52591 1.07238,3 l 1.07239,2.68016 h 6.2474 6.2474 z m 4.01355,8.30677 v -13 h 10.66666 10.66667 v 13 13 h -10.66667 -10.66666 z m 19.33333,11.35595 c 0,-0.17089 -0.50556,-1.37089 -1.12347,-2.66666 l -1.12348,-2.35595 h -6.41972 -6.41971 l -1.12348,2.35595 c -0.61791,1.29577 -1.12347,2.49577 -1.12347,2.66666 0,0.1709 3.9,0.31072 8.66666,0.31072 4.76667,0 8.66667,-0.13982 8.66667,-0.31072 z m -16.06014,-11.35595 c 0,-2.56666 -0.4121,-5.56666 -0.91578,-6.66666 -0.8322,-1.81747 -0.91579,-1.20901 -0.91579,6.66666 0,7.87568 0.0836,8.48413 0.91579,6.66667 0.50368,-1.1 0.91578,-4.1 0.91578,-6.66667 z m 16.67266,-0.16666 c -0.0494,-7.75781 -0.13411,-8.32537 -0.96993,-6.5 -1.10947,2.423 -1.25293,10.00641 -0.24404,12.90051 0.40254,1.15472 0.85254,2.09949 1,2.09949 0.14747,0 0.24375,-3.825 0.21397,-8.5 z m -3.27919,0.5 v -4.66667 h -6 -6 v 4.66667 4.66666 h 6 6 z m -6.16666,3.61951 c -0.275,-0.27962 -0.5,-1.0584 -0.5,-1.73063 0,-0.91358 -0.50505,-1.22222 -2,-1.22222 -1.1,0 -2,-0.3 -2,-0.66666 0,-0.36667 0.9,-0.66667 2,-0.66667 1.68889,0 2,-0.25926 2,-1.66667 0,-0.91666 0.3,-1.66666 0.66666,-1.66666 0.36667,0 0.66667,0.75 0.66667,1.66666 0,1.41455 0.30849,1.66667 2.03935,1.66667 1.1898,0 1.8677,0.27772 1.62732,0.66667 -0.22661,0.36666 -1.12439,0.66666 -1.99506,0.66666 -1.20556,0 -1.63335,0.41268 -1.79399,1.73063 -0.11603,0.95184 -0.43595,1.50184 -0.71095,1.22222 z m 7.63016,-12.28618 c 0.62652,-1.28333 1.15354,-2.55833 1.17115,-2.83333 0.0176,-0.275 -3.86798,-0.5 -8.63465,-0.5 -4.76666,0 -8.66666,0.11336 -8.66666,0.25191 0,0.57888 1.92424,4.78965 2.40889,5.27132 0.28956,0.28779 3.239,0.43779 6.55431,0.33334 l 6.02784,-0.18991 z m 4.02211,8.5 0.18106,-12.83333 10.5,-0.1836 10.5,-0.1836 v 13.01693 13.01693 H 559.5467 548.86564 Z m 19.18106,11.24808 c 0,-0.13855 -0.45402,-1.33855 -1.00895,-2.66667 l -1.00894,-2.41474 h -6.65772 c -3.66175,0 -6.65772,0.11336 -6.65772,0.25191 0,0.13856 -0.45403,1.33856 -1.00895,2.66667 l -1.00895,2.41475 h 8.67562 c 4.77159,0 8.67561,-0.11336 8.67561,-0.25192 z m -16.04725,-11.41475 c 0,-3.40127 -0.34514,-5.9371 -0.95275,-7 -0.8625,-1.50879 -0.95275,-0.84572 -0.95275,7 0,7.84572 0.0902,8.50879 0.95275,7 0.60761,-1.0629 0.95275,-3.59872 0.95275,-7 z m 16.6632,-0.16666 c -0.0469,-7.86737 -0.1176,-8.32634 -0.94928,-6.16667 -1.10709,2.87481 -1.25356,9.74034 -0.26812,12.56718 0.40254,1.15472 0.85254,2.09949 1,2.09949 0.14747,0 0.24529,-3.825 0.2174,-8.5 z m -3.28262,0.5 v -4.66667 h -6 -6 v 4.66667 4.66666 h 6 6 z m -6.16666,3.61951 c -0.275,-0.27962 -0.5,-1.0584 -0.5,-1.73063 0,-0.91358 -0.50505,-1.22222 -2,-1.22222 -1.1,0 -2,-0.3 -2,-0.66666 0,-0.36667 0.9,-0.66667 2,-0.66667 1.68889,0 2,-0.25926 2,-1.66667 0,-0.91666 0.3,-1.66666 0.66666,-1.66666 0.36667,0 0.66667,0.75 0.66667,1.66666 0,1.40741 0.31111,1.66667 2,1.66667 1.1,0 2,0.3 2,0.66667 0,0.36666 -0.88007,0.66666 -1.95572,0.66666 -1.60675,0 -1.99336,0.3088 -2.16666,1.73063 -0.11603,0.95184 -0.43595,1.50184 -0.71095,1.22222 z m 7.08188,-11.11951 c 0.52027,-0.825 1.14741,-2.175 1.39363,-3 l 0.44767,-1.5 h -8.71159 c -4.79138,0 -8.71159,0.16195 -8.71159,0.35989 0,0.19794 0.6061,1.54794 1.34688,3 l 1.34688,2.64011 h 5.97109 c 5.4675,0 6.05086,-0.12651 6.91703,-1.5 z m 4.57039,7.33333 0.18106,-12.83333 10.5,-0.1836 10.5,-0.1836 v 13.01693 13.01693 H 581.5467 570.86564 Z m 19.18106,11.14525 c 0,-0.19511 -0.43469,-1.39511 -0.96598,-2.66666 l -0.96598,-2.31192 h -6.59956 -6.59956 l -1.04749,2.66666 -1.0475,2.66667 h 8.61304 c 4.73717,0 8.61303,-0.15964 8.61303,-0.35475 z M 574.12443,125.2962 c 0.1722,-4.40753 -0.0305,-6.36813 -0.80664,-7.80077 -0.98379,-1.81601 -1.03801,-1.47342 -1.06334,6.71976 -0.0213,6.90627 0.14002,8.46678 0.80664,7.80076 0.49968,-0.49921 0.92543,-3.18976 1.06334,-6.71975 z m 16.75979,-0.88101 c -0.007,-5.51909 -0.21972,-7.84247 -0.65646,-7.16667 -1.09354,1.69214 -0.72782,15.33334 0.41109,15.33334 0.14057,0 0.25098,-3.675 0.24537,-8.16667 z m -2.79267,0 0.19713,-4.5 h -6.36379 -6.3638 v 4.69168 4.69169 l 6.16667,-0.19169 6.16667,-0.19168 z m -6.69712,3.78618 c -0.275,-0.27962 -0.5,-1.0584 -0.5,-1.73063 0,-0.91358 -0.50505,-1.22222 -2,-1.22222 -1.1,0 -2,-0.3 -2,-0.66666 0,-0.36667 0.9,-0.66667 2,-0.66667 1.68889,0 2,-0.25926 2,-1.66667 0,-2.07402 1.16379,-2.20746 1.45363,-0.16666 0.15253,1.074 0.7337,1.5599 2.04637,1.71094 2.45077,0.282 2.35209,1.45572 -0.12239,1.45572 -1.60675,0 -1.99336,0.3088 -2.16666,1.73063 -0.11603,0.95184 -0.43595,1.50184 -0.71095,1.22222 z m 7.8364,-12.29298 c 0.66306,-1.4704 1.04935,-2.82967 0.85843,-3.02059 -0.19092,-0.19092 -4.12387,-0.26287 -8.73988,-0.15987 l -8.39275,0.18726 1.26964,2.83333 1.26964,2.83334 h 6.26467 6.26468 z m 4.31439,21.02373 c -0.009,-0.19265 -0.023,-5.97526 -0.0317,-12.85026 l -0.0159,-12.5 h 10.39683 10.39682 l 6.7e-4,12.66666 6.6e-4,12.66667 -10.36574,0.18359 c -5.70116,0.10098 -10.37289,0.026 -10.38162,-0.16666 z m 18.68254,-1.7167 c 0,-0.38488 -0.4577,-1.58488 -1.01712,-2.66667 l -1.01712,-1.96689 -6.48288,0.007 -6.48288,0.007 -1.11716,2.65988 -1.11716,2.65989 h 8.61716 c 5.57212,0 8.61716,-0.24728 8.61716,-0.69977 z m -16.05706,-10.9669 c 0.0202,-2.93333 -0.25417,-5.78333 -0.60961,-6.33333 -0.43671,-0.67576 -0.63436,1.48583 -0.6096,6.66667 0.0234,4.89578 0.24373,7.18477 0.6096,6.33333 0.31513,-0.73333 0.58945,-3.73333 0.60961,-6.66667 z m 16.71352,-0.16666 c -0.007,-5.30387 -0.21889,-7.51043 -0.65646,-6.83334 -1.13037,1.74913 -0.77397,14.66667 0.40466,14.66667 0.1441,0 0.25741,-3.525 0.2518,-7.83333 z m -2.79267,0.33333 0.19713,-4.5 h -6.36379 -6.3638 v 4.69168 4.69169 l 6.16667,-0.19169 6.16667,-0.19168 z m -6.43057,2.66667 c -0.0851,-1.56178 -0.3903,-1.83334 -2.06054,-1.83334 -2.73033,0 -3.20685,-1.20062 -0.5782,-1.45681 1.65285,-0.1611 2.25174,-0.5971 2.57755,-1.87652 l 0.42443,-1.66667 0.26844,1.66667 c 0.1996,1.23931 0.73853,1.72076 2.10177,1.87761 2.45077,0.282 2.35209,1.45572 -0.12239,1.45572 -1.62174,0 -2.00314,0.31308 -2.23344,1.83334 l -0.27773,1.83333 z m 7.75861,-11.5 1.45751,-3 h -8.95732 -8.95732 l 1.03771,2.5 c 0.57074,1.375 1.17314,2.725 1.33866,3 0.16553,0.275 3.07347,0.5 6.4621,0.5 h 6.16114 z m 4.1415,8.66666 v -13.03386 l 10.36575,0.1836 10.36574,0.1836 v 12.66666 12.66667 l -10.36574,0.18359 -10.36575,0.1836 z m 18,9 -1.36043,-2.66666 h -6.51919 -6.51919 l -0.80059,2.21399 c -0.44033,1.2177 -0.8006,2.4177 -0.8006,2.66667 0,0.24897 3.9061,0.45267 8.68022,0.45267 h 8.68022 z m 1.9788,-8.83333 c -0.019,-7.91261 -0.12322,-8.69845 -1,-7.53925 -1.71867,2.27229 -1.03411,16.37258 0.79488,16.37258 0.12448,0 0.21678,-3.975 0.20512,-8.83333 z m -17.36919,0.16667 c -0.0202,-3.11667 -0.29448,-6.26667 -0.60961,-7 -0.36396,-0.84699 -0.58632,1.58472 -0.6096,6.66666 -0.0247,5.39597 0.17371,7.6745 0.6096,7 0.35544,-0.55 0.62976,-3.55 0.60961,-6.66666 z m 14.05706,0 v -4.66667 h -6.33333 -6.33334 v 4.66667 4.66666 h 6.33334 6.33333 z m -6.66667,2.37267 c 0,-1.44351 -0.30167,-1.70601 -1.96065,-1.70601 -2.74509,0 -3.20046,-1.20179 -0.552,-1.45681 1.67818,-0.1616 2.22861,-0.55706 2.39365,-1.71974 0.25293,-1.78183 1.45234,-1.32825 1.45234,0.54923 0,0.93581 0.46133,1.29399 1.66666,1.29399 0.91667,0 1.66667,0.3 1.66667,0.66667 0,0.36666 -0.75,0.66666 -1.66667,0.66666 -1.20533,0 -1.66666,0.35818 -1.66666,1.29399 0,0.71169 -0.3,1.4794 -0.66667,1.70601 -0.3781,0.23368 -0.66667,-0.32641 -0.66667,-1.29399 z m 8.00128,-11.53934 1.26687,-2.83333 h -8.99086 c -8.67989,0 -8.96701,0.0446 -8.3013,1.28845 0.37926,0.70865 0.98653,2.06956 1.3495,3.02423 0.65505,1.72293 0.70711,1.73436 7.03443,1.54488 l 6.37449,-0.1909 z m 3.99872,8.8164 v -13.01693 l 10.5,0.1836 10.5,0.1836 0.18107,12.83333 0.18106,12.83333 h -10.68106 -10.68107 z m 18.11716,9.02371 -1.11716,-2.65988 -6.48287,-0.007 -6.48288,-0.007 -1.01712,1.96689 c -0.55942,1.08179 -1.01713,2.28179 -1.01713,2.66667 0,0.45249 3.04505,0.69977 8.61716,0.69977 h 8.61716 z m 1.88284,-9.14011 c 0,-6.77274 -0.16672,-8.30017 -0.83333,-7.63444 -1.78501,1.78264 -1.31951,16.10111 0.52346,16.10111 0.17043,0 0.30987,-3.81 0.30987,-8.46667 z m -17.35375,0.13333 c 0,-3.3 -0.29081,-6.45 -0.64625,-7 -0.43687,-0.67601 -0.64624,1.59188 -0.64624,7 0,5.40812 0.20937,7.67602 0.64624,7 0.35544,-0.55 0.64625,-3.7 0.64625,-7 z m 14.02042,0.33334 v -4.66667 h -6.33333 -6.33334 v 4.66667 4.66666 h 6.33334 6.33333 z m -6.66667,2.37267 c 0,-1.44351 -0.30167,-1.70601 -1.96065,-1.70601 -1.07836,0 -2.14607,-0.3 -2.37268,-0.66666 -0.2452,-0.39675 0.54863,-0.66667 1.96066,-0.66667 2.08641,0 2.37267,-0.20109 2.37267,-1.66667 0,-0.91666 0.3,-1.66666 0.66667,-1.66666 0.36667,0 0.66667,0.75 0.66667,1.66666 0,1.33334 0.33333,1.66667 1.66666,1.66667 0.91667,0 1.66667,0.3 1.66667,0.66667 0,0.36666 -0.75,0.66666 -1.66667,0.66666 -1.20533,0 -1.66666,0.35818 -1.66666,1.29399 0,0.71169 -0.3,1.4794 -0.66667,1.70601 -0.3781,0.23368 -0.66667,-0.32641 -0.66667,-1.29399 z m 7.30932,-9.66113 c 0.37926,-0.70865 0.98239,-2.05865 1.34029,-3 l 0.65073,-1.71154 h -8.65017 c -4.75759,0 -8.65017,0.26336 -8.65017,0.58525 0,0.32188 0.45403,1.67188 1.00895,3 l 1.00895,2.41475 h 6.30093 c 5.54547,0 6.38361,-0.15449 6.99049,-1.28846 z m 4.69068,6.95512 v -13 h 10.66667 10.66667 v 13 13 h -10.66667 -10.66667 z m 18.17858,9 -1.0475,-2.66666 h -6.59955 -6.59956 l -0.96598,2.31192 c -0.53129,1.27155 -0.96599,2.47155 -0.96599,2.66666 0,0.19511 3.87587,0.35475 8.61304,0.35475 h 8.61304 z m 1.7978,-8.83333 c -0.0214,-7.99686 -0.11384,-8.67551 -0.97638,-7.16667 -1.15373,2.01825 -1.32447,10.87025 -0.26811,13.90052 0.40253,1.15472 0.85253,2.09948 1,2.09948 0.14746,0 0.25748,-3.975 0.24449,-8.83333 z m -17.36677,-0.16667 c 0.0202,-3.3 -0.25417,-6.45 -0.60961,-7 -0.43514,-0.67333 -0.63427,1.72224 -0.6096,7.33334 0.0232,5.26807 0.2474,7.84289 0.6096,7 0.31513,-0.73334 0.58945,-4.03334 0.60961,-7.33334 z m 14.05706,0.33334 v -4.66667 h -6.33333 -6.33334 v 4.22222 c 0,2.32222 0.2,4.42222 0.44445,4.66667 0.24444,0.24444 3.09444,0.44444 6.33333,0.44444 h 5.88889 z m -6.66667,2.37267 c 0,-1.45112 -0.29881,-1.70601 -2,-1.70601 -1.1,0 -2,-0.3 -2,-0.66666 0,-0.36667 0.9,-0.66667 2,-0.66667 1.68889,0 2,-0.25926 2,-1.66667 0,-0.91666 0.3,-1.66666 0.66667,-1.66666 0.36667,0 0.66667,0.75 0.66667,1.66666 0,1.41455 0.30849,1.66667 2.03934,1.66667 1.1898,0 1.86771,0.27772 1.62732,0.66667 -0.22661,0.36666 -1.14431,0.66666 -2.03934,0.66666 -1.16638,0 -1.62732,0.36652 -1.62732,1.29399 0,0.71169 -0.3,1.4794 -0.66667,1.70601 -0.3781,0.23368 -0.66667,-0.32641 -0.66667,-1.29399 z m 7.98646,-11.01278 c 0.74078,-1.45206 1.34688,-2.80206 1.34688,-3 0,-0.19794 -3.9,-0.35989 -8.66667,-0.35989 -5.13043,0 -8.66667,0.26278 -8.66667,0.64404 0,0.35423 0.50557,1.70423 1.12348,3 l 1.12347,2.35596 h 6.19631 6.19631 z m 4.01354,8.30677 v -13 h 10.66667 10.66667 v 13 13 h -10.66667 -10.66667 z m 19.33334,11.35595 c 0,-0.17089 -0.50557,-1.37089 -1.12348,-2.66666 l -1.12347,-2.35595 h -6.53425 -6.53424 l -1.00895,2.41474 c -0.55492,1.32812 -1.00895,2.52812 -1.00895,2.66667 0,0.13856 3.9,0.25192 8.66667,0.25192 4.76667,0 8.66667,-0.13982 8.66667,-0.31072 z m 0.64304,-11.18928 c -0.0214,-7.99686 -0.11384,-8.67551 -0.97638,-7.16667 -1.18594,2.07459 -1.31088,10.71228 -0.1994,13.786 0.44032,1.2177 0.89032,2.214 1,2.214 0.10967,0 0.18877,-3.975 0.17578,-8.83333 z m -16.72383,0.16667 c -0.0114,-2.38334 -0.425,-5.38334 -0.91921,-6.66667 -0.82701,-2.14754 -0.89829,-1.64322 -0.89514,6.33333 0.003,7.87719 0.0869,8.48448 0.91921,6.66667 0.50369,-1.1 0.9065,-3.95 0.89514,-6.33333 z m 13.41412,0 v -4.66667 h -6.33333 -6.33334 v 4.22222 c 0,2.32222 0.2,4.42222 0.44445,4.66667 0.24444,0.24444 3.09444,0.44444 6.33333,0.44444 h 5.88889 z m -6.66667,2 c 0,-1.03704 -0.44444,-1.33334 -2,-1.33334 -1.1,0 -2,-0.3 -2,-0.66666 0,-0.36667 0.9,-0.66667 2,-0.66667 1.68889,0 2,-0.25926 2,-1.66667 0,-0.91666 0.3,-1.66666 0.66667,-1.66666 0.36667,0 0.66667,0.75 0.66667,1.66666 0,1.41455 0.30849,1.66667 2.03934,1.66667 1.1898,0 1.86771,0.27772 1.62732,0.66667 -0.22661,0.36666 -1.14431,0.66666 -2.03934,0.66666 -1.18288,0 -1.62732,0.36415 -1.62732,1.33334 0,0.73333 -0.3,1.33333 -0.66667,1.33333 -0.36667,0 -0.66667,-0.6 -0.66667,-1.33333 z m 7.98646,-10.64011 c 0.74078,-1.45206 1.34688,-2.80206 1.34688,-3 0,-0.19794 -3.9,-0.35989 -8.66667,-0.35989 -4.76667,0 -8.66667,0.14392 -8.66667,0.31984 0,0.17591 0.48258,1.52591 1.07239,3 l 1.07239,2.68016 h 6.2474 6.24739 z m 4.01354,8.30677 v -13 h 10.66667 10.66667 v 13 13 h -10.66667 -10.66667 z m 19.33334,11.35595 c 0,-0.17089 -0.50557,-1.37089 -1.12348,-2.66666 l -1.12347,-2.35595 h -6.41972 -6.41972 l -1.12347,2.35595 c -0.61791,1.29577 -1.12348,2.49577 -1.12348,2.66666 0,0.1709 3.9,0.31072 8.66667,0.31072 4.76667,0 8.66667,-0.13982 8.66667,-0.31072 z m -16.06014,-11.35595 c 0,-2.56666 -0.4121,-5.56666 -0.91579,-6.66666 -0.8322,-1.81747 -0.91578,-1.20901 -0.91578,6.66666 0,7.87568 0.0836,8.48413 0.91578,6.66667 0.50369,-1.1 0.91579,-4.1 0.91579,-6.66667 z m 16.67266,-0.16666 c -0.0494,-7.75781 -0.13411,-8.32537 -0.96993,-6.5 -1.12604,2.45916 -1.25574,10.9898 -0.20225,13.30196 0.42552,0.93392 0.87552,1.69804 1,1.69804 0.12448,0 0.20196,-3.825 0.17218,-8.5 z m -3.27919,0.5 v -4.66667 h -6 -6 v 4.66667 4.66666 h 6 6 z m -6.66667,2 c 0,-1.03704 -0.44444,-1.33334 -2,-1.33334 -1.1,0 -2,-0.3 -2,-0.66666 0,-0.36667 0.9,-0.66667 2,-0.66667 1.68889,0 2,-0.25926 2,-1.66667 0,-0.91666 0.3,-1.66666 0.66667,-1.66666 0.36667,0 0.66667,0.75 0.66667,1.66666 0,1.41455 0.30849,1.66667 2.03934,1.66667 1.1898,0 1.86771,0.27772 1.62732,0.66667 -0.22661,0.36666 -1.14431,0.66666 -2.03934,0.66666 -1.18288,0 -1.62732,0.36415 -1.62732,1.33334 0,0.73333 -0.3,1.33333 -0.66667,1.33333 -0.36667,0 -0.66667,-0.6 -0.66667,-1.33333 z m 8.13017,-10.66667 c 0.62652,-1.28333 1.15354,-2.55833 1.17115,-2.83333 0.0176,-0.275 -3.86798,-0.5 -8.63465,-0.5 -4.76667,0 -8.66667,0.11336 -8.66667,0.25191 0,0.57888 1.92424,4.78965 2.4089,5.27132 0.28956,0.28779 3.239,0.43779 6.55431,0.33334 l 6.02783,-0.18991 z m 3.86983,8.33333 v -13 h 10.66667 10.66667 l 0.1242,5.83334 0.1242,5.83333 0.3758,-5.66667 0.3758,-5.66666 10.5,-0.1836 10.5,-0.1836 v 13.01693 13.01693 h -10.64071 -10.64071 l -0.2222,-5.83333 -0.2222,-5.83333 -0.13709,5.83333 -0.13709,5.83333 h -10.66667 -10.66667 z m 19.33334,11.41475 c 0,-0.13855 -0.45403,-1.33855 -1.00895,-2.66667 l -1.00895,-2.41474 h -6.65772 c -3.66174,0 -6.65772,0.11336 -6.65772,0.25191 0,0.13856 -0.45402,1.33856 -1.00894,2.66667 l -1.00895,2.41475 h 8.67561 c 4.77159,0 8.67562,-0.11336 8.67562,-0.25192 z m 22,-0.10283 c 0,-0.19511 -0.43469,-1.39511 -0.96598,-2.66666 l -0.96599,-2.31192 h -6.62935 c -6.96943,0 -7.43868,0.21021 -7.43868,3.3323 0,0.67279 -0.375,1.37457 -0.83334,1.55951 -0.45833,0.18494 3.14167,0.35994 8,0.38889 4.85834,0.0289 8.83334,-0.10701 8.83334,-0.30212 z m -38.03007,-11.22179 c -0.0165,-2.61624 -0.44217,-5.65679 -0.94586,-6.75679 -0.83141,-1.81574 -0.91836,-1.1708 -0.94383,7 -0.0264,8.45945 0.0304,8.86527 0.94585,6.75679 0.56697,-1.30591 0.96134,-4.23078 0.94384,-7 z m 16.3506,-6.32516 c -1.62179,-1.62178 -2.28842,8.64381 -0.82053,12.63555 0.7673,2.08659 0.8484,1.69135 1.02344,-4.98819 0.10456,-3.98988 0.0132,-7.43119 -0.20291,-7.64736 z m 4.34613,14.23503 c 0,-0.18333 -0.15,-0.33333 -0.33333,-0.33333 -0.18333,0 -0.33333,0.15 -0.33333,0.33333 0,0.18334 0.15,0.33334 0.33333,0.33334 0.18333,0 0.33333,-0.15 0.33333,-0.33334 z m 17.94586,-7.83333 c -0.0496,-7.47482 -0.13173,-7.99724 -0.96993,-6.16667 -1.14242,2.49495 -1.2391,9.17755 -0.17533,12.11934 0.44032,1.2177 0.89032,2.214 1,2.214 0.10967,0 0.17504,-3.675 0.14526,-8.16667 z m -16.63615,-0.0393 c -0.015,-3.47179 -0.37063,-6.06768 -0.97637,-7.12732 -0.87936,-1.53827 -0.95387,-1.20444 -0.96728,4.33334 -0.008,3.3 0.1655,6.67162 0.38551,7.4925 0.80058,2.98701 1.58121,0.63307 1.55814,-4.69852 z m -8.64304,0.20602 v -4.66667 h -6 -6 v 4.66667 4.66666 h 6 6 z m -6.16667,3.61951 c -0.275,-0.27962 -0.5,-1.0584 -0.5,-1.73063 0,-0.91358 -0.50505,-1.22222 -2,-1.22222 -1.1,0 -2,-0.3 -2,-0.66666 0,-0.36667 0.9,-0.66667 2,-0.66667 1.68889,0 2,-0.25926 2,-1.66667 0,-0.91666 0.3,-1.66666 0.66667,-1.66666 0.36667,0 0.66667,0.75 0.66667,1.66666 0,1.41455 0.30849,1.66667 2.03934,1.66667 1.1898,0 1.86771,0.27772 1.62732,0.66667 -0.22661,0.36666 -1.12439,0.66666 -1.99506,0.66666 -1.20556,0 -1.63334,0.41268 -1.79399,1.73063 -0.11602,0.95184 -0.43595,1.50184 -0.71095,1.22222 z m 28.69713,-3.78618 0.19713,-4.5 h -6.3638 -6.36379 v 4.69168 4.69169 l 6.16667,-0.19169 6.16666,-0.19168 z m -6.69713,3.78618 c -0.275,-0.27962 -0.5,-1.0584 -0.5,-1.73063 0,-0.91358 -0.50505,-1.22222 -2,-1.22222 -1.1,0 -2,-0.3 -2,-0.66666 0,-0.36667 0.9,-0.66667 2,-0.66667 1.68889,0 2,-0.25926 2,-1.66667 0,-2.07402 1.1638,-2.20746 1.45364,-0.16666 0.15253,1.074 0.73369,1.5599 2.04636,1.71094 2.45078,0.282 2.3521,1.45572 -0.12238,1.45572 -1.60676,0 -1.99336,0.3088 -2.16667,1.73063 -0.11602,0.95184 -0.43595,1.50184 -0.71095,1.22222 z m -15.22028,-10.5549 c 0.42696,-0.51447 1.04275,-1.86447 1.36842,-3 l 0.59212,-2.06461 h -8.62013 c -4.74107,0 -8.62013,0.16195 -8.62013,0.35989 0,0.19794 0.6061,1.54794 1.34689,3 l 1.34688,2.64011 h 5.90482 c 4.25415,0 6.12183,-0.26149 6.68113,-0.93539 z m 23.05668,-1.73808 c 0.66306,-1.4704 1.04936,-2.82967 0.85844,-3.02059 -0.19093,-0.19092 -4.12387,-0.26287 -8.73988,-0.15987 l -8.39275,0.18726 1.26963,2.83333 1.26964,2.83334 h 6.26468 6.26468 z M 218.20197,93.081853 c -0.0142,-0.0917 -0.039,-5.86666 -0.0551,-12.83333 l -0.0293,-12.66667 10.38847,-0.18359 10.38848,-0.1836 v 13.01693 13.01693 h -10.33334 c -5.68333,0 -10.34493,-0.075 -10.35912,-0.16667 z m 17.8734,-4.18907 -1.4684,-3.02241 -6.29389,0.18908 -6.29389,0.18907 -1.20171,2.83333 -1.20171,2.83334 h 8.964 8.964 z m -15.28427,-9.69194 c -0.13127,-3.35992 -0.57067,-6.22752 -1.02358,-6.67999 -0.61361,-0.61302 -0.79252,1.15597 -0.78895,7.80076 0.004,8.10137 0.063,8.48397 1.02358,6.68 0.75446,-1.41687 0.95925,-3.44173 0.78895,-7.80077 z m 16.75979,0.88101 c -0.007,-5.30386 -0.21889,-7.51042 -0.65646,-6.83333 -1.13037,1.74912 -0.77397,14.66667 0.40466,14.66667 0.1441,0 0.25741,-3.525 0.2518,-7.83334 z m -2.79267,0 -0.19713,-4.5 -6.16666,-0.19168 -6.16667,-0.19168 v 4.69168 4.69168 h 6.36379 6.3638 z m -7.19713,2.16667 c 0,-1.41455 -0.30848,-1.66667 -2.03934,-1.66667 -1.1898,0 -1.86771,-0.27771 -1.62732,-0.66666 0.22661,-0.36667 1.14432,-0.66667 2.03934,-0.66667 1.18288,0 1.62732,-0.36415 1.62732,-1.33333 0,-0.73334 0.3,-1.33334 0.66667,-1.33334 0.36667,0 0.66667,0.6 0.66667,1.33334 0,1.03703 0.44444,1.33333 2,1.33333 2.50736,0 2.64143,1.17097 0.16666,1.45572 -1.31267,0.15104 -1.89383,0.63694 -2.04636,1.71095 -0.28984,2.04079 -1.45364,1.90736 -1.45364,-0.16667 z m 8.31622,-10.30023 c 0.55941,-1.08179 1.01712,-2.28179 1.01712,-2.66666 0,-0.45248 -3.0438,-0.69978 -8.61304,-0.69978 h -8.61303 l 1.04749,2.66667 1.0475,2.66667 h 6.54842 6.54842 z m 4.33458,20.98383 c -0.009,-0.19265 -0.023,-5.97527 -0.0318,-12.85027 l -0.0159,-12.5 h 10.39682 10.39683 l 6.7e-4,12.66667 6.6e-4,12.66667 -10.36574,0.18359 c -5.70116,0.10098 -10.37289,0.026 -10.38162,-0.16666 z m 18.01549,-3.85027 -1.26852,-2.83333 h -6.46822 -6.46823 l -1.20332,2.83333 -1.20332,2.83334 h 8.94007 8.94007 z m -15.39002,-9.16666 c 0.0202,-3.11667 -0.25416,-6.11667 -0.6096,-6.66667 -0.43589,-0.6745 -0.63432,1.60404 -0.6096,7 0.0233,5.08194 0.24564,7.51366 0.6096,6.66667 0.31513,-0.73334 0.58945,-3.88334 0.6096,-7 z m 16.71353,0.16666 c -0.007,-5.30386 -0.21889,-7.51042 -0.65646,-6.83333 -1.13037,1.74912 -0.77397,14.66667 0.40466,14.66667 0.1441,0 0.25741,-3.525 0.2518,-7.83334 z m -2.65646,-0.16666 v -4.66667 h -6.33334 -6.33333 v 4.66667 4.66666 h 6.33333 6.33334 z m -6.78697,2.5 c -0.16358,-1.15181 -0.71891,-1.54871 -2.39235,-1.70985 -2.64847,-0.25503 -2.1931,-1.45682 0.552,-1.45682 1.51621,0 1.96065,-0.30224 1.96065,-1.33333 0,-0.73334 0.3,-1.33334 0.66667,-1.33334 0.36666,0 0.66666,0.6 0.66666,1.33334 0,0.97777 0.44445,1.33333 1.66667,1.33333 0.91667,0 1.66667,0.3 1.66667,0.66667 0,0.36666 -0.75,0.66666 -1.66667,0.66666 -1.33333,0 -1.66667,0.33334 -1.66667,1.66667 0,2.07403 -1.16379,2.20746 -1.45363,0.16667 z m 8.1203,-11.16667 1.36043,-2.66667 h -8.96404 -8.96404 l 1.11716,2.65989 1.11716,2.65989 6.48645,0.007 6.48645,0.007 z m 4,9.01693 v -13.01693 h 10.68106 10.68107 l -0.18107,12.83333 -0.18106,12.83334 -10.5,0.18359 -10.5,0.1836 z m 18.07695,8.8164 -1.20171,-2.83333 -6.41868,-0.19058 -6.41868,-0.19058 -1.01894,2.43866 c -0.56042,1.34127 -1.01894,2.70203 -1.01894,3.02392 0,0.32188 3.8877,0.58525 8.63933,0.58525 h 8.63933 z m 1.90185,-9 c -0.019,-7.6195 -0.12259,-8.36595 -1,-7.20591 -1.6704,2.20846 -1.09343,15.70591 0.67137,15.70591 0.19241,0 0.34029,-3.825 0.32863,-8.5 z m -17.33255,0.16667 c 0,-3.3 -0.29081,-6.45 -0.64625,-7 -0.43687,-0.67601 -0.64625,1.59188 -0.64625,7 0,5.40812 0.20938,7.67602 0.64625,7 0.35544,-0.55 0.64625,-3.7 0.64625,-7 z m 14.02042,-0.33333 v -4.66667 h -6.33334 -6.33333 v 4.66667 4.66666 h 6.33333 6.33334 z m -6.78697,2.5 c -0.16358,-1.15181 -0.71891,-1.54871 -2.39235,-1.70985 -2.64847,-0.25503 -2.1931,-1.45682 0.552,-1.45682 1.51621,0 1.96065,-0.30224 1.96065,-1.33333 0,-0.73334 0.3,-1.33334 0.66667,-1.33334 0.36666,0 0.66666,0.6 0.66666,1.33334 0,0.97777 0.44445,1.33333 1.66667,1.33333 0.91667,0 1.66667,0.3 1.66667,0.66667 0,0.36666 -0.75,0.66666 -1.66667,0.66666 -1.33333,0 -1.66667,0.33334 -1.66667,1.66667 0,2.07403 -1.16379,2.20746 -1.45363,0.16667 z m 8.23746,-11.17345 1.11716,-2.65989 h -8.61716 c -5.57212,0 -8.61716,0.24728 -8.61716,0.69978 0,0.38487 0.45771,1.58487 1.01712,2.66666 l 1.01712,1.9669 6.48288,-0.007 6.48288,-0.007 z m 3.88284,9.00678 v -13 h 10.66667 10.66666 v 13 13 h -10.66666 -10.66667 z m 18.64961,9.95512 c -1.65298,-4.34764 -1.53958,-4.28845 -8.21626,-4.28845 h -6.1864 l -1.12347,2.35595 c -0.61791,1.29577 -1.12348,2.64577 -1.12348,3 0,0.38119 3.53035,0.64405 8.65017,0.64405 h 8.65016 z m 1.35039,-10.08845 c 0,-6.77317 -0.16668,-8.30005 -0.83333,-7.63364 -1.75679,1.75614 -1.23927,16.1003 0.58088,16.1003 0.13885,0 0.25245,-3.81 0.25245,-8.46666 z m -17.35375,0.13333 c 0,-3.3 -0.29081,-6.45 -0.64625,-7 -0.43687,-0.67601 -0.64625,1.59188 -0.64625,7 0,5.40812 0.20938,7.67602 0.64625,7 0.35544,-0.55 0.64625,-3.7 0.64625,-7 z m 14.02042,-0.35835 v -4.69168 l -6.16667,0.19168 -6.16667,0.19168 -0.19712,4.5 -0.19713,4.5 h 6.36379 6.3638 z m -6.66667,2.35835 c 0,-1.46558 -0.28626,-1.66667 -2.37268,-1.66667 -1.41202,0 -2.20585,-0.26992 -1.96065,-0.66666 0.22661,-0.36667 1.29432,-0.66667 2.37268,-0.66667 1.51621,0 1.96065,-0.30224 1.96065,-1.33333 0,-0.73334 0.3,-1.33334 0.66667,-1.33334 0.36666,0 0.66666,0.6 0.66666,1.33334 0,0.96918 0.44445,1.33333 1.62733,1.33333 0.89502,0 1.81273,0.3 2.03934,0.66667 0.24039,0.38895 -0.43752,0.66666 -1.62732,0.66666 -1.73086,0 -2.03935,0.25212 -2.03935,1.66667 0,0.91667 -0.3,1.66667 -0.66666,1.66667 -0.36667,0 -0.66667,-0.75 -0.66667,-1.66667 z m 8.17858,-11 1.04749,-2.66667 h -8.61303 c -4.73717,0 -8.61304,0.15964 -8.61304,0.35475 0,0.19511 0.43469,1.39511 0.96598,2.66667 l 0.96599,2.31192 h 6.59955 6.59956 z m 3.82142,9 v -13 h 10.66667 10.66666 v 13 13 h -10.66666 -10.66667 z m 19.33333,11.30678 c 0,-0.19795 -0.60609,-1.54795 -1.34688,-3 l -1.34688,-2.64011 h -6.2474 -6.2474 l -1.07238,2.68016 c -0.58981,1.47408 -1.07239,2.82408 -1.07239,3 0,0.17591 3.9,0.31984 8.66667,0.31984 4.76666,0 8.66666,-0.16195 8.66666,-0.35989 z m -16.76038,-11.30678 c 0,-3.3 -0.25782,-6.6 -0.57295,-7.33333 -0.35849,-0.83425 -0.57295,1.91075 -0.57295,7.33333 0,5.42258 0.21446,8.16758 0.57295,7.33333 0.31513,-0.73333 0.57295,-4.03333 0.57295,-7.33333 z m 17.40096,-0.5 c -0.0246,-8.33741 -0.0808,-8.70739 -1,-6.59013 -1.17173,2.69886 -1.29746,11.31727 -0.20023,13.72543 0.42552,0.93392 0.87552,1.69803 1,1.69803 0.12448,0 0.21458,-3.975 0.20023,-8.83333 z m -3.30724,0.14165 v -4.69168 l -6.16667,0.19168 -6.16667,0.19168 -0.19712,4.5 -0.19713,4.5 h 6.36379 6.3638 z m -6.66667,2.35835 c 0,-1.40741 -0.31111,-1.66667 -2,-1.66667 -1.1,0 -2,-0.3 -2,-0.66666 0,-0.36667 0.9,-0.66667 2,-0.66667 1.55556,0 2,-0.2963 2,-1.33333 0,-0.73334 0.3,-1.33334 0.66667,-1.33334 0.36666,0 0.66666,0.6 0.66666,1.33334 0,0.96918 0.44445,1.33333 1.62733,1.33333 0.89502,0 1.81273,0.3 2.03934,0.66667 0.24039,0.38895 -0.43752,0.66666 -1.62732,0.66666 -1.73086,0 -2.03935,0.25212 -2.03935,1.66667 0,0.91667 -0.3,1.66667 -0.66666,1.66667 -0.36667,0 -0.66667,-0.75 -0.66667,-1.66667 z m 8.18894,-10.83333 0.99822,-2.5 -8.35076,-0.18726 c -4.59292,-0.103 -8.46397,-0.0741 -8.60233,0.0643 -0.13837,0.13836 0.20639,1.34763 0.76613,2.68726 l 1.01769,2.43569 h 6.58642 6.58642 z m 3.81106,8.83333 v -13 h 10.66667 10.66666 v 13 13 h -10.66666 -10.66667 z m 19.33333,11.30678 c 0,-0.19795 -0.61176,-1.55905 -1.35946,-3.02468 l -1.35947,-2.66478 -6.13605,0.19134 -6.13605,0.19134 -1.13913,2.33333 c -0.62652,1.28334 -1.15354,2.55834 -1.17115,2.83334 -0.0176,0.275 3.86798,0.5 8.63465,0.5 4.76666,0 8.66666,-0.16195 8.66666,-0.35989 z m -16.06013,-11.30678 c 0,-2.56667 -0.41211,-5.56667 -0.91579,-6.66667 -0.8322,-1.81746 -0.91578,-1.209 -0.91578,6.66667 0,7.87568 0.0836,8.48413 0.91578,6.66667 0.50368,-1.1 0.91579,-4.1 0.91579,-6.66667 z m 16.70318,-0.16667 c -0.0214,-7.70785 -0.11242,-8.34467 -0.97638,-6.83333 -1.17322,2.05234 -1.32544,11.223 -0.22632,13.6353 0.42552,0.93392 0.87552,1.69803 1,1.69803 0.12448,0 0.21569,-3.825 0.2027,-8.5 z m -3.30971,-0.19168 v -4.69168 l -6.16667,0.19168 -6.16667,0.19168 -0.19712,4.5 -0.19713,4.5 h 6.36379 6.3638 z m -6.66667,2.35835 c 0,-1.40741 -0.31111,-1.66667 -2,-1.66667 -1.1,0 -2,-0.3 -2,-0.66666 0,-0.36667 0.9,-0.66667 2,-0.66667 1.55556,0 2,-0.2963 2,-1.33333 0,-0.73334 0.3,-1.33334 0.66667,-1.33334 0.36666,0 0.66666,0.6 0.66666,1.33334 0,0.96918 0.44445,1.33333 1.62733,1.33333 0.89502,0 1.81273,0.3 2.03934,0.66667 0.24039,0.38895 -0.43752,0.66666 -1.62732,0.66666 -1.73086,0 -2.03935,0.25212 -2.03935,1.66667 0,0.91667 -0.3,1.66667 -0.66666,1.66667 -0.36667,0 -0.66667,-0.75 -0.66667,-1.66667 z m 8.20986,-10.68928 c 0.61791,-1.29578 1.12347,-2.49578 1.12347,-2.66667 0,-0.17089 -3.9,-0.31072 -8.66666,-0.31072 -4.76667,0 -8.66667,0.11337 -8.66667,0.25192 0,0.13856 0.45403,1.33856 1.00895,2.66667 l 1.00894,2.41475 h 6.53425 6.53425 z m 3.79014,8.68928 v -13 h 10.66667 10.66666 v 13 13 h -10.66666 -10.66667 z m 19.30131,11.16667 c -0.0176,-0.275 -0.54462,-1.55 -1.17114,-2.83334 l -1.13913,-2.33333 -6.13605,-0.19134 -6.13605,-0.19134 -1.35947,2.66478 c -0.74771,1.46563 -1.35947,2.82673 -1.35947,3.02468 0,0.19794 3.9,0.35989 8.66667,0.35989 4.76666,0 8.65226,-0.225 8.63464,-0.5 z m -16.02811,-11.16667 c 0,-2.56667 -0.41211,-5.56667 -0.91579,-6.66667 -0.8322,-1.81746 -0.91578,-1.209 -0.91578,6.66667 0,7.87568 0.0836,8.48413 0.91578,6.66667 0.50368,-1.1 0.91579,-4.1 0.91579,-6.66667 z m 16.67266,-0.16667 c -0.0494,-7.7578 -0.13411,-8.32536 -0.96994,-6.5 -1.10947,2.423 -1.25292,10.00642 -0.24403,12.90052 0.40253,1.15472 0.85253,2.09948 1,2.09948 0.14746,0 0.24375,-3.825 0.21397,-8.5 z m -3.27919,-0.16666 v -4.66667 h -6 -6 v 4.66667 4.66666 h 6 6 z m -6.66667,2.33333 c 0,-1.40741 -0.31111,-1.66667 -2,-1.66667 -1.1,0 -2,-0.3 -2,-0.66666 0,-0.36667 0.9,-0.66667 2,-0.66667 1.55556,0 2,-0.2963 2,-1.33333 0,-0.73334 0.3,-1.33334 0.66667,-1.33334 0.36666,0 0.66666,0.6 0.66666,1.33334 0,0.96918 0.44445,1.33333 1.62733,1.33333 0.89502,0 1.81273,0.3 2.03934,0.66667 0.24039,0.38895 -0.43752,0.66666 -1.62732,0.66666 -1.73086,0 -2.03935,0.25212 -2.03935,1.66667 0,0.91667 -0.3,1.66667 -0.66666,1.66667 -0.36667,0 -0.66667,-0.75 -0.66667,-1.66667 z m 8.32439,-10.74808 c 0.55492,-1.32811 1.00894,-2.52811 1.00894,-2.66667 0,-0.13855 -3.9,-0.25192 -8.66666,-0.25192 -4.76667,0 -8.66667,0.13983 -8.66667,0.31072 0,0.17089 0.50557,1.37089 1.12348,2.66667 l 1.12347,2.35595 h 6.53425 6.53424 z m 4.12006,21.30364 c -0.24445,-0.24445 -0.44445,-6.09445 -0.44445,-13 v -12.55556 h 10.66667 10.66666 v 13 13 h -10.22222 c -5.62222,0 -10.42222,-0.2 -10.66666,-0.44444 z m 18.53106,-2.38889 c -1.23661,-4.14343 -1.89434,-4.5 -8.30075,-4.5 -6.42526,0 -6.34398,-0.0436 -7.99103,4.28845 l -0.65073,1.71155 h 8.69509 8.6951 z m -15.68942,-10.16667 c 0,-3.40127 -0.34515,-5.9371 -0.95276,-7 -0.8625,-1.50879 -0.95275,-0.84572 -0.95275,7 0,7.84572 0.0903,8.50879 0.95275,7 0.60761,-1.0629 0.95276,-3.59872 0.95276,-7 z m 16.65977,-0.16667 c -0.0494,-7.7578 -0.13411,-8.32536 -0.96994,-6.5 -1.14161,2.49319 -1.24229,9.83537 -0.17533,12.78601 0.44033,1.21769 0.89033,2.21399 1,2.21399 0.10968,0 0.17505,-3.825 0.14527,-8.5 z m -2.74873,0 -0.19713,-4.5 -6.16667,-0.19168 -6.16666,-0.19168 v 4.69168 4.69168 h 6.36379 6.36379 z m -7.19713,2.16667 c 0,-1.41455 -0.30849,-1.66667 -2.03934,-1.66667 -1.1898,0 -1.86771,-0.27771 -1.62733,-0.66666 0.22662,-0.36667 1.14432,-0.66667 2.03935,-0.66667 1.18288,0 1.62732,-0.36415 1.62732,-1.33333 0,-0.73334 0.3,-1.33334 0.66667,-1.33334 0.36666,0 0.66666,0.6 0.66666,1.33334 0,0.96918 0.44445,1.33333 1.62733,1.33333 0.89502,0 1.81273,0.3 2.03934,0.66667 0.24039,0.38895 -0.43752,0.66666 -1.62732,0.66666 -1.73086,0 -2.03935,0.25212 -2.03935,1.66667 0,0.91667 -0.3,1.66667 -0.66666,1.66667 -0.36667,0 -0.66667,-0.75 -0.66667,-1.66667 z m 8.40641,-10.73872 c 0.55277,-1.32297 0.87819,-2.53224 0.72316,-2.68726 -0.15503,-0.15503 -4.03971,-0.19761 -8.63263,-0.0946 l -8.35076,0.18726 0.99821,2.5 0.99822,2.5 h 6.62938 6.62938 z m 4.24439,21.40539 c -0.009,-0.18334 -0.0233,-5.95834 -0.0324,-12.83334 l -0.0165,-12.5 10.36574,-0.18359 10.36574,-0.1836 v 13.01693 13.01693 h -10.33333 c -5.68333,0 -10.34047,-0.15 -10.3492,-0.33333 z m 17.87436,-4 -1.45751,-3 h -6.17704 c -6.66622,0 -6.55415,-0.0586 -8.20688,4.28845 l -0.65073,1.71155 h 8.97484 8.97483 z m -15.29515,-9.71435 c -0.13792,-3.52999 -0.56367,-6.22054 -1.06334,-6.71975 -0.66663,-0.66602 -0.828,0.89449 -0.80664,7.80076 0.0253,8.19318 0.0795,8.53578 1.06333,6.71976 0.7761,-1.43263 0.97884,-3.39324 0.80665,-7.80077 z m 16.75978,0.88101 c -0.007,-5.30386 -0.21889,-7.51042 -0.65646,-6.83333 -1.13037,1.74912 -0.77397,14.66667 0.40466,14.66667 0.14411,0 0.25742,-3.525 0.2518,-7.83334 z m -2.79266,0 -0.19713,-4.5 -6.16667,-0.19168 -6.16666,-0.19168 v 4.69168 4.69168 h 6.36379 6.36379 z m -7.19713,2.16667 c 0,-1.41455 -0.30849,-1.66667 -2.03934,-1.66667 -1.1898,0 -1.86771,-0.27771 -1.62733,-0.66666 0.22662,-0.36667 1.14432,-0.66667 2.03935,-0.66667 1.18288,0 1.62732,-0.36415 1.62732,-1.33333 0,-0.73334 0.3,-1.33334 0.66667,-1.33334 0.36666,0 0.66666,0.6 0.66666,1.33334 0,1.03703 0.44445,1.33333 2,1.33333 2.50737,0 2.64144,1.17097 0.16667,1.45572 -1.31267,0.15104 -1.89383,0.63694 -2.04637,1.71095 -0.28983,2.04079 -1.45363,1.90736 -1.45363,-0.16667 z m 8.31621,-10.30023 c 0.55942,-1.08179 1.01712,-2.28179 1.01712,-2.66666 0,-0.45248 -3.04379,-0.69978 -8.61303,-0.69978 h -8.61304 l 1.0475,2.66667 1.04749,2.66667 h 6.54842 6.54842 z m 4.33459,20.98383 c -0.009,-0.19265 -0.023,-5.97527 -0.0317,-12.85027 l -0.0159,-12.5 h 10.39682 10.39683 l 6.6e-4,12.66667 6.7e-4,12.66667 -10.36575,0.18359 c -5.70116,0.10098 -10.37288,0.026 -10.38161,-0.16666 z m 17.86347,-4.03934 -1.4684,-3.02241 -6.29389,0.18908 -6.29389,0.18907 -1.20171,2.83333 -1.2017,2.83334 h 8.96399 8.964 z m -15.27465,-8.64426 c 0,-2.93333 -0.25783,-5.93333 -0.57295,-6.66667 -0.36174,-0.8418 -0.57295,1.61584 -0.57295,6.66667 0,5.05083 0.21121,7.50847 0.57295,6.66667 0.31512,-0.73334 0.57295,-3.73334 0.57295,-6.66667 z m 16.75017,-0.16667 c -0.007,-5.30386 -0.21889,-7.51042 -0.65646,-6.83333 -1.13037,1.74912 -0.77397,14.66667 0.40466,14.66667 0.14411,0 0.25742,-3.525 0.2518,-7.83334 z m -2.65646,-0.16666 v -4.66667 h -6.33333 -6.33333 v 4.66667 4.66666 h 6.33333 6.33333 z m -6.73156,2.66666 c -0.21364,-1.32645 -0.7133,-1.7095 -2.44776,-1.87651 -2.62328,-0.2526 -2.20532,-1.45682 0.50564,-1.45682 1.45514,0 1.98358,-0.35978 2.2032,-1.5 l 0.28891,-1.5 0.0908,1.5 c 0.0728,1.20205 0.48806,1.5 2.09078,1.5 2.49269,0 2.64772,1.16916 0.19304,1.45572 -1.27993,0.14942 -1.93082,0.69707 -2.23156,1.87761 l -0.4246,1.66667 z m 8.0649,-11.33333 1.36043,-2.66667 h -8.96404 -8.96404 l 1.11716,2.65989 1.11715,2.65989 6.48646,0.007 6.48645,0.007 z m 4,9 v -13.03386 l 10.36574,0.1836 10.36575,0.18359 v 12.66667 12.66667 l -10.36575,0.18359 -10.36574,0.1836 z m 18.07534,8.83333 -1.20332,-2.83333 h -6.46823 -6.46823 l -1.26852,2.83333 -1.26852,2.83334 h 8.94007 8.94007 z m 1.90346,-9 c -0.019,-7.6195 -0.1226,-8.36595 -1,-7.20591 -1.73567,2.29475 -1.12827,15.70591 0.71132,15.70591 0.17043,0 0.30034,-3.825 0.28868,-8.5 z m -17.33255,0.16667 c 0,-3.3 -0.29081,-6.45 -0.64625,-7 -0.43688,-0.67601 -0.64625,1.59188 -0.64625,7 0,5.40812 0.20937,7.67602 0.64625,7 0.35544,-0.55 0.64625,-3.7 0.64625,-7 z m 14.02041,-0.33333 v -4.66667 h -6.33333 -6.33333 v 4.66667 4.66666 h 6.33333 6.33333 z m -6.78696,2.5 c -0.16358,-1.15181 -0.71892,-1.54871 -2.39236,-1.70985 -2.64846,-0.25503 -2.19309,-1.45682 0.552,-1.45682 1.51621,0 1.96066,-0.30224 1.96066,-1.33333 0,-0.73334 0.3,-1.33334 0.66666,-1.33334 0.36667,0 0.66667,0.6 0.66667,1.33334 0,0.97777 0.44445,1.33333 1.66667,1.33333 0.91666,0 1.66666,0.3 1.66666,0.66667 0,0.36666 -0.75,0.66666 -1.66666,0.66666 -1.33334,0 -1.66667,0.33334 -1.66667,1.66667 0,2.07403 -1.16379,2.20746 -1.45363,0.16667 z m 8.23746,-11.17345 1.11716,-2.65989 h -8.61716 c -4.73944,0 -8.61716,0.2037 -8.61716,0.45267 0,0.24897 0.36026,1.44897 0.80059,2.66667 l 0.80059,2.214 6.69941,-0.007 6.69941,-0.007 z m 3.88284,9.00678 v -13 h 10.66666 10.66667 v 13 13 h -10.66667 -10.66666 z m 18.6496,9.95512 c -1.65297,-4.34764 -1.53957,-4.28845 -8.21625,-4.28845 h -6.1864 l -1.12348,2.35595 c -0.61791,1.29577 -1.12347,2.64577 -1.12347,3 0,0.38119 3.53035,0.64405 8.65016,0.64405 h 8.65017 z m 1.3504,-10.08845 c 0,-6.77293 -0.16671,-8.30012 -0.83334,-7.6341 -1.70837,1.70681 -1.27613,16.10076 0.4835,16.10076 0.19241,0 0.34984,-3.81 0.34984,-8.46666 z m -17.35375,0.13333 c 0,-3.3 -0.29081,-6.45 -0.64625,-7 -0.43688,-0.67601 -0.64625,1.59188 -0.64625,7 0,5.40812 0.20937,7.67602 0.64625,7 0.35544,-0.55 0.64625,-3.7 0.64625,-7 z m 14.02041,-0.33333 v -4.66667 h -6.33333 -6.33333 v 4.66667 4.66666 h 6.33333 6.33333 z m -6.66666,2.33333 c 0,-1.46558 -0.28627,-1.66667 -2.37268,-1.66667 -1.41202,0 -2.20586,-0.26992 -1.96066,-0.66666 0.22662,-0.36667 1.29432,-0.66667 2.37268,-0.66667 1.51621,0 1.96066,-0.30224 1.96066,-1.33333 0,-0.73334 0.3,-1.33334 0.66666,-1.33334 0.36667,0 0.66667,0.6 0.66667,1.33334 0,0.97777 0.44445,1.33333 1.66667,1.33333 0.91666,0 1.66666,0.3 1.66666,0.66667 0,0.36666 -0.75,0.66666 -1.66666,0.66666 -1.33334,0 -1.66667,0.33334 -1.66667,1.66667 0,0.91667 -0.3,1.66667 -0.66667,1.66667 -0.36666,0 -0.66666,-0.75 -0.66666,-1.66667 z m 8.17857,-11 1.0475,-2.66667 h -8.61304 c -4.73717,0 -8.61303,0.15964 -8.61303,0.35475 0,0.19511 0.43469,1.39511 0.96598,2.66667 l 0.96598,2.31192 h 6.59956 6.59956 z m 3.82143,9 v -13 h 10.66666 10.66667 v 13 13 h -10.66667 -10.66666 z m 19.33333,11.30678 c 0,-0.19795 -0.6061,-1.54795 -1.34688,-3 l -1.34688,-2.64011 h -6.2474 -6.2474 l -1.07239,2.68016 c -0.58981,1.47408 -1.07238,2.82408 -1.07238,3 0,0.17591 3.9,0.31984 8.66666,0.31984 4.76667,0 8.66667,-0.16195 8.66667,-0.35989 z m -16.76038,-11.30678 c 0,-3.3 -0.25783,-6.6 -0.57295,-7.33333 -0.35849,-0.83425 -0.57295,1.91075 -0.57295,7.33333 0,5.42258 0.21446,8.16758 0.57295,7.33333 0.31512,-0.73333 0.57295,-4.03333 0.57295,-7.33333 z m 17.40095,-0.5 c -0.0246,-8.33741 -0.0808,-8.70739 -1,-6.59013 -1.17173,2.69886 -1.29745,11.31727 -0.20023,13.72543 0.42553,0.93392 0.87553,1.69803 1,1.69803 0.12448,0 0.21459,-3.975 0.20023,-8.83333 z m -3.30724,0.0966 v -4.59664 h -3 c -3.14212,0 -3.22758,0.0828 -2.5798,2.5 0.27067,1.01003 0.90814,1.5 1.95155,1.5 0.85226,0 1.73498,0.3 1.96159,0.66666 0.24038,0.38895 -0.43752,0.66667 -1.62732,0.66667 -1.5949,0 -2.03935,0.29058 -2.03935,1.33333 0,0.73334 -0.3,1.33334 -0.66667,1.33334 -0.36666,0 -0.66666,-0.6 -0.66666,-1.33334 0,-1.03703 -0.44445,-1.33333 -2,-1.33333 -1.1,0 -2,-0.3 -2,-0.66667 0,-0.36666 0.9,-0.66666 2,-0.66666 1.78613,0 2,-0.21797 2,-2.03833 0,-1.98575 -0.0731,-2.03305 -2.83334,-1.83334 l -2.83333,0.205 -0.19635,4.46585 -0.19634,4.46584 3.86301,0.20082 c 2.12466,0.11045 4.98801,0.0943 6.36301,-0.0359 l 2.5,-0.23669 z m 1.52228,-8.42998 0.99822,-2.5 -8.35077,-0.18726 c -4.59292,-0.10299 -8.4776,-0.0604 -8.63263,0.0946 -0.15503,0.15503 0.1704,1.3643 0.72317,2.68726 l 1.00503,2.4054 h 6.62938 6.62939 z m 3.81106,8.83334 v -13 h 10.66666 10.66667 v 13 13 h -10.66667 -10.66666 z m 19.33333,11.30677 c 0,-0.19794 -0.61176,-1.55904 -1.35947,-3.02467 l -1.35947,-2.66478 -6.13605,0.19134 -6.13605,0.19134 -1.13912,2.33333 c -0.62652,1.28333 -1.15354,2.55833 -1.17115,2.83333 -0.0176,0.275 3.86798,0.5 8.63464,0.5 4.76667,0 8.66667,-0.16195 8.66667,-0.35989 z m -16.08079,-11.6401 c 0.0114,-2.38334 -0.39145,-5.23334 -0.89513,-6.33334 -0.83236,-1.81781 -0.9161,-1.21052 -0.91921,6.66667 -0.003,7.97656 0.0681,8.48087 0.89513,6.33333 0.49421,-1.28333 0.90786,-4.28333 0.91921,-6.66666 z m 16.72383,0.16666 c -0.0214,-7.70785 -0.11241,-8.34467 -0.97637,-6.83333 -1.17323,2.05234 -1.32544,11.223 -0.22633,13.6353 0.42553,0.93392 0.87553,1.69803 1,1.69803 0.12448,0 0.2157,-3.825 0.2027,-8.5 z m -3.30971,-0.19168 v -4.69168 l -6.16666,0.19168 -6.16667,0.19168 -0.19713,4.5 -0.19712,4.5 h 6.36379 6.36379 z m -6.66666,2.35835 c 0,-1.40741 -0.31111,-1.66667 -2,-1.66667 -1.1,0 -2,-0.3 -2,-0.66666 0,-0.36667 0.9,-0.66667 2,-0.66667 1.55555,0 2,-0.2963 2,-1.33333 0,-0.73334 0.3,-1.33334 0.66666,-1.33334 0.36667,0 0.66667,0.6 0.66667,1.33334 0,0.96918 0.44445,1.33333 1.62732,1.33333 0.89503,0 1.81274,0.3 2.03935,0.66667 0.24038,0.38895 -0.43752,0.66666 -1.62732,0.66666 -1.73086,0 -2.03935,0.25212 -2.03935,1.66667 0,0.91667 -0.3,1.66667 -0.66667,1.66667 -0.36666,0 -0.66666,-0.75 -0.66666,-1.66667 z m 8.20986,-10.68928 c 0.61791,-1.29578 1.12347,-2.49578 1.12347,-2.66667 0,-0.17089 -3.9,-0.31072 -8.66667,-0.31072 -4.76666,0 -8.66666,0.11337 -8.66666,0.25192 0,0.13856 0.45402,1.33856 1.00894,2.66667 l 1.00895,2.41475 h 6.53425 6.53424 z m 3.79014,8.68928 v -13 h 10.66666 10.66667 v 13 13 h -10.66667 -10.66666 z m 19.30131,11.16667 c -0.0176,-0.275 -0.54543,-1.55 -1.17293,-2.83334 l -1.14091,-2.33333 h -6.32081 -6.3208 l -1.14091,2.33333 c -0.6275,1.28334 -1.15532,2.55834 -1.17293,2.83334 -0.0176,0.275 3.86798,0.5 8.63464,0.5 4.76667,0 8.65226,-0.225 8.63465,-0.5 z m -16.02812,-11.16667 c 0,-2.56667 -0.4121,-5.56667 -0.91578,-6.66667 -0.8322,-1.81746 -0.91579,-1.209 -0.91579,6.66667 0,7.87568 0.0836,8.48413 0.91579,6.66667 0.50368,-1.1 0.91578,-4.1 0.91578,-6.66667 z m 16.67266,-0.16667 c -0.0494,-7.7578 -0.13411,-8.32536 -0.96993,-6.5 -1.10947,2.423 -1.25293,10.00642 -0.24404,12.90052 0.40254,1.15472 0.85254,2.09948 1,2.09948 0.14747,0 0.24375,-3.825 0.21397,-8.5 z m -3.27919,-0.16666 v -4.66667 h -6 -6 v 4.66667 4.66666 h 6 6 z m -6.66666,2.33333 c 0,-1.40741 -0.31111,-1.66667 -2,-1.66667 -1.1,0 -2,-0.3 -2,-0.66666 0,-0.36667 0.9,-0.66667 2,-0.66667 1.55555,0 2,-0.2963 2,-1.33333 0,-0.73334 0.3,-1.33334 0.66666,-1.33334 0.36667,0 0.66667,0.6 0.66667,1.33334 0,0.96918 0.44445,1.33333 1.62732,1.33333 0.89503,0 1.81274,0.3 2.03935,0.66667 0.24038,0.38895 -0.43752,0.66666 -1.62732,0.66666 -1.73086,0 -2.03935,0.25212 -2.03935,1.66667 0,0.91667 -0.3,1.66667 -0.66667,1.66667 -0.36666,0 -0.66666,-0.75 -0.66666,-1.66667 z m 8.20986,-10.68928 c 0.61791,-1.29578 1.12347,-2.49578 1.12347,-2.66667 0,-0.17089 -3.9,-0.31072 -8.66667,-0.31072 -4.76666,0 -8.66666,0.13983 -8.66666,0.31072 0,0.17089 0.50556,1.37089 1.12347,2.66667 l 1.12348,2.35595 h 6.41971 6.41972 z m 3.79014,8.68928 v -13 h 10.66666 10.66667 v 13 13 h -10.66667 -10.66666 z m 18.97551,10.16667 c -1.23698,-4.14467 -1.89322,-4.5 -8.31066,-4.5 h -5.97109 l -1.34688,2.64011 c -0.74078,1.45205 -1.34688,2.80205 -1.34688,3 0,0.19794 3.92021,0.35989 8.71159,0.35989 h 8.71159 z m -15.68943,-10.16667 c 0,-3.40127 -0.34514,-5.9371 -0.95275,-7 -0.8625,-1.50879 -0.95275,-0.84572 -0.95275,7 0,7.84572 0.0902,8.50879 0.95275,7 0.60761,-1.0629 0.95275,-3.59872 0.95275,-7 z m 16.65977,-0.16667 c -0.0494,-7.7578 -0.13411,-8.32536 -0.96993,-6.5 -1.14161,2.49319 -1.24229,9.83537 -0.17533,12.78601 0.44033,1.21769 0.89033,2.21399 1,2.21399 0.10967,0 0.17504,-3.825 0.14526,-8.5 z m -3.27919,-0.16666 v -4.66667 h -6 -6 v 4.66667 4.66666 h 6 6 z m -6.66666,2.33333 c 0,-1.41455 -0.30849,-1.66667 -2.03935,-1.66667 -1.1898,0 -1.8677,-0.27771 -1.62732,-0.66666 0.22661,-0.36667 1.14432,-0.66667 2.03935,-0.66667 1.18287,0 1.62732,-0.36415 1.62732,-1.33333 0,-0.73334 0.3,-1.33334 0.66666,-1.33334 0.36667,0 0.66667,0.6 0.66667,1.33334 0,0.96918 0.44445,1.33333 1.62732,1.33333 0.89503,0 1.81274,0.3 2.03935,0.66667 0.24038,0.38895 -0.43752,0.66666 -1.62732,0.66666 -1.73086,0 -2.03935,0.25212 -2.03935,1.66667 0,0.91667 -0.3,1.66667 -0.66667,1.66667 -0.36666,0 -0.66666,-0.75 -0.66666,-1.66667 z m 8.33314,-10.76903 c 0.55973,-1.33963 0.90449,-2.5489 0.76613,-2.68726 -0.13837,-0.13836 -4.00941,-0.1673 -8.60233,-0.0643 l -8.35077,0.18726 0.99822,2.5 0.99821,2.5 h 6.58642 6.58642 z m 4.1113,21.32459 c -0.24444,-0.24445 -0.44444,-6.09445 -0.44444,-13 v -12.55556 h 10.66666 10.66667 v 13 13 h -10.22222 c -5.62222,0 -10.42222,-0.2 -10.66667,-0.44444 z m 18.88889,-1.53294 c 0,-0.35423 -0.50556,-1.70423 -1.12347,-3 l -1.12348,-2.35595 h -6.1864 c -6.67668,0 -6.56328,-0.0592 -8.21625,4.28845 l -0.65073,1.71155 h 8.65017 c 5.11981,0 8.65016,-0.26286 8.65016,-0.64405 z m -16.04725,-11.02262 c 0,-3.40127 -0.34514,-5.9371 -0.95275,-7 -0.8625,-1.50879 -0.95275,-0.84572 -0.95275,7 0,7.84572 0.0902,8.50879 0.95275,7 0.60761,-1.0629 0.95275,-3.59872 0.95275,-7 z m 16.66706,-0.5 c -0.0297,-5.1836 -0.25614,-7.67964 -0.61981,-6.83333 -1.07567,2.50323 -0.73854,15 0.40466,15 0.1441,0 0.24092,-3.675 0.21515,-8.16667 z m -2.75602,0.33333 -0.19712,-4.5 -6.16667,-0.19168 -6.16667,-0.19168 v 4.69168 4.69168 h 6.3638 6.36379 z m -7.19712,2.16667 c 0,-1.41455 -0.30849,-1.66667 -2.03935,-1.66667 -1.1898,0 -1.8677,-0.27771 -1.62732,-0.66666 0.22661,-0.36667 1.14432,-0.66667 2.03935,-0.66667 1.18287,0 1.62732,-0.36415 1.62732,-1.33333 0,-0.73334 0.3,-1.33334 0.66666,-1.33334 0.36667,0 0.66667,0.6 0.66667,1.33334 0,0.96918 0.44445,1.33333 1.62732,1.33333 2.31124,0 2.76552,1.20003 0.55065,1.45463 -1.32403,0.15219 -1.90476,0.63538 -2.05767,1.71204 -0.28984,2.04079 -1.45363,1.90736 -1.45363,-0.16667 z m 8.36735,-10.64525 c 0.53129,-1.27156 0.96598,-2.47156 0.96598,-2.66667 0,-0.19511 -3.87586,-0.35475 -8.61303,-0.35475 h -8.61304 l 1.0475,2.66667 1.04749,2.66667 h 6.59956 6.59956 z m 4.28344,21.32885 c -0.009,-0.19265 -0.023,-5.97527 -0.0317,-12.85027 l -0.0159,-12.5 h 10.39683 10.39682 l 6.7e-4,12.66667 6.6e-4,12.66667 -10.36574,0.18359 c -5.70116,0.10098 -10.37289,0.026 -10.38162,-0.16666 z m 17.86348,-4.03934 -1.4684,-3.02241 -6.29389,0.18908 -6.29389,0.18907 -1.20171,2.83333 -1.20171,2.83334 h 8.964 8.964 z m -15.27465,-8.64426 c 0,-2.93333 -0.25783,-5.93333 -0.57296,-6.66667 -0.36173,-0.8418 -0.57295,1.61584 -0.57295,6.66667 0,5.05083 0.21122,7.50847 0.57295,6.66667 0.31513,-0.73334 0.57296,-3.73334 0.57296,-6.66667 z m 16.75017,-0.16667 c -0.007,-5.30386 -0.21889,-7.51042 -0.65646,-6.83333 -1.13037,1.74912 -0.77397,14.66667 0.40466,14.66667 0.1441,0 0.25741,-3.525 0.2518,-7.83334 z m -2.79267,0 -0.19712,-4.5 -6.16667,-0.19168 -6.16667,-0.19168 v 4.69168 4.69168 h 6.3638 6.36379 z m -6.59535,2.5 c -0.21364,-1.32645 -0.7133,-1.7095 -2.44776,-1.87651 -2.62328,-0.2526 -2.20532,-1.45682 0.50563,-1.45682 1.45514,0 1.98359,-0.35978 2.2032,-1.5 l 0.28892,-1.5 0.0908,1.5 c 0.0728,1.20205 0.48806,1.5 2.09079,1.5 2.49268,0 2.64772,1.16916 0.19303,1.45572 -1.27992,0.14942 -1.93081,0.69707 -2.23156,1.87761 l -0.42459,1.66667 z m 8.06489,-11.33333 1.36044,-2.66667 h -8.95992 -8.95992 l 1.0475,2.66667 1.04749,2.66667 h 6.55199 6.55199 z m 4,9 v -13.03386 l 10.36575,0.1836 10.36574,0.18359 v 12.66667 12.66667 l -10.36574,0.18359 -10.36575,0.1836 z m 17.99963,8.83333 -1.26852,-2.83333 h -6.39777 -6.39777 l -1.26852,2.83333 -1.26852,2.83334 h 8.93481 8.93481 z m 1.97675,-9.33333 c -0.0214,-7.99686 -0.11384,-8.67551 -0.97638,-7.16667 -1.69251,2.96075 -1.13009,16 0.69013,16 0.17043,0 0.29924,-3.975 0.28625,-8.83333 z m -17.36677,0.16667 c 0.0202,-3.11667 -0.25417,-6.11667 -0.60961,-6.66667 -0.43589,-0.6745 -0.63432,1.60404 -0.6096,7 0.0233,5.08194 0.24564,7.51366 0.6096,6.66667 0.31513,-0.73334 0.58945,-3.88334 0.60961,-7 z m 14.05706,0 v -4.66667 h -6.33333 -6.33334 v 4.66667 4.66666 h 6.33334 6.33333 z m -6.78696,2.5 c -0.16359,-1.15181 -0.71892,-1.54871 -2.39236,-1.70985 -2.64846,-0.25503 -2.19309,-1.45682 0.552,-1.45682 1.51621,0 1.96065,-0.30224 1.96065,-1.33333 0,-0.73334 0.3,-1.33334 0.66667,-1.33334 0.36667,0 0.66667,0.6 0.66667,1.33334 0,0.97777 0.44444,1.33333 1.66666,1.33333 0.91667,0 1.66667,0.3 1.66667,0.66667 0,0.36666 -0.75,0.66666 -1.66667,0.66666 -1.33333,0 -1.66666,0.33334 -1.66666,1.66667 0,2.07403 -1.1638,2.20746 -1.45363,0.16667 z m 8.12029,-11.16667 1.36044,-2.66667 h -8.68022 c -4.77412,0 -8.68022,0.2037 -8.68022,0.45267 0,0.24897 0.36027,1.44897 0.8006,2.66667 l 0.80059,2.214 h 6.51919 6.51919 z m 4,9.01693 v -13.01693 h 10.68107 10.68106 l -0.18106,12.83333 -0.18107,12.83334 -10.5,0.18359 -10.5,0.1836 z m 18.07696,8.8164 -1.20171,-2.83333 -6.30341,-0.18919 -6.3034,-0.18919 -1.13422,2.37848 c -0.62382,1.30816 -1.13422,2.66829 -1.13422,3.02252 0,0.38115 3.52649,0.64405 8.63933,0.64405 h 8.63933 z m 1.90184,-9 c -0.019,-7.6195 -0.12259,-8.36595 -1,-7.20591 -1.67039,2.20846 -1.09343,15.70591 0.67137,15.70591 0.19241,0 0.34029,-3.825 0.32863,-8.5 z m -17.33255,0.16667 c 0,-3.3 -0.29081,-6.45 -0.64625,-7 -0.43687,-0.67601 -0.64624,1.59188 -0.64624,7 0,5.40812 0.20937,7.67602 0.64624,7 0.35544,-0.55 0.64625,-3.7 0.64625,-7 z m 14.02042,-0.33333 v -4.66667 h -6.33333 -6.33334 v 4.66667 4.66666 h 6.33334 6.33333 z m -6.66667,2.33333 c 0,-1.46558 -0.28626,-1.66667 -2.37267,-1.66667 -1.41203,0 -2.20586,-0.26992 -1.96066,-0.66666 0.22661,-0.36667 1.29432,-0.66667 2.37268,-0.66667 1.51621,0 1.96065,-0.30224 1.96065,-1.33333 0,-0.73334 0.3,-1.33334 0.66667,-1.33334 0.36667,0 0.66667,0.6 0.66667,1.33334 0,0.97777 0.44444,1.33333 1.66666,1.33333 0.91667,0 1.66667,0.3 1.66667,0.66667 0,0.36666 -0.75,0.66666 -1.66667,0.66666 -1.33333,0 -1.66666,0.33334 -1.66666,1.66667 0,0.91667 -0.3,1.66667 -0.66667,1.66667 -0.36667,0 -0.66667,-0.75 -0.66667,-1.66667 z m 8.17858,-11 1.0475,-2.66667 h -8.61304 c -5.56924,0 -8.61304,0.2473 -8.61304,0.69978 0,0.38487 0.45771,1.58487 1.01713,2.66666 l 1.01712,1.9669 h 6.54842 6.54841 z m 3.82142,9 v -13 h 10.66667 10.66667 v 13 13 h -10.66667 -10.66667 z m 18.64961,9.95512 c -1.65426,-4.35103 -1.53362,-4.28845 -8.26734,-4.28845 h -6.23749 l -1.07239,2.68016 c -0.58981,1.47408 -1.07239,2.82408 -1.07239,3 0,0.17591 3.89258,0.31984 8.65017,0.31984 h 8.65017 z m 1.29625,-10.12179 c -0.0492,-8.32369 -0.13836,-8.98274 -0.96993,-7.16666 -1.14015,2.49 -1.24774,11.15365 -0.17533,14.11933 0.44032,1.2177 0.89032,2.214 1,2.214 0.10967,0 0.17504,-4.125 0.14526,-9.16667 z m -17.33625,0.16667 c -0.0202,-3.3 -0.29448,-6.6 -0.60961,-7.33333 -0.3622,-0.8429 -0.58643,1.73192 -0.6096,7 -0.0247,5.6111 0.17446,8.00666 0.6096,7.33333 0.35544,-0.55 0.62976,-3.7 0.60961,-7 z m 14.05706,-0.35835 v -4.69168 l -6.16667,0.19168 -6.16666,0.19168 -0.19713,4.5 -0.19712,4.5 h 6.36379 6.36379 z m -6.66667,2.35835 c 0,-1.40741 -0.31111,-1.66667 -2,-1.66667 -1.1,0 -2,-0.3 -2,-0.66666 0,-0.36667 0.9,-0.66667 2,-0.66667 1.55556,0 2,-0.2963 2,-1.33333 0,-0.73334 0.3,-1.33334 0.66667,-1.33334 0.36667,0 0.66667,0.6 0.66667,1.33334 0,0.96918 0.44444,1.33333 1.62732,1.33333 0.89503,0 1.81273,0.3 2.03934,0.66667 0.24039,0.38895 -0.43752,0.66666 -1.62732,0.66666 -1.73085,0 -2.03934,0.25212 -2.03934,1.66667 0,0.91667 -0.3,1.66667 -0.66667,1.66667 -0.36667,0 -0.66667,-0.75 -0.66667,-1.66667 z m 8.18895,-10.83333 0.99821,-2.5 -8.35076,-0.18726 c -4.59292,-0.103 -8.4776,-0.0604 -8.63263,0.0946 -0.15503,0.15503 0.17039,1.36429 0.72316,2.68726 l 1.00504,2.40539 h 6.62938 6.62938 z m 3.81105,8.83333 v -13 h 10.66667 10.66667 v 13 13 h -10.66667 -10.66667 z m 19.33334,11.30678 c 0,-0.19795 -0.6061,-1.54795 -1.34688,-3 l -1.34689,-2.64011 h -6.24739 -6.2474 l -1.07239,2.68016 c -0.58981,1.47408 -1.07239,2.82408 -1.07239,3 0,0.17591 3.9,0.31984 8.66667,0.31984 4.76667,0 8.66667,-0.16195 8.66667,-0.35989 z m -16.05072,-11.39691 c 0.0279,-2.24957 -0.38754,-5.09957 -0.92319,-6.33333 -0.91796,-2.11435 -0.97249,-1.74536 -0.94928,6.42346 0.0227,7.99264 0.0945,8.4852 0.92319,6.33333 0.49421,-1.28333 0.92138,-4.17389 0.94928,-6.42346 z m 16.69376,-0.0765 c -0.0214,-7.70785 -0.11241,-8.34467 -0.97638,-6.83333 -1.17322,2.05234 -1.32544,11.223 -0.22632,13.6353 0.42552,0.93392 0.87552,1.69803 1,1.69803 0.12448,0 0.21569,-3.825 0.2027,-8.5 z m -3.30971,-0.19168 v -4.69168 l -6.16667,0.19168 -6.16666,0.19168 -0.19713,4.5 -0.19712,4.5 h 6.36379 6.36379 z m -6.66667,2.35835 c 0,-1.40741 -0.31111,-1.66667 -2,-1.66667 -1.1,0 -2,-0.3 -2,-0.66666 0,-0.36667 0.9,-0.66667 2,-0.66667 1.55556,0 2,-0.2963 2,-1.33333 0,-0.73334 0.3,-1.33334 0.66667,-1.33334 0.36667,0 0.66667,0.6 0.66667,1.33334 0,0.96918 0.44444,1.33333 1.62732,1.33333 0.89503,0 1.81273,0.3 2.03934,0.66667 0.24039,0.38895 -0.43752,0.66666 -1.62732,0.66666 -1.73085,0 -2.03934,0.25212 -2.03934,1.66667 0,0.91667 -0.3,1.66667 -0.66667,1.66667 -0.36667,0 -0.66667,-0.75 -0.66667,-1.66667 z m 8.20986,-10.68928 c 0.61791,-1.29578 1.12348,-2.49578 1.12348,-2.66667 0,-0.17089 -3.9,-0.31072 -8.66667,-0.31072 -4.76667,0 -8.66667,0.11337 -8.66667,0.25192 0,0.13856 0.45403,1.33856 1.00895,2.66667 l 1.00895,2.41475 h 6.53424 6.53425 z m 3.79014,8.68928 v -13 h 10.66667 10.66667 v 13 13 h -10.66667 -10.66667 z m 19.30132,11.16667 c -0.0176,-0.275 -0.54543,-1.55 -1.17293,-2.83334 l -1.14091,-2.33333 h -6.32081 -6.32081 l -1.1409,2.33333 c -0.6275,1.28334 -1.15532,2.55834 -1.17293,2.83334 -0.0176,0.275 3.86797,0.5 8.63464,0.5 4.76667,0 8.65226,-0.225 8.63465,-0.5 z m -16.02812,-11.16667 c 0,-2.56667 -0.4121,-5.56667 -0.91579,-6.66667 -0.8322,-1.81746 -0.91578,-1.209 -0.91578,6.66667 0,7.87568 0.0836,8.48413 0.91578,6.66667 0.50369,-1.1 0.91579,-4.1 0.91579,-6.66667 z m 16.70318,-0.16667 c -0.0214,-7.70785 -0.11241,-8.34467 -0.97638,-6.83333 -1.17322,2.05234 -1.32544,11.223 -0.22632,13.6353 0.42552,0.93392 0.87552,1.69803 1,1.69803 0.12448,0 0.21569,-3.825 0.2027,-8.5 z m -3.30971,-0.16666 v -4.66667 h -6 -6 v 4.66667 4.66666 h 6 6 z m -6.66667,2.33333 c 0,-1.40741 -0.31111,-1.66667 -2,-1.66667 -1.1,0 -2,-0.3 -2,-0.66666 0,-0.36667 0.9,-0.66667 2,-0.66667 1.55556,0 2,-0.2963 2,-1.33333 0,-0.73334 0.3,-1.33334 0.66667,-1.33334 0.36667,0 0.66667,0.6 0.66667,1.33334 0,0.96918 0.44444,1.33333 1.62732,1.33333 0.89503,0 1.81273,0.3 2.03934,0.66667 0.24039,0.38895 -0.43752,0.66666 -1.62732,0.66666 -1.73085,0 -2.03934,0.25212 -2.03934,1.66667 0,0.91667 -0.3,1.66667 -0.66667,1.66667 -0.36667,0 -0.66667,-0.75 -0.66667,-1.66667 z m 8.20986,-10.68928 c 0.61791,-1.29578 1.12348,-2.49578 1.12348,-2.66667 0,-0.17089 -3.9,-0.31072 -8.66667,-0.31072 -4.76667,0 -8.66667,0.13983 -8.66667,0.31072 0,0.17089 0.50557,1.37089 1.12348,2.66667 l 1.12347,2.35595 h 6.41972 6.41972 z m 3.79014,8.68928 v -13 h 10.66667 10.66667 v 13 13 h -10.66667 -10.66667 z m 18.97551,10.16667 c -1.23697,-4.14467 -1.89321,-4.5 -8.31066,-4.5 h -5.97108 l -1.34688,2.64011 c -0.74079,1.45205 -1.34689,2.80205 -1.34689,3 0,0.19794 3.92022,0.35989 8.7116,0.35989 h 8.71159 z m -15.70231,-10.16667 c 0,-2.56667 -0.4121,-5.56667 -0.91579,-6.66667 -0.8322,-1.81746 -0.91578,-1.209 -0.91578,6.66667 0,7.87568 0.0836,8.48413 0.91578,6.66667 0.50369,-1.1 0.91579,-4.1 0.91579,-6.66667 z m 16.67266,-0.16667 c -0.0494,-7.7578 -0.13411,-8.32536 -0.96993,-6.5 -1.10948,2.423 -1.25293,10.00642 -0.24404,12.90052 0.40253,1.15472 0.85253,2.09948 1,2.09948 0.14746,0 0.24375,-3.825 0.21397,-8.5 z m -3.27919,0.238 c 0,-5.03827 -0.046,-5.07133 -7.05452,-5.07133 h -4.94548 v 4.66667 4.66666 h 6 6 z m -6.66667,1.92867 c 0,-1.40741 -0.31111,-1.66667 -2,-1.66667 -1.1,0 -2,-0.3 -2,-0.66666 0,-0.36667 0.9,-0.66667 2,-0.66667 1.55556,0 2,-0.2963 2,-1.33333 0,-0.73334 0.3,-1.33334 0.66667,-1.33334 0.36667,0 0.66667,0.6 0.66667,1.33334 0,0.96918 0.44444,1.33333 1.62732,1.33333 0.89503,0 1.81273,0.3 2.03934,0.66667 0.24039,0.38895 -0.43752,0.66666 -1.62732,0.66666 -1.73085,0 -2.03934,0.25212 -2.03934,1.66667 0,0.91667 -0.3,1.66667 -0.66667,1.66667 -0.36667,0 -0.66667,-0.75 -0.66667,-1.66667 z m 8.33314,-10.76903 c 0.55974,-1.33963 0.9045,-2.5489 0.76613,-2.68726 -0.13836,-0.13836 -4.00941,-0.1673 -8.60233,-0.0643 l -8.35076,0.18726 0.99822,2.5 0.99821,2.5 h 6.58642 6.58641 z m 4.11131,21.32459 c -0.24445,-0.24445 -0.44445,-6.09445 -0.44445,-13 v -12.55556 h 10.66667 10.66667 v 13 13 h -10.22222 c -5.62223,0 -10.42223,-0.2 -10.66667,-0.44444 z m 18.88889,-1.53294 c 0,-0.35423 -0.50557,-1.70423 -1.12348,-3 l -1.12347,-2.35595 h -6.1864 c -6.67669,0 -6.56328,-0.0592 -8.21626,4.28845 l -0.65072,1.71155 h 8.65016 c 5.11982,0 8.65017,-0.26286 8.65017,-0.64405 z m -16.04725,-11.02262 c 0,-3.40127 -0.34514,-5.9371 -0.95275,-7 -0.86251,-1.50879 -0.95275,-0.84572 -0.95275,7 0,7.84572 0.0902,8.50879 0.95275,7 0.60761,-1.0629 0.95275,-3.59872 0.95275,-7 z m 16.68782,-0.5 c -0.0248,-7.75243 -0.0755,-8.05289 -1,-5.92346 -1.14945,2.64753 -1.27804,9.01871 -0.24202,11.99065 0.40253,1.15471 0.85253,2.09948 1,2.09948 0.14746,0 0.25637,-3.675 0.24202,-8.16667 z m -2.77678,0.33333 -0.19713,-4.5 -6.16666,-0.19168 -6.16667,-0.19168 v 4.69168 4.69168 h 6.36379 6.3638 z m -7.19713,2.16667 c 0,-1.41455 -0.30848,-1.66667 -2.03934,-1.66667 -1.1898,0 -1.86771,-0.27771 -1.62732,-0.66666 0.22661,-0.36667 1.14432,-0.66667 2.03934,-0.66667 1.18288,0 1.62732,-0.36415 1.62732,-1.33333 0,-0.73334 0.3,-1.33334 0.66667,-1.33334 0.36667,0 0.66667,0.6 0.66667,1.33334 0,0.96918 0.44444,1.33333 1.62732,1.33333 2.31124,0 2.76551,1.20003 0.55065,1.45463 -1.32403,0.15219 -1.90476,0.63538 -2.05767,1.71204 -0.28984,2.04079 -1.45364,1.90736 -1.45364,-0.16667 z m 8.40641,-10.73872 c 0.55277,-1.32297 0.87819,-2.53224 0.72317,-2.68726 -0.15503,-0.15503 -4.03972,-0.19761 -8.63264,-0.0946 l -8.35076,0.18726 0.99822,2.5 0.99821,2.5 h 6.62938 6.62938 z m 12.26026,8.02367 v -10.38172 l -1.75657,1.38172 c -0.96612,0.75994 -2.24112,1.3806 -2.83333,1.37922 -0.65772,-0.002 -0.29841,-0.47837 0.92323,-1.22529 1.1,-0.67254 2.41174,-1.72142 2.91497,-2.33084 0.50323,-0.60942 1.17823,-1.10804 1.5,-1.10804 0.32177,0 0.58503,5.1 0.58503,11.33333 0,7.11112 -0.24836,11.33334 -0.66666,11.33334 -0.41591,0 -0.66667,-3.90502 -0.66667,-10.38172 z M 210.91115,111.74852 c -0.63067,-2.29166 -2.30829,-8.44167 -3.72805,-13.666668 -2.38893,-8.791749 -2.69807,-9.499999 -4.14662,-9.499999 -1.17406,0 -1.48139,0.29157 -1.22976,1.16667 2.11301,7.348209 6.0129,22.310277 6.25565,23.999997 0.26528,1.84659 0.58339,2.16667 2.15336,2.16667 h 1.84209 z m 687.18714,13.06584 -0.20386,-3.13355 -3.71589,-0.73877 c -6.85167,-1.3622 -12.9492,-7.4599 -14.31059,-14.31096 l -0.73838,-3.71589 -3.28424,-0.39527 c -2.95438,-0.35556 -2.77408,-0.40578 1.7952,-0.5 l 5.07944,-0.10473 0.38686,-2.383918 c 0.95153,-5.863629 6.83274,-11.794489 12.61218,-12.718659 1.86437,-0.29813 2.50875,-0.72175 2.50875,-1.64929 0,-1.56202 -2.37996,-1.66437 -5.76949,-0.24813 -3.09136,1.29165 -4.44956,1.24608 -2.0257,-0.068 1.02931,-0.55802 3.12931,-1.2279 4.66666,-1.48862 l 2.7952,-0.47403 0.33333,-4.31803 c 0.25198,-3.26412 0.45315,-3.91124 0.82423,-2.65136 0.27,0.91667 0.495,2.94167 0.5,4.5 0.008,2.64267 0.13248,2.83378 1.84244,2.83985 1.00833,0.004 3.4136,0.74222 5.34503,1.64142 1.93143,0.89919 3.67782,1.63077 3.88085,1.62573 0.50894,-0.0127 3.89218,4.72062 5.24731,7.34117 0.61255,1.184539 1.32596,3.405779 1.58535,4.936099 0.46739,2.757408 0.50143,2.785958 3.78987,3.177668 3.0362,0.36167 2.8925,0.40417 -1.69064,0.5 l -5.0089,0.10473 -0.81285,3.42188 c -1.37971,5.80826 -5.28613,9.73911 -11.33602,11.40692 -1.98913,0.54835 -2.83334,1.13715 -2.83334,1.97614 0,1.46612 1.91982,1.52569 5.66667,0.17584 3.32384,-1.19745 3.66844,-1.1919 2.04937,0.033 -0.70618,0.53426 -2.73118,1.16337 -4.5,1.39801 l -3.21604,0.42663 v 2.87476 c 0,3.96514 -1.21066,4.39492 -1.4628,0.5193 z m 0.12947,-5.56584 c 0,-0.9503 -0.44444,-1.33333 -1.54712,-1.33333 -0.85092,0 -3.17592,-0.825 -5.16667,-1.83333 -4.16442,-2.10933 -7.70669,-6.72565 -8.3769,-10.91689 -0.30906,-1.93281 -0.72727,-2.58312 -1.66118,-2.58312 -1.54739,0 -1.6421,2.04906 -0.27395,5.92681 2.33833,6.62755 8.90261,11.8193 15.19249,12.01589 1.40799,0.044 1.83333,-0.25204 1.83333,-1.27603 z m 0,-7.33333 c 0,-2.66667 0.28572,-4.66667 0.66667,-4.66667 0.38166,0 0.66666,2.01766 0.66666,4.71964 v 4.71964 l 2.16667,-0.45822 c 4.39703,-0.92991 8.37314,-4.25238 10.13485,-8.46874 1.97511,-4.72711 1.6641,-5.16166 -3.80152,-5.31145 l -4.83333,-0.13246 4.83333,-0.23008 c 5.38831,-0.25649 5.74321,-0.7099 3.93436,-5.026408 -1.88351,-4.494679 -5.59119,-7.583929 -10.60102,-8.832779 l -1.83334,-0.45702 v 4.73894 c 0,2.714849 -0.28474,4.738939 -0.66666,4.738939 -0.38095,0 -0.66667,-2 -0.66667,-4.666669 0,-5.43786 -0.30725,-5.60529 -5.66667,-3.08797 -3.91981,1.84113 -5.11919,3.06662 -6.9487,7.099959 -2.27613,5.017978 -2.09663,5.301828 3.4487,5.453808 l 4.83334,0.13247 -4.83334,0.23007 c -5.6102,0.26706 -5.74632,0.51624 -3.23189,5.91635 1.63816,3.51819 4.57428,6.23068 8.06523,7.45095 4.13281,1.44463 4.33333,1.26591 4.33333,-3.8623 z m -0.1203,-7.5 c -0.14264,-1.00439 -0.76371,-1.5887 -1.8797,-1.76844 l -1.66667,-0.26844 1.66667,-0.42556 c 1.03834,-0.26512 1.74698,-0.98075 1.8797,-1.89822 0.28876,-1.996138 1.45363,-1.876168 1.45363,0.14971 0,1.2581 0.41165,1.68474 1.83334,1.90011 l 1.83333,0.27773 -1.83333,0.0999 c -1.48448,0.0809 -1.83334,0.41703 -1.83334,1.76655 0,2.07403 -1.16379,2.20746 -1.45363,0.16667 z m 18.78697,-4.39352 c 0,-2.847848 -3.72771,-9.740537 -6.34929,-11.740117 -4.99704,-3.81143 -10.98405,-5.53999 -10.98405,-3.1713 0,0.83899 0.84421,1.42779 2.83334,1.97615 6.04989,1.66781 9.95631,5.59865 11.33602,11.406909 0.59791,2.517048 1.1237,3.421878 1.98841,3.421878 0.84705,0 1.17557,-0.52915 1.17557,-1.89352 z M 87.926275,122.41519 c -0.327972,-0.75347 -1.249944,-1.16897 -2.603173,-1.17318 -2.902076,-0.009 -8.344804,-2.71867 -10.870486,-5.41185 -2.733649,-2.91493 -4.924369,-7.21395 -5.370286,-10.53851 -0.349102,-2.60274 -0.402166,-2.64735 -3.437905,-2.88984 -2.240821,-0.17899 -1.756922,-0.27913 1.770926,-0.36646 3.226076,-0.0799 4.933506,-0.39967 5.09053,-0.9535 0.12995,-0.45833 0.600256,-2.183328 1.045125,-3.833328 1.146598,-4.252689 6.014052,-8.869409 10.586675,-10.041339 2.536847,-0.65017 3.423414,-1.19005 3.423414,-2.08469 0,-1.48778 -1.534978,-1.54744 -5.333333,-0.2073 -3.504774,1.23655 -4.031358,1.2335 -2.382703,-0.0138 0.70618,-0.53427 2.73118,-1.16338 4.5,-1.39802 2.072532,-0.27493 3.216036,-0.75165 3.216036,-1.34074 0,-0.50276 0.3,-0.91411 0.666667,-0.91411 0.366666,0 0.666666,0.41135 0.666666,0.91411 0,0.58902 1.143078,1.06575 3.214074,1.34048 3.776979,0.50103 8.572548,3.34724 10.998318,6.52759 2.3001,3.01558 4.4216,7.801119 4.43963,10.014627 0.0135,1.66154 0.25303,1.8156 3.18131,2.0465 2.5011,0.19721 2.17963,0.27495 -1.52947,0.36986 l -4.69614,0.12016 -1.17713,3.82277 c -0.64742,2.10252 -1.90077,4.77151 -2.78522,5.93108 -1.76417,2.31295 -7.682894,5.57949 -10.109601,5.57949 -1.091326,0 -1.535771,0.38586 -1.535771,1.33333 0,1.64309 1.488415,1.71754 5.706582,0.28544 1.697581,-0.57635 3.220512,-0.9139 3.38429,-0.75012 0.521538,0.52154 -5.040968,2.46468 -7.05548,2.46468 -1.294611,0 -2.030229,0.38717 -2.21667,1.16667 -0.265756,1.11111 -0.303227,1.11111 -0.786875,0 z m -0.36518,-3.16667 c 0,-0.93393 -0.449325,-1.33772 -1.5,-1.34797 -4.591634,-0.0448 -11.151502,-5.68393 -12.536959,-10.77725 -0.43009,-1.58113 -0.888305,-3.24978 -1.018255,-3.70811 -0.380935,-1.34356 -2.944786,-1.01163 -2.944786,0.38124 0,2.67975 2.250309,7.54874 4.857999,10.51123 4.395697,4.99378 13.142001,8.28203 13.142001,4.94086 z m 0,-7.33333 c 0,-2.66667 0.285714,-4.66667 0.666667,-4.66667 0.382066,0 0.666666,2.02778 0.666666,4.75 v 4.75 l 2.166667,-0.42922 c 5.471214,-1.08387 10.776985,-6.58368 11.323325,-11.73745 0.17148,-1.61767 0.0297,-1.67735 -4.823325,-2.03024 l -5,-0.36358 5,-0.30309 c 4.866745,-0.29501 4.995295,-0.3475 4.823325,-1.969748 -0.54634,-5.15376 -5.852111,-10.653579 -11.323325,-11.737449 l -2.166667,-0.42922 v 4.75 c 0,2.722219 -0.2846,4.749999 -0.666666,4.749999 -0.381665,0 -0.666667,-2.01766 -0.666667,-4.719639 v -4.71963 l -2.166667,0.46659 c -4.626082,0.99624 -8.295932,4.05753 -10.131301,8.451269 -1.978839,4.737188 -1.669385,5.170698 3.797968,5.320538 l 4.833333,0.13247 -4.833333,0.23007 c -4.647609,0.22124 -4.833333,0.29402 -4.833333,1.8941 0,3.8171 4.232583,9.29408 8.666666,11.2147 4.343195,1.88125 4.666667,1.63145 4.666667,-3.6038 z m 0,-7.62239 c 0,-1.2581 -0.411648,-1.68474 -1.833333,-1.90011 l -1.833334,-0.27773 1.833334,-0.0999 c 1.484474,-0.0809 1.833333,-0.41704 1.833333,-1.76656 0,-0.916668 0.3,-1.666668 0.666667,-1.666668 0.366666,0 0.666666,0.73008 0.666666,1.622388 0,1.2581 0.411648,1.68474 1.833334,1.90011 l 1.833333,0.27773 -1.833333,0.0999 c -1.484475,0.0809 -1.833334,0.41703 -1.833334,1.76655 0,0.91667 -0.3,1.66667 -0.666666,1.66667 -0.366667,0 -0.666667,-0.73008 -0.666667,-1.62239 z m 19.333335,-3.3526 c 0,-2.407058 -3.0827,-8.839477 -5.48555,-11.446257 -3.996047,-4.3352 -12.514452,-7.225 -12.514452,-4.24542 0,0.94747 0.444445,1.33333 1.535771,1.33333 0.844673,0 3.129214,0.79405 5.076757,1.76455 3.958242,1.97248 6.933504,5.88604 8.161574,10.735449 0.52548,2.075028 1.05319,2.833338 1.97171,2.833338 0.6898,0 1.25419,-0.43875 1.25419,-0.97499 z M 439.56109,41.844463 c 0,-0.40556 2.28451,-4.75556 5.07669,-9.66667 l 5.07669,-8.92927 h 7.51329 7.51329 l 5.07669,8.92927 c 2.79218,4.91111 5.07669,9.26111 5.07669,9.66667 0,0.47702 -1.87489,0.73739 -5.30988,0.73739 -4.62757,0 -5.40157,-0.17133 -6.02346,-1.33333 -0.62694,-1.17145 -1.39588,-1.33333 -6.33333,-1.33333 -4.93745,0 -5.70639,0.16188 -6.33333,1.33333 -0.62189,1.162 -1.39588,1.33333 -6.02346,1.33333 -3.43499,0 -5.30988,-0.26037 -5.30988,-0.73739 z m 10.51196,-1.92927 c 0.73758,-1.18106 1.55468,-1.33334 7.15471,-1.33334 5.60003,0 6.41713,0.15228 7.15472,1.33334 0.68643,1.09915 1.55468,1.33333 4.94345,1.33333 h 4.11078 l -4.77114,-8.32159 -4.77114,-8.32159 h -6.66667 -6.66667 l -4.77114,8.32159 -4.77114,8.32159 h 4.11078 c 3.38877,0 4.25703,-0.23418 4.94346,-1.33333 z m 3.48804,-5.44143 c 0,-0.79163 3.19311,-6.55857 3.63143,-6.55857 0.41896,0 3.70191,5.86964 3.70191,6.61871 0,0.42176 -1.50264,0.71462 -3.66667,0.71462 -2.34105,0 -3.66667,-0.2801 -3.66667,-0.77476 z m 5.33334,-0.93573 c 0,-0.20744 -0.33949,-1.01151 -0.75443,-1.78682 -0.73057,-1.36509 -0.78325,-1.37022 -1.66666,-0.16208 -1.3098,1.79125 -1.13634,2.32606 0.75442,2.32606 0.91667,0 1.66667,-0.16973 1.66667,-0.37716 z m 17.13841,8.62668 c -0.25946,-0.25946 -0.47175,-4.62175 -0.47175,-9.69397 v -9.22222 h 6.52293 6.52293 l 1.24107,2.16667 c 2.44876,4.27503 4.71903,7.78495 5.04641,7.80191 0.18333,0.01 1.61388,-2.22955 3.179,-4.97566 l 2.84566,-4.99292 h 6.321 6.321 v 9.66667 9.66666 h -4.63746 -4.63746 l -0.19587,-4.82274 -0.19587,-4.82275 -2.67303,4.65608 -2.67302,4.65608 -3.79147,0.19888 -3.79146,0.19887 -2.53551,-4.42159 -2.53551,-4.42159 -0.33334,4.22271 -0.33333,4.22272 -4.36158,0.19397 c -2.39887,0.10669 -4.57387,-0.0183 -4.83334,-0.27778 z m 8.19492,-6.58286 c 0,-3.11666 0.24632,-5.66666 0.54738,-5.66666 0.30107,0 1.97872,2.55 3.72813,5.66666 l 3.18074,5.66667 h 2.90256 2.90255 l 3.20265,-5.44687 c 1.76146,-2.99578 3.57766,-5.57078 4.03599,-5.72222 0.62333,-0.20596 0.83333,1.16668 0.83333,5.44687 v 5.72222 h 3.33334 3.33333 v -8.33333 -8.33334 h -5.25749 -5.2575 l -3.2425,5.66449 c -2.85192,4.98216 -4.90918,7.07202 -4.90918,4.98698 0,-0.37503 -1.275,-2.91539 -2.83333,-5.64526 l -2.83333,-4.9634 -5.5,-0.0214 -5.5,-0.0214 v 8.33333 8.33333 h 3.66666 3.66667 z m 32.66667,-2.63746 v -9.69587 h 12.36644 c 13.73874,0 15.43917,0.40112 17.34794,4.09227 1.46776,2.83833 0.76734,6.05053 -1.7882,8.20088 -1.92698,1.62144 -2.42422,1.70685 -9.93709,1.70685 h -7.9086 l -0.20691,2.5 -0.20692,2.5 -4.83333,0.19587 -4.83333,0.19588 z m 8.79309,5.80413 0.20691,-2.5 8.45723,-0.18627 8.45723,-0.18626 1.70943,-2.03155 c 0.94019,-1.11736 1.70944,-2.47343 1.70944,-3.01351 0,-1.87003 -2.07125,-4.97584 -3.742,-5.61105 -0.92297,-0.35092 -6.7586,-0.63803 -12.96806,-0.63803 h -11.28994 v 8.33334 8.33333 h 3.62642 3.62643 z m 5.37357,-6.02696 -5.5,-0.19363 v -2.30637 -2.30637 h 6.30988 c 5.33638,0 6.40245,0.17999 6.90992,1.16666 1.51048,2.93686 -0.51802,3.89325 -7.7198,3.63971 z m 6.5,-2.47304 c 0,-0.80556 -1.03703,-1 -5.33333,-1 -4.29629,0 -5.33333,0.19444 -5.33333,1 0,0.80555 1.03704,1 5.33333,1 4.2963,0 5.33333,-0.19445 5.33333,-1 z m 448,-32.6666705 c 0,-0.18333 0.15,-0.33333 0.33334,-0.33333 0.18333,0 0.33333,0.15 0.33333,0.33333 0,0.18333 -0.15,0.33333 -0.33333,0.33333 -0.18334,0 -0.33334,-0.15 -0.33334,-0.33333 z"
       id="path2" />
  </g>
</svg>
